SplineFontDB: 3.0
FontName: LinBiolinumO
FullName: Linux Biolinum O
FamilyName: Linux Biolinum O
Weight: Book
Copyright: Linux Libertine by Philipp H. Poll,\nOpen Font under Terms of following Free Software Licenses:\nGPL (General Public License) with font-exception and OFL (Open Font License).\nCreated with FontForge (http://fontforge.sf.net)\nSept 2003, 2004, 2005, 2006, 2007, 2008, 2009, 2010, 2011,2012
UComments: "2003-08-29: Created.+AAoA-2004-07-25: v(1.0) release candidate+AAoA-2005-12-28: v(1.1.0) stable+AAoA-2006-01-01: v(2.0.0) stable+AAoA-2006-09-05: v(2.2.0) stable+AAoA-2006-12-04: v(2.3.0) stable+AAoA-2007-03-11: v(2.4.0) stable+AAoA-2007-12-00: v(2.7.0) stable+AAoA-2008-06-00: v(2.8.14) stable+AAoA" 
Version: 1.1.8
ItalicAngle: 0
UnderlinePosition: -98
UnderlineWidth: 40
Ascent: 754
Descent: 246
LayerCount: 2
Layer: 0 0 "Back"  1
Layer: 1 0 "Fore"  0
XUID: [1021 993 1524925707 2876416]
FSType: 0
OS2Version: 3
OS2_WeightWidthSlopeOnly: 0
OS2_UseTypoMetrics: 0
CreationTime: 1156455862
ModificationTime: 1341180406
PfmFamily: 33
TTFWeight: 400
TTFWidth: 5
LineGap: 0
VLineGap: 0
OS2TypoAscent: 894
OS2TypoAOffset: 0
OS2TypoDescent: -246
OS2TypoDOffset: 0
OS2TypoLinegap: 0
OS2WinAscent: 894
OS2WinAOffset: 0
OS2WinDescent: 246
OS2WinDOffset: 0
HheadAscent: 894
HheadAOffset: 0
HheadDescent: -246
HheadDOffset: 0
OS2FamilyClass: 2050
OS2Vendor: 'PfEd'
Lookup: 1 0 0 "Substitution cap-Accents"  {"Substitution cap-Accents 1"  } []
Lookup: 1 0 0 "Substitution f short"  {"Substitution f short 1"  } []
Lookup: 1 0 0 "Substitution dotless forms"  {"Substitution dotless forms 1"  } []
Lookup: 1 0 0 "LinLibertineO-'sups' Hochgestellte"  {"LinLibertineO-'sups' Hochgestellte 1" ("superior" ) } ['sups' ('DFLT' <'dflt' > 'cyrl' <'dflt' > 'grek' <'dflt' > 'latn' <'AZE ' 'CRT ' 'DEU ' 'MOL ' 'ROM ' 'TRK ' 'dflt' > ) ]

StartChar: exclam
Encoding: 33 33 0
Width: 228
VWidth: 999
Flags: HW
HStem: -10 112<76.3677 150.353> 638 20G<102 126.5>
VStem: 57 112<6.28114 82.4613> 59 110<425.857 643.461>
LayerCount: 2
Fore
SplineSet
113 658 m 0
 140 658 169 635 169 585 c 0
 169 520 153 478 143 392 c 0
 130 284 129 224 127 210 c 0
 126 199 123 190 113 190 c 0
 102 190 100 197 99 203 c 0
 97 224 92 314 84 392 c 0
 75 480 59 515 59 585 c 0
 59 639 91 658 113 658 c 0
57 44 m 1
 57 48 l 1
 66.2 74.5 80.8 89.8 111 102 c 1
 115 102 l 1
 144 91.5 159.8 76.2 169 48 c 1
 169 44 l 1
 158.8 11.8 143.2 -3 115 -10 c 1
 111 -10 l 1
 79.8 -3 65.8 10.5 57 44 c 1
EndSplineSet
Colour: ff80cc
EndChar

StartChar: quotedbl
Encoding: 34 34 1
Width: 336
VWidth: 999
Flags: HW
HStem: 426 218<85.8119 118.678> 427 218<211.812 244.678>
VStem: 63 86<487.695 633.98> 189 86<488.695 634.98>
LayerCount: 2
Fore
SplineSet
215 427 m 1
 215 427 189 586 189 595 c 0
 189 617 210 645 240 645 c 0
 266 645 275 628 275 612 c 0
 275 596 242 431 242 431 c 1
 215 427 l 1
89 426 m 1
 89 426 63 585 63 594 c 0
 63 616 84 644 114 644 c 0
 140 644 149 627 149 611 c 0
 149 595 116 430 116 430 c 1
 89 426 l 1
EndSplineSet
Colour: ff00ff
EndChar

StartChar: numbersign
Encoding: 35 35 2
Width: 470
VWidth: 520
Flags: HW
HStem: 195 51<34 123 167 276 319 408> 364 52<62 150 193 303 346 435>
DStem2: 94 14 129 14 0.158835 0.987305<5.59956 183.886 241.471 354.777 413.417 591.705> 248 14 283 14 0.155313 0.987865<5.4754 183.721 241.18 354.778 413.126 591.538>
LayerCount: 2
Fore
SplineSet
285 247 m 1
 303 364 l 1
 186 364 l 1
 167 247 l 1
 285 247 l 1
339 364 m 1
 319 247 l 1
 416 247 l 1
 408 195 l 1
 313 195 l 1
 283 14 l 1
 248 14 l 1
 276 195 l 1
 159 195 l 1
 129 14 l 1
 94 14 l 1
 123 195 l 1
 27 195 l 1
 34 247 l 1
 131 247 l 1
 150 364 l 1
 53 364 l 1
 62 417 l 1
 158 417 l 1
 187 598 l 1
 223 598 l 1
 193 417 l 1
 312 417 l 1
 340 598 l 1
 375 598 l 1
 346 417 l 1
 443 417 l 1
 435 364 l 1
 339 364 l 1
EndSplineSet
EndChar

StartChar: dollar
Encoding: 36 36 3
Width: 465
VWidth: 1134
Flags: HW
HStem: -9.7 42.3<137.964 193.418 232.351 297.215> 572 37.9<163.487 225.354 264.049 294.762> 674.5 20G<262.375 267.652>
VStem: 57 68<413.442 525.566> 343 79<89.5867 211.873>
DStem2: 188.555 -98.2666 225.5 -93.25 0.0548206 0.998496<5.24582 88.7146 132.002 364.794 464.299 668.611 709.533 792.87>
LayerCount: 2
Fore
SplineSet
214 365.3 m 1
 225.4 572 l 1
 224 572 l 2
 163 572 125 530 125 474 c 0
 125 415.9 173.5 383.9 214 365.3 c 1
245.1 264 m 1
 232.4 31.5 l 1
 290.4 36.1 343 71.2 343 140 c 0
 343 217 297.1 242.9 245.1 264 c 1
230.1 -9.2 m 1
 225.5 -93.2 l 1
 218.2 -97.4 198.6 -98.3 188.6 -98.3 c 1
 193.4 -9.7 l 1
 91.7 -5.8 43 33 43 33 c 1
 41 36 l 1
 48 64 56 94 60 127 c 1
 69 128 l 1
 92.8 77.7 139.1 40.7 195.7 32.6 c 1
 209.2 278.5 l 1
 132.9 310.8 57 356.5 57 450 c 0
 57 545.8 147.7 607.1 227.4 609.9 c 1
 231.8 689.5 l 1
 241 693 256 694.5 268.8 694.5 c 1
 264 608.9 l 1
 353 602.2 384 568 384 568 c 1
 386 565 l 1
 377 537 371 510 368 477 c 1
 358 476 l 1
 337.3 521.4 307.1 555.3 261.8 567.3 c 1
 249.9 350.7 l 1
 327.7 322.7 422 279.6 422 173 c 0
 422 125.6 401.6 74.9 362 41 c 0
 327.2 11.2 277.5 -5.5 230.1 -9.2 c 1
EndSplineSet
EndChar

StartChar: percent
Encoding: 37 37 4
Width: 680
VWidth: 1067
Flags: HW
HStem: -13 31<477 548> 240 33<522 592> 324 31<135 204> 517 40<299 490> 577 33<178 249>
VStem: 63 54<363 512> 263 33<433 539> 406 56<27 176> 607 32<100 225>
DStem2: 109 3 145 -13 0.584454 0.811427<8.22595 657.573 696.031 753.078>
LayerCount: 2
Fore
SplineSet
462 89 m 0
 462 33 490 18 510 18 c 0
 569 18 607 115 607 175 c 0
 607 231 574 240 559 240 c 0
 507 240 462 151 462 89 c 0
406 105 m 0
 406 185 468 273 547 273 c 0
 590 273 639 254 639 176 c 0
 639 104 592 -13 503 -13 c 0
 438 -13 406 48 406 105 c 0
389 557 m 0
 434 557 516 569 549 614 c 1
 583 597 l 1
 145 -13 l 1
 109 3 l 1
 492 537 l 1
 451 521 410 517 378 517 c 0
 353 517 313 527 293 539 c 1
 295 532 296 523 296 513 c 0
 296 445 249 324 159 324 c 0
 93 324 63 386 63 440 c 0
 63 522 126 610 203 610 c 0
 233 610 264 596 275 583 c 1
 333 556 370 557 389 557 c 0
118 425 m 0
 118 369 147 355 166 355 c 0
 225 355 263 450 263 512 c 0
 263 565 234 577 215 577 c 0
 163 577 118 487 118 425 c 0
EndSplineSet
EndChar

StartChar: parenleft
Encoding: 40 40 5
Width: 300
VWidth: 999
Flags: HW
VStem: 44 83<97.6984 405.148>
LayerCount: 2
Fore
SplineSet
44 252 m 0
 44 438 137 605 256 707 c 1
 279 689 l 1
 247 653 127 515 127 252 c 0
 127 -11 246 -149 279 -187 c 1
 256 -204 l 1
 48 -24 44 207 44 252 c 0
EndSplineSet
Substitution2: "LinLibertineO-'sups' Hochgestellte 1" parenleft.superior
Substitution2: "LinLibertineO-'sinf' Wissenschaftliche Indices 1" parenleft.inferior
Substitution2: "'c2sc' Versale nach Kapitaelchen 1" parenleft.sc
AlternateSubs2: "'aalt' Alle Alternativen zeigen 1" parenleft.sc
Substitution2: "'sinf' Wissenschaftliche Indices 1" parenleft.inferior
Substitution2: "'sups' Hochgestellte 1" parenleft.superior
Substitution2: "'case' Versalformen 1" parenleft.sc
EndChar

StartChar: parenright
Encoding: 41 41 6
Width: 300
VWidth: 999
Flags: HW
VStem: 173 83<98.8522 406.302>
LayerCount: 2
Fore
SplineSet
256 252 m 0
 256 66 163 -101 44 -203 c 1
 21 -185 l 1
 53 -149 173 -11 173 252 c 0
 173 515 54 653 21 691 c 1
 44 708 l 1
 252 528 256 297 256 252 c 0
EndSplineSet
Substitution2: "LinLibertineO-'sups' Hochgestellte 1" parenright.superior
Substitution2: "LinLibertineO-'sinf' Wissenschaftliche Indices 1" parenright.inferior
Substitution2: "'c2sc' Versale nach Kapitaelchen 1" parenright.sc
AlternateSubs2: "'aalt' Alle Alternativen zeigen 1" parenright.sc
Substitution2: "'sinf' Wissenschaftliche Indices 1" parenright.inferior
Substitution2: "'sups' Hochgestellte 1" parenright.superior
Substitution2: "'case' Versalformen 1" parenright.sc
Colour: ff00ff
EndChar

StartChar: asterisk
Encoding: 42 42 7
Width: 433
VWidth: 999
Flags: HMW
LayerCount: 2
Fore
SplineSet
198 567 m 1
 185 570 171 571 156 571 c 0
 107 571 75 578 75 608 c 0
 75 622 84 638 108 638 c 0
 142 638 160 605 204 587 c 1
 200 626 181 653 181 679 c 0
 181 700 193 718 211 718 c 0
 229 718 244 707 244 683 c 0
 244 656 227 616 225 586 c 1
 271 606 287 638 320 638 c 0
 347 638 354 618 354 608 c 0
 354 578 319 571 285 571 c 0
 266 571 248 570 230 567 c 1
 264 530 313 520 313 480 c 0
 313 462 298 451 284 451 c 0
 245 451 238 516 213 555 c 1
 188 510 181 451 143 451 c 0
 126 451 114 464 114 479 c 0
 114 522 165 530 198 567 c 1
EndSplineSet
EndChar

StartChar: plus
Encoding: 43 43 8
Width: 527
VWidth: 999
Flags: HMW
HStem: 208 49<66 238 289 461>
VStem: 238 51<34 208 257 431>
LayerCount: 2
Fore
SplineSet
289 257 m 1
 461 257 l 1
 461 208 l 1
 289 208 l 1
 289 34 l 1
 238 34 l 1
 238 208 l 1
 66 208 l 1
 66 257 l 1
 238 257 l 1
 238 431 l 1
 289 431 l 1
 289 257 l 1
EndSplineSet
Substitution2: "LinLibertineO-'sups' Hochgestellte 1" plus.superior
Substitution2: "LinLibertineO-'sinf' Wissenschaftliche Indices 1" plus.inferior
AlternateSubs2: "'aalt' Alle Alternativen zeigen 1" plus.superior plus.inferior uni2098
Substitution2: "'sinf' Wissenschaftliche Indices 1" plus.inferior
Substitution2: "'sups' Hochgestellte 1" plus.superior
EndChar

StartChar: slash
Encoding: 47 47 9
Width: 323
VWidth: 999
Flags: HW
HStem: 626 20G<245.277 293>
VStem: 15 278
DStem2: 15 -59 56 -59 0.318647 0.947874<13.0645 743.77>
LayerCount: 2
Fore
SplineSet
293 646 m 1
 56 -59 l 1
 15 -59 l 1
 252 646 l 1
 293 646 l 1
EndSplineSet
Substitution2: "LinLibertineO-'sups' Hochgestellte 1" fraction
Ligature2: "'frac' Brueche 1" uni2215
AlternateSubs2: "'aalt' Alle Alternativen zeigen 1" uni2215
EndChar

StartChar: one
Encoding: 49 49 10
Width: 465
VWidth: 1054
Flags: HW
HStem: -3 21G<238 285 285 335> 497 29<112.552 147.996> 590 20G<294.5 329>
VStem: 246 80<2.80533 511.906>
LayerCount: 2
Fore
SplineSet
326 189 m 2
 326 110 328 60 335 0 c 1
 333 -3 l 1
 333 -3 305 0 285 0 c 0
 267 0 239 -3 239 -3 c 1
 238 0 l 1
 245 57 246 111 246 189 c 2
 246 437 l 2
 246 473 246 513 228 513 c 0
 208 513 159 502 114 497 c 1
 108 526 l 1
 186 550 262 589 327 610 c 1
 331 610 334 610 334 605 c 0
 332 591 326 551 326 443 c 2
 326 189 l 2
EndSplineSet
Substitution2: "LinLibertineO-'sups' Hochgestellte 1" one.superior
Substitution2: "LinLibertineO-'sinf' Wissenschaftliche Indices 1" one.inferior
AlternateSubs2: "'aalt' Alle Alternativen zeigen 1" one.oldstyle one.superior one.fitted
Substitution2: "'sups' Hochgestellte 1" one.superior
Substitution2: "'sinf' Wissenschaftliche Indices 1" one.inferior
Substitution2: "'pnum' Proportionalziffern 1" one.fitted
Substitution2: "'onum' Minuskelziffern 1" one.taboldstyle
EndChar

StartChar: two
Encoding: 50 50 11
Width: 465
VWidth: 514
Flags: HW
HStem: 0 65<161.682 422.254> 459 21G<87.7568 107.789> 553 57<146.813 281.557>
VStem: 327.8 85.9<362.971 505.907>
LayerCount: 2
Fore
SplineSet
222 553 m 0
 194 553 165 546 145 530 c 0
 119.6 509.7 114.7 489 100.9 459 c 1
 87.8 460 l 1
 66.1 529 l 1
 88.9 559 147.3 610 238.3 610 c 0
 349.9 610 413.7 543.6 413.7 448.5 c 0
 413.7 391.9 378 327.7 341.1 278 c 0
 275 189 228 144 179.4 97 c 0
 172 89.9 161.7 79.3 161.7 70 c 0
 161.7 68 162.1 66.6 162.9 65 c 1
 190.3 67 209.5 67 244.6 67 c 0
 340.6 67 371.2 70 427.5 75 c 1
 423.8 59.8 422.6 44.2 422.6 28 c 0
 422.6 17.1 424.2 5.4 425.7 -5 c 1
 354.3 -2 324 0 252 0 c 0
 179 0 136.5 -3 62.7 -5 c 1
 57.5 3.6 52.6 19.3 52.6 34.4 c 0
 52.6 39 53.2 43.3 54.4 47 c 1
 103.5 93.7 218 194 289.7 301 c 0
 315.8 340 327.8 393.2 327.8 434.9 c 0
 327.8 505 274.4 553 222 553 c 0
EndSplineSet
Substitution2: "LinLibertineO-'sups' Hochgestellte 1" two.superior
Substitution2: "LinLibertineO-'sinf' Wissenschaftliche Indices 1" two.inferior
AlternateSubs2: "'aalt' Alle Alternativen zeigen 1" two.oldstyle two.superior two.fitted
Substitution2: "'sups' Hochgestellte 1" two.superior
Substitution2: "'sinf' Wissenschaftliche Indices 1" two.inferior
Substitution2: "'pnum' Proportionalziffern 1" two.fitted
Substitution2: "'onum' Minuskelziffern 1" two.taboldstyle
EndChar

StartChar: three
Encoding: 51 51 12
Width: 465
VWidth: 514
Flags: HW
HStem: -10 39<136.242 277.156> 300 39<161.654 269.23> 571 39<167.892 281.532>
VStem: 319 87<401.481 534.347> 340 86<97.1333 247.867>
LayerCount: 2
Fore
SplineSet
209 29 m 0
 245 29 340 51 340 172 c 0
 340 211 327 246 301 268 c 0
 273 291 235 300 203 300 c 0
 194 300 173 300 161 298 c 1
 161 342 l 1
 175 340 186 339 198 339 c 0
 232 339 261 348 281 367 c 0
 304 389 319 421 319 465 c 0
 319 530 275 571 236 571 c 0
 176 571 144 542 120 486 c 1
 105 487 l 1
 84 551 l 1
 87 554 l 1
 112 576 168 610 245 610 c 0
 344 610 406 552 406 480 c 0
 406 397 340 339 288 327 c 1
 288 322 l 1
 365 315 426 259 426 180 c 0
 426 48 292 -10 207 -10 c 0
 127 -10 84 16 58 38 c 1
 55 41 l 1
 77 116 l 1
 92 117 l 1
 119 59 130 29 209 29 c 0
EndSplineSet
Substitution2: "LinLibertineO-'sups' Hochgestellte 1" three.superior
Substitution2: "LinLibertineO-'sinf' Wissenschaftliche Indices 1" three.inferior
AlternateSubs2: "'aalt' Alle Alternativen zeigen 1" three.oldstyle three.superior three.fitted
Substitution2: "'sups' Hochgestellte 1" three.superior
Substitution2: "'sinf' Wissenschaftliche Indices 1" three.inferior
Substitution2: "'pnum' Proportionalziffern 1" three.fitted
Substitution2: "'onum' Minuskelziffern 1" three.taboldstyle
EndChar

StartChar: four
Encoding: 52 52 13
Width: 465
VWidth: 514
Flags: HW
HStem: -3 21G<278 326 363.5 368.5> 148 50<83 286 364 439.25> 584 20G<291 329 363.5 368.5>
VStem: 286 78<2.36826 148 198 512 562.646 601>
DStem2: 34 207 83 198 0.542919 0.839785<19.0449 392.95>
LayerCount: 2
Fore
SplineSet
286 148 m 1
 80 148 l 2
 44 148 21 153 21 168 c 0
 21 178 24 189 34 207 c 0
 86 296 230 516 291 600 c 0
 291 601 295 604 295 604 c 1
 295 604 313 600 329 600 c 0
 344 600 359 604 368 604 c 0
 369 604 370 602 370 600 c 0
 365 554 364 485 364 452 c 2
 364 198 l 1
 428 198 l 2
 438 198 443 191 443 182 c 0
 443 171 428 148 414 148 c 2
 414 148 400 148 364 148 c 1
 364 90 366 58 370 0 c 0
 370 -1 369 -3 368 -3 c 0
 359 -3 342 0 326 0 c 0
 310 0 279 -3 279 -3 c 1
 278 0 l 1
 284 51 286 71 286 148 c 1
286 512 m 1
 83 198 l 1
 286 198 l 1
 286 512 l 1
EndSplineSet
Substitution2: "LinLibertineO-'sups' Hochgestellte 1" four.superior
Substitution2: "LinLibertineO-'sinf' Wissenschaftliche Indices 1" four.inferior
AlternateSubs2: "'aalt' Alle Alternativen zeigen 1" four.oldstyle four.superior four.fitted
Substitution2: "'sups' Hochgestellte 1" four.superior
Substitution2: "'sinf' Wissenschaftliche Indices 1" four.inferior
Substitution2: "'pnum' Proportionalziffern 1" four.fitted
Substitution2: "'onum' Minuskelziffern 1" four.taboldstyle
EndChar

StartChar: five
Encoding: 53 53 14
Width: 465
VWidth: 514
Flags: HW
HStem: -10 40<137.181 265.183> 340 40<121.341 263.666> 533 67<140.396 373.874> 539 71<140.517 216.261 220.485 265.8 269.409 373>
VStem: 318 88<100.438 281.299>
DStem2: 72 311.5 120 365 0.108023 0.994148<58.372 236.605>
LayerCount: 2
Fore
SplineSet
202 -10 m 0
 126 -10 76 24 51 46 c 1
 47 49 l 1
 69 129 l 1
 83 130 l 1
 116 70 129 30 204 30 c 0
 272 30 318 87 318 179 c 0
 318 288 268 340 203 340 c 0
 156.4 340 118.9 325 79 309 c 1
 72 311.5 l 1
 104 606 l 1
 138 603 181 600 218 600 c 0
 271 600 325 603 382 610 c 1
 389 607 l 1
 373 539 l 1
 332 534 298 533 268 533 c 0
 221 533 178 537 141 542 c 1
 120 365 l 1
 142 373 188 380 229 380 c 0
 341 380 406 293 406 196 c 0
 406 78 321 -10 202 -10 c 0
EndSplineSet
Substitution2: "LinLibertineO-'sups' Hochgestellte 1" five.superior
Substitution2: "LinLibertineO-'sinf' Wissenschaftliche Indices 1" five.inferior
AlternateSubs2: "'aalt' Alle Alternativen zeigen 1" five.oldstyle five.superior five.fitted
Substitution2: "'sups' Hochgestellte 1" five.superior
Substitution2: "'sinf' Wissenschaftliche Indices 1" five.inferior
Substitution2: "'pnum' Proportionalziffern 1" five.fitted
Substitution2: "'onum' Minuskelziffern 1" five.taboldstyle
EndChar

StartChar: six
Encoding: 54 54 15
Width: 465
VWidth: 514
Flags: HW
HStem: -9 36<196.673 304.655> 318 40<172.443 291.974> 583 28<329.2 397.75>
VStem: 46 80<113.377 324.146> 344 88<87.9184 265.783>
LayerCount: 2
Fore
SplineSet
127 277 m 1
 126 267 126 250 126 240 c 0
 126 62 202 27 255 27 c 0
 303 27 344 63 344 173 c 0
 344 222 329 318 228 318 c 0
 206 318 166 317 127 277 c 1
400 583 m 1
 331 576 275 558 224 509 c 0
 176 462 140 391 129 306 c 1
 153 336 209 358 249 358 c 0
 405 358 432 228 432 180 c 0
 432 108 390 -9 244 -9 c 0
 167 -9 46 33 46 243 c 0
 46 340 80 435 153 508 c 0
 221 577 294 605 397 611 c 1
 400 583 l 1
EndSplineSet
Substitution2: "LinLibertineO-'sups' Hochgestellte 1" six.superior
Substitution2: "LinLibertineO-'sinf' Wissenschaftliche Indices 1" six.inferior
AlternateSubs2: "'aalt' Alle Alternativen zeigen 1" six.oldstyle six.superior six.fitted
Substitution2: "'sups' Hochgestellte 1" six.superior
Substitution2: "'sinf' Wissenschaftliche Indices 1" six.inferior
Substitution2: "'pnum' Proportionalziffern 1" six.fitted
Substitution2: "'onum' Minuskelziffern 1" six.taboldstyle
EndChar

StartChar: seven
Encoding: 55 55 16
Width: 465
VWidth: 514
Flags: HW
HStem: -13 21G<124 200> 525 75<106.135 344.444> 587 20G<64 84.5 399.5 424>
LayerCount: 2
Fore
SplineSet
345 525 m 1
 279.5 527 136 526.5 63 516 c 1
 65 531 68 550 68 565 c 0
 68 580 65 592 63 607 c 1
 106 601 194 600 343 600 c 0
 374 600 392 605 407 610 c 1
 424 600 l 1
 312 327 257 161 200 -9 c 1
 127 -13 l 1
 124 -7 l 1
 191 143 267 332 345 525 c 1
EndSplineSet
Substitution2: "LinLibertineO-'sups' Hochgestellte 1" seven.superior
Substitution2: "LinLibertineO-'sinf' Wissenschaftliche Indices 1" seven.inferior
AlternateSubs2: "'aalt' Alle Alternativen zeigen 1" seven.oldstyle seven.superior seven.fitted
Substitution2: "'sups' Hochgestellte 1" seven.superior
Substitution2: "'sinf' Wissenschaftliche Indices 1" seven.inferior
Substitution2: "'pnum' Proportionalziffern 1" seven.fitted
Substitution2: "'onum' Minuskelziffern 1" seven.taboldstyle
EndChar

StartChar: nine
Encoding: 57 57 17
Width: 465
VWidth: 514
Flags: HW
HStem: -11 28<62.25 130.8> 242 40<168.026 287.557> 573 36<155.345 263.327>
VStem: 28 88<334.217 512.082> 334 80<275.854 486.623>
LayerCount: 2
Fore
SplineSet
333 323 m 1
 334 333 334 350 334 360 c 0
 334 538 258 573 205 573 c 0
 157 573 116 537 116 427 c 0
 116 378 131 282 232 282 c 0
 254 282 294 283 333 323 c 1
60 17 m 1
 129 24 185 42 236 91 c 0
 284 138 320 209 331 294 c 1
 307 264 251 242 211 242 c 0
 55 242 28 372 28 420 c 0
 28 492 70 609 216 609 c 0
 293 609 414 567 414 357 c 0
 414 260 380 165 307 92 c 0
 239 23 166 -5 63 -11 c 1
 60 17 l 1
EndSplineSet
Substitution2: "LinLibertineO-'sups' Hochgestellte 1" nine.superior
Substitution2: "LinLibertineO-'sinf' Wissenschaftliche Indices 1" nine.inferior
AlternateSubs2: "'aalt' Alle Alternativen zeigen 1" nine.oldstyle nine.superior nine.fitted
Substitution2: "'sups' Hochgestellte 1" nine.superior
Substitution2: "'sinf' Wissenschaftliche Indices 1" nine.inferior
Substitution2: "'pnum' Proportionalziffern 1" nine.fitted
Substitution2: "'onum' Minuskelziffern 1" nine.taboldstyle
Colour: ff00ff
EndChar

StartChar: colon
Encoding: 58 58 18
Width: 220
VWidth: 999
Flags: HW
HStem: 39 112<80.3677 154.353> 302 112<80.3677 154.353>
VStem: 61 112<55.2811 131.461 318.281 394.461>
LayerCount: 2
Fore
SplineSet
61 356 m 1
 61 360 l 1
 70.2 386.5 84.8 401.8 115 414 c 1
 119 414 l 1
 148 403.5 163.8 388.2 173 360 c 1
 173 356 l 1
 162.8 323.8 147.2 309 119 302 c 1
 115 302 l 1
 83.8 309 69.8 322.5 61 356 c 1
61 93 m 1
 61 97 l 1
 70.2 123.5 84.8 138.8 115 151 c 1
 119 151 l 1
 148 140.5 163.8 125.2 173 97 c 1
 173 93 l 1
 162.8 60.8 147.2 46 119 39 c 1
 115 39 l 1
 83.8 46 69.8 59.5 61 93 c 1
EndSplineSet
Colour: ff00ff
EndChar

StartChar: less
Encoding: 60 60 19
Width: 487
VWidth: 999
Flags: HW
HStem: 73 331
DStem2: 49 263 122 239 0.940425 0.34<60.4911 397.706> 122 239 49 215 0.939653 -0.34213<0 337.557>
LayerCount: 2
Fore
SplineSet
122 239 m 1
 439 123 l 1
 439 73 l 1
 49 215 l 1
 49 263 l 1
 439 404 l 1
 439 354 l 1
 122 239 l 1
EndSplineSet
EndChar

StartChar: equal
Encoding: 61 61 20
Width: 527
VWidth: 999
Flags: HW
HStem: 144 49<66 461> 269 49<66 461>
LayerCount: 2
Fore
SplineSet
461 318 m 1
 461 269 l 1
 66 269 l 1
 66 318 l 1
 461 318 l 1
461 193 m 1
 461 144 l 1
 66 144 l 1
 66 193 l 1
 461 193 l 1
EndSplineSet
Substitution2: "LinLibertineO-'sups' Hochgestellte 1" equal.superior
Substitution2: "LinLibertineO-'sinf' Wissenschaftliche Indices 1" equal.inferior
AlternateSubs2: "'aalt' Alle Alternativen zeigen 1" equal.superior
Substitution2: "'sinf' Wissenschaftliche Indices 1" equal.inferior
Substitution2: "'sups' Hochgestellte 1" equal.superior
EndChar

StartChar: greater
Encoding: 62 62 21
Width: 487
VWidth: 999
Flags: HW
HStem: 71 331
DStem2: 366 236 439 260 0.939653 -0.34213<-337.557 0> 439 212 366 236 0.940425 0.34<-397.706 -60.4911>
LayerCount: 2
Fore
SplineSet
366 236 m 1
 49 352 l 1
 49 402 l 1
 439 260 l 1
 439 212 l 1
 49 71 l 1
 49 121 l 1
 366 236 l 1
EndSplineSet
Colour: ff00ff
EndChar

StartChar: question
Encoding: 63 63 22
Width: 405
VWidth: 487
Flags: HW
HStem: -10 112<143.368 217.353> 619 40<136.736 250.119>
VStem: 124 112<6.28114 82.4613> 167 26<174.002 289.255> 294 75<434.552 577.274>
LayerCount: 2
Fore
SplineSet
195 619 m 0
 139 619 98 570 72 525 c 1
 59 526 l 1
 43 593 l 1
 46 597 l 1
 70.5 617.5 131.5 659 204 659 c 0
 306 659 369 599 369 508 c 0
 369 429 310 385 263 351 c 0
 240 334 220 318 211 301 c 0
 198 276 193 252 193 228 c 2
 193 184 l 2
 193 177 188 174 180 174 c 0
 172 174 167 177 167 184 c 2
 167 230 l 2
 167 273 169 332 234 391 c 0
 274 428 294 457 294 504 c 0
 294 569 252 619 195 619 c 0
124 44 m 1
 124 48 l 1
 133.2 74.5 147.8 89.8 178 102 c 1
 182 102 l 1
 211 91.5 226.8 76.2 236 48 c 1
 236 44 l 1
 225.8 11.8 210.2 -3 182 -10 c 1
 178 -10 l 1
 146.8 -3 132.8 10.5 124 44 c 1
EndSplineSet
Colour: ff80cc
EndChar

StartChar: at
Encoding: 64 64 23
Width: 895
VWidth: 999
Flags: HMW
HStem: -158 33<366.698 569.227> 27 43<368.151 451.044> 27 35<536.5 668.322> 379 31<449.098 547.769> 581 30<366.475 546.302>
VStem: 59 80<106.897 345.058> 273 73<90.7683 252.641> 760 79<177.345 388.516>
LayerCount: 2
Fore
SplineSet
569 316 m 0
 569 354 540 379 504 379 c 0
 487 379 444 370 414 339 c 0
 363 288 346 224 346 162 c 0
 346 114 361 70 424 70 c 0
 459 70 508 127 539 200 c 0
 552 231 569 282 569 316 c 0
583 74 m 0
 583 64 592 62 594 62 c 0
 696 62 760 109 760 275 c 0
 760 481 584 581 459 581 c 0
 307 581 139 478 139 241 c 0
 139 91 215 -125 473 -125 c 0
 558 -125 620 -102 674 -59 c 1
 687 -77 l 1
 627 -123 567 -158 454 -158 c 0
 215 -158 59 10 59 223 c 0
 59 438 244 611 469 611 c 0
 684 611 839 469 839 282 c 0
 839 168 769 27 551 27 c 0
 522 27 515 52 515 68 c 0
 515 83 522 106 530 131 c 1
 528 132 l 1
 484 58 430 29 395 29 c 0
 295 29 273 113 273 153 c 0
 273 296 400 410 506 410 c 0
 539 410 573 393 583 367 c 1
 588 391 l 1
 641 404 l 1
 656 399 l 1
 596 141 l 2
 590 114 583 80.5 583 74 c 0
EndSplineSet
EndChar

StartChar: A
Encoding: 65 65 24
Width: 629
Flags: HMW
HStem: -3 21G<22 66.5 90 104.177 499.931 511.5 588 604.5> 231 42<198.642 407.322> 638 20G<263 385>
DStem2: 16 -3 178.974 228.261 0.407548 0.913184<57.2509 287.455 329.137 596.593> 339 658 306.032 521.764 0.382928 -0.923778<113.228 379.463>
AnchorPoint: "unten_punkt" 270 -108 basechar 0
AnchorPoint: "unten_anhang" 58 8 basechar 0
AnchorPoint: "top_akzent" 322 798 basechar 0
AnchorPoint: "top_punkt" 322 700 basechar 0
LayerCount: 2
Fore
SplineSet
407.3 275.5 m 1
 380.4 345.2 347.1 427.4 306 521.8 c 1
 304 521.8 l 1
 198.6 275.9 l 1
 220.6 274.7 274.1 273 303 273 c 0
 332.7 273 374.3 274 407.3 275.5 c 1
179 228.3 m 1
 143.3 140.8 112.4 58.3 96 -3 c 1
 84 0 62 0 51 0 c 0
 40 0 28 0 16 -3 c 1
 117 218 215 436 311 658 c 1
 339 658 l 1
 431 439 563 98 613 -3 c 1
 596 0 570 0 553 0 c 0
 536 0 520 0 503 -3 c 1
 496.9 19.2 474.3 97.2 425.3 228.3 c 1
 401 230 346 231 308 231 c 0
 273.5 231 204 230 179 228.3 c 1
EndSplineSet
Position2: "'cpsp' Versalabstaende 1" dx=5 dy=0 dh=10 dv=0
Substitution2: "'c2sc' Versale nach Kapitaelchen 1" a.sc
EndChar

StartChar: B
Encoding: 66 66 25
Width: 616
VWidth: 999
Flags: HW
HStem: -3 43<174.577 403.148> 328 43<190 363.242> 605 43<172.065 358.947>
VStem: 104 86<52.3754 328 371 597.325> 408 87<424.724 559.411> 455 99<94.8914 252.437>
AnchorPoint: "unten_punkt" 275 -108 basechar 0
AnchorPoint: "unten_anhang" 257 0 basechar 0
AnchorPoint: "top_punkt" 289 700 basechar 0
AnchorPoint: "top_akzent" 282 798 basechar 0
LayerCount: 2
Fore
SplineSet
190 559 m 2
 190 371 l 1
 268 371 l 2
 351 371 408 396 408 481 c 0
 408 583 337 605 281 605 c 0
 200 605 190 592.3 190 559 c 2
190 328 m 1
 190 88 l 2
 190 55 217 40 287 40 c 0
 431.2 40 455 95.9 455 165 c 0
 455 255 400 328 283 328 c 2
 190 328 l 1
147 645 m 0
 197 645 239 648 274 648 c 0
 460 648 495 560 495 493 c 0
 495 438 453 385 402 360 c 1
 489 335 554 280 554 184 c 0
 554 98 505 -3 306 -3 c 0
 217 -3 209 0 147 0 c 0
 112 0 95 -3 95 -3 c 1
 94 0 l 1
 102 54 104 125 104 200 c 2
 104 445 l 2
 104 520 102 588 94 645 c 1
 96 648 l 1
 96 648 113 645 147 645 c 0
EndSplineSet
Position2: "'cpsp' Versalabstaende 1" dx=5 dy=0 dh=10 dv=0
Substitution2: "'c2sc' Versale nach Kapitaelchen 1" b.sc
EndChar

StartChar: C
Encoding: 67 67 26
Width: 677
VWidth: 999
Flags: HW
HStem: -10 51<292.131 490.773> 611 47<286.061 471.755>
VStem: 52 103<211.392 435.455>
AnchorPoint: "unten_punkt" 385 -110 basechar 0
AnchorPoint: "unten_anhang" 377 -7 basechar 0
AnchorPoint: "top_punkt" 371 700 basechar 0
AnchorPoint: "top_akzent" 371 798 basechar 0
LayerCount: 2
Fore
SplineSet
380 658 m 0
 502 658 598 608 598 608 c 1
 600 605 l 1
 589 562.5 585.6 545 582 494 c 1
 570 493 l 1
 529 575 456 611 366 611 c 0
 284 611 155 537 155 334 c 0
 155 178 248.2 41 375 41 c 0
 468 41 528 67 599 145 c 1
 606 142 l 1
 609.5 133 611.5 111 612.1 99.5 c 1
 545.3 18.7 458.4 -10 366 -10 c 0
 151 -10 52 142 52 315 c 0
 52 512 211 658 380 658 c 0
EndSplineSet
Position2: "'cpsp' Versalabstaende 1" dx=5 dy=0 dh=10 dv=0
Substitution2: "'c2sc' Versale nach Kapitaelchen 1" c.sc
EndChar

StartChar: D
Encoding: 68 68 27
Width: 710
VWidth: 999
Flags: HW
HStem: -2 44<171.537 435.266> 604 44<172.393 392.698>
VStem: 104 86<49.3073 594.385> 555 103<179.784 425.325>
AnchorPoint: "unten_punkt" 282 -107 basechar 0
AnchorPoint: "unten_anhang" 282 4 basechar 0
AnchorPoint: "top_punkt" 309 700 basechar 0
AnchorPoint: "top_akzent" 309 798 basechar 0
LayerCount: 2
Fore
SplineSet
190 82 m 2
 190 50 201 42 299 42 c 0
 440 42 555 82 555 284 c 0
 555 438 490 604 274 604 c 0
 225 604 190 599 190 564 c 2
 190 82 l 2
147 645 m 0
 211 645 248 648 312 648 c 0
 504 648 658 494 658 308 c 0
 658 62 471 -2 330 -2 c 0
 227 -2 218 0 147 0 c 0
 112 0 95 -3 95 -3 c 1
 94 0 l 1
 102 54 104 125 104 200 c 2
 104 445 l 2
 104 520 102 588 94 645 c 1
 96 648 l 1
 96 648 113 645 147 645 c 0
EndSplineSet
Position2: "'cpsp' Versalabstaende 1" dx=5 dy=0 dh=10 dv=0
Substitution2: "'c2sc' Versale nach Kapitaelchen 1" d.sc
EndChar

StartChar: E
Encoding: 69 69 28
Width: 538
VWidth: 999
Flags: HW
HStem: 0 56<194.662 417.584> 317 50<190 404.78> 589 56<194.662 419.27>
VStem: 104 86<58.188 317 367 587.818>
AnchorPoint: "unten_anhang" 283 4 basechar 0
AnchorPoint: "unten_punkt" 283 -107 basechar 0
AnchorPoint: "top_punkt" 284 700 basechar 0
AnchorPoint: "top_akzent" 287 805 basechar 0
LayerCount: 2
Fore
SplineSet
190 200 m 2
 190 183 191 80 198 56 c 1
 332 56 480 68 480 68 c 1
 482 64 l 1
 481 56 480 41 480 31 c 0
 480 21 481 14 482 0 c 1
 480 -3 l 1
 464 -1 441 0 420 0 c 2
 147 0 l 2
 112 0 95 -3 95 -3 c 1
 94 0 l 1
 102 54 104 125 104 200 c 2
 104 445 l 2
 104 520 102 588 94 645 c 1
 96 648 l 1
 96 648 113 645 147 645 c 2
 410 645 l 2
 431 645 454 646 470 648 c 1
 472 645 l 1
 471 631 470 615 470 607 c 0
 470 598 471 589 472 581 c 1
 470 577 l 1
 470 577 332 589 198 589 c 1
 191 565 190 462 190 445 c 2
 190 367 l 1
 308 367 354 372 413 377 c 1
 416 374 l 1
 414 365 413 351 413 342 c 0
 413 333 414 319 416 310 c 1
 413 307 l 1
 344 314 238 317 190 317 c 1
 190 200 l 2
EndSplineSet
Position2: "'cpsp' Versalabstaende 1" dx=5 dy=0 dh=10 dv=0
Substitution2: "'c2sc' Versale nach Kapitaelchen 1" e.sc
EndChar

StartChar: F
Encoding: 70 70 29
Width: 504
VWidth: 999
Flags: HW
HStem: -3 21G<94 147 147 200> 317 50<190 404.78> 589 56<194.662 419.27>
VStem: 104 86<2.67992 317 367 587.818>
AnchorPoint: "unten_anhang" 151 -1 basechar 0
AnchorPoint: "unten_punkt" 207 -111 basechar 0
AnchorPoint: "top_punkt" 293 700 basechar 0
AnchorPoint: "top_akzent" 292 798 basechar 0
LayerCount: 2
Fore
SplineSet
407 645 m 2
 431 645 454 646 470 648 c 1
 472 645 l 1
 471 631 470 619 470 611 c 0
 470 602 471 589 472 581 c 1
 470 577 l 1
 470 577 332 589 198 589 c 1
 191 565 190 462 190 445 c 2
 190 367 l 1
 308 367 354 372 413 377 c 1
 416 374 l 1
 414 365 413 351 413 342 c 0
 413 333 414 319 416 310 c 1
 413 307 l 1
 344 314 238 317 190 317 c 1
 190 200 l 2
 190 125 192 57 200 0 c 1
 198 -3 l 1
 198 -3 181 0 147 0 c 0
 112 0 95 -3 95 -3 c 1
 94 0 l 1
 102 54 104 125 104 200 c 2
 104 445 l 2
 104 520 102 588 94 645 c 1
 96 648 l 1
 96 648 113 645 147 645 c 2
 407 645 l 2
EndSplineSet
Position2: "'cpsp' Versalabstaende 1" dx=5 dy=0 dh=10 dv=0
Substitution2: "'c2sc' Versale nach Kapitaelchen 1" f.sc
EndChar

StartChar: G
Encoding: 71 71 30
Width: 717
VWidth: 999
Flags: HMW
HStem: -10 44<296.87 519.78> 614 44<295.445 484.524>
VStem: 52 103<200.39 438.829> 546 86<83.5114 304.327>
AnchorPoint: "unten_anhang" 371 2 basechar 0
AnchorPoint: "unten_punkt" 381 -111 basechar 0
AnchorPoint: "top_punkt" 379 700 basechar 0
AnchorPoint: "top_akzent" 379 798 basechar 0
LayerCount: 2
Fore
SplineSet
546 117 m 2
 546 192 544 250 536 307 c 1
 538 310 l 1
 538 310 555 307 589 307 c 0
 624 307 641 310 641 310 c 1
 642 307 l 1
 634 254 632 212 632 137 c 2
 632 131 l 2
 632 120 633.3 93.7 642 83 c 1
 642 80 l 1
 574.5 23.4 492.5 -10 376 -10 c 0
 175 -10 52 144 52 317 c 0
 52 537 229 658 401 658 c 0
 523 658 629 608 629 608 c 1
 631 605 l 1
 620.3 567 614.6 540 611 489 c 1
 599 488 l 1
 554 564 477 614 387 614 c 0
 252 614 155 502 155 327 c 0
 155 195 221 34 399 34 c 0
 453 34 512 40 546 72 c 1
 546 117 l 2
EndSplineSet
Position2: "'cpsp' Versalabstaende 1" dx=5 dy=0 dh=10 dv=0
Substitution2: "'c2sc' Versale nach Kapitaelchen 1" g.sc
EndChar

StartChar: grave
Encoding: 96 96 31
Width: 392
VWidth: 999
Flags: HW
LayerCount: 2
Fore
SplineSet
178 699 m 1
 248 573 l 2
 253 563 254 556 254 549 c 0
 254 544 247 538 239 538 c 0
 233 538 226 543 210 558 c 2
 96 667 l 1
 98 678 l 1
 106 684 129 701 163 701 c 0
 168 701 174 700 178 699 c 1
EndSplineSet
Substitution2: "'case' Versalformen 1" grave.cap
Colour: ff00ff
EndChar

StartChar: ograve
Encoding: 242 242 32
Width: 500
VWidth: 999
Flags: HW
HStem: -10 40<195.326 314.337> 399 40<184.058 317.876>
VStem: 38 88<109.697 316.694> 374 88<108.595 325.77>
LayerCount: 2
Fore
SplineSet
234 671 m 1
 304 545 l 2
 309 535 310 528 310 521 c 0
 310 516 303 510 295 510 c 0
 289 510 282 515 266 530 c 2
 152 639 l 1
 154 650 l 1
 162 656 185 673 219 673 c 0
 224 673 230 672 234 671 c 1
38 205 m 0
 38 347 123 439 254 439 c 0
 389 439 462 350 462 214 c 0
 462 83 382 -10 250 -10 c 0
 117 -10 38 85 38 205 c 0
247 399 m 0
 153 399 126 309 126 222 c 0
 126 145 153 30 259 30 c 0
 326 30 374 100.9 374 196 c 0
 374 317 353 399 247 399 c 0
EndSplineSet
Substitution2: "'smcp' Gemeine nach Kapitaelchen 1" ograve.sc
AlternateSubs2: "'aalt' Alle Alternativen zeigen 1" ograve.sc
Colour: ff00ff
EndChar

StartChar: oacute
Encoding: 243 243 33
Width: 500
VWidth: 999
Flags: HW
HStem: -10 40<195.326 314.337> 399 40<184.058 317.876>
VStem: 38 88<109.697 316.694> 374 88<108.595 325.77>
LayerCount: 2
Fore
SplineSet
280 671 m 1
 283 672 289 673 294 673 c 0
 300.4 673 326 672 349 650 c 1
 352 639 l 1
 237 530 l 2
 222 515 214 511 207 511 c 0
 200 511 193 517 193 524 c 0
 193 535.2 196.3 539.2 204.4 552 c 2
 280 671 l 1
38 205 m 0
 38 347 123 439 254 439 c 0
 389 439 462 350 462 214 c 0
 462 83 382 -10 250 -10 c 0
 117 -10 38 85 38 205 c 0
247 399 m 0
 153 399 126 309 126 222 c 0
 126 145 153 30 259 30 c 0
 326 30 374 100.9 374 196 c 0
 374 317 353 399 247 399 c 0
EndSplineSet
Substitution2: "'smcp' Gemeine nach Kapitaelchen 1" oacute.sc
AlternateSubs2: "'aalt' Alle Alternativen zeigen 1" oacute.sc
Colour: ff00ff
EndChar

StartChar: ocircumflex
Encoding: 244 244 34
Width: 500
VWidth: 999
Flags: HW
HStem: -10 40<195.326 314.337> 399 40<184.058 317.876>
VStem: 38 88<109.697 316.694> 125 253<517 517> 374 88<108.595 325.77>
LayerCount: 2
Fore
SplineSet
277 646 m 1
 306 599 342 557 378 517 c 1
 357 503 l 1
 318 532 285 557 251 593 c 1
 214 555 182 530 144 503 c 1
 124 517 l 1
 160 557 198 600 227 646 c 1
 277 646 l 1
38 205 m 0
 38 347 123 439 254 439 c 0
 389 439 462 350 462 214 c 0
 462 83 382 -10 250 -10 c 0
 117 -10 38 85 38 205 c 0
247 399 m 0
 153 399 126 309 126 222 c 0
 126 145 153 30 259 30 c 0
 326 30 374 100.9 374 196 c 0
 374 317 353 399 247 399 c 0
EndSplineSet
Substitution2: "'smcp' Gemeine nach Kapitaelchen 1" ocircumflex.sc
AlternateSubs2: "'aalt' Alle Alternativen zeigen 1" ocircumflex.sc
Colour: ff00ff
EndChar

StartChar: otilde
Encoding: 245 245 35
Width: 500
VWidth: 999
Flags: HW
HStem: -10 40<195.326 314.337> 399 40<184.058 317.876> 526 44<263 350> 574 46<145 236> 613 10
VStem: 38 88<109.697 316.694> 374 88<108.595 325.77>
LayerCount: 2
Fore
SplineSet
314 570 m 0
 336 570 350 580 364 622 c 1
 388 616 l 1
 376 556 347 526 301 526 c 0
 279 526 258 538 237 552 c 0
 219 563 200 574 183 574 c 0
 157 574 144 559 134 526 c 1
 110 531 l 1
 124 590 147 620 190 620 c 0
 220 620 242 606 262 592 c 0
 278 580 295 570 314 570 c 0
38 205 m 0
 38 347 123 439 254 439 c 0
 389 439 462 350 462 214 c 0
 462 83 382 -10 250 -10 c 0
 117 -10 38 85 38 205 c 0
247 399 m 0
 153 399 126 309 126 222 c 0
 126 145 153 30 259 30 c 0
 326 30 374 100.9 374 196 c 0
 374 317 353 399 247 399 c 0
EndSplineSet
Substitution2: "'smcp' Gemeine nach Kapitaelchen 1" otilde.sc
AlternateSubs2: "'aalt' Alle Alternativen zeigen 1" otilde.sc
Colour: ff00ff
EndChar

StartChar: odieresis
Encoding: 246 246 36
Width: 500
VWidth: 999
Flags: HW
HStem: -10 40<195.326 314.337> 399 40<184.058 317.876> 527 95<120.016 197.984 289.016 366.984>
VStem: 38 88<109.697 316.694> 112 94<534.394 614.312> 281 94<534.394 614.312> 374 88<108.595 325.77>
LayerCount: 2
Fore
SplineSet
112 574 m 0
 112 600 133 622 159 622 c 0
 185 622 206 600 206 574 c 0
 206 548 185 527 159 527 c 0
 133 527 112 548 112 574 c 0
281 574 m 0
 281 600 302 622 328 622 c 0
 354 622 375 600 375 574 c 0
 375 548 354 527 328 527 c 0
 302 527 281 548 281 574 c 0
38 205 m 0
 38 347 123 439 254 439 c 0
 389 439 462 350 462 214 c 0
 462 83 382 -10 250 -10 c 0
 117 -10 38 85 38 205 c 0
247 399 m 0
 153 399 126 309 126 222 c 0
 126 145 153 30 259 30 c 0
 326 30 374 100.9 374 196 c 0
 374 317 353 399 247 399 c 0
EndSplineSet
Substitution2: "'smcp' Gemeine nach Kapitaelchen 1" odieresis.sc
AlternateSubs2: "'aalt' Alle Alternativen zeigen 1" odieresis.sc
Colour: ff00ff
EndChar

StartChar: divide
Encoding: 247 247 37
Width: 527
VWidth: 999
Flags: HW
HStem: 53.6 93.9<234.492 296.502> 208 49<66 461> 321.6 93.9<234.492 296.502>
VStem: 218.3 93.9<67.2645 131.114> 218.3 93.9<335.264 399.114>
LayerCount: 2
Fore
SplineSet
218.3 366.9 m 1
 218.3 370.2 l 1
 226.1 392.4 238.1 405.2 263.5 415.5 c 1
 266.9 415.5 l 1
 291.2 406.7 304.4 393.9 312.2 370.2 c 1
 312.2 366.9 l 1
 303.6 339.9 290.6 327.5 266.9 321.6 c 1
 263.5 321.6 l 1
 237.3 327.5 225.6 338.8 218.3 366.9 c 1
218.3 98.9 m 1
 218.3 102.2 l 1
 226.1 124.4 238.1 137.2 263.5 147.5 c 1
 266.9 147.5 l 1
 291.2 138.7 304.4 125.9 312.2 102.2 c 1
 312.2 98.9 l 1
 303.6 71.9 290.6 59.5 266.9 53.6 c 1
 263.5 53.6 l 1
 237.3 59.5 225.6 70.8 218.3 98.9 c 1
461 257 m 1
 461 208 l 1
 66 208 l 1
 66 257 l 1
 461 257 l 1
EndSplineSet
Colour: ff00ff
EndChar

StartChar: ugrave
Encoding: 249 249 38
Width: 537
VWidth: 999
Flags: HW
HStem: -10 56<180.062 284.965> -3 21<376.625 384.667 455.5 464> 412 20<74 82 164 172 358 366 448 456>
VStem: 83 80<63.2634 426.335> 367 80<119.835 426.324>
LayerCount: 2
Fore
SplineSet
228 671 m 1
 298 545 l 2
 303 535 304 528 304 521 c 0
 304 516 297 510 289 510 c 0
 283 510 276 515 260 530 c 2
 146 639 l 1
 148 650 l 1
 156 656 179 673 213 673 c 0
 218 673 224 672 228 671 c 1
365 92 m 1
 332 41 276 -10 214 -10 c 0
 115 -10 83 60 83 129 c 2
 83 249 l 2
 83 325 82 372 74 429 c 1
 76 432 l 1
 88 430 111 429 123 429 c 0
 135 429 158 430 170 432 c 1
 172 429 l 1
 164 376 163 324 163 249 c 2
 163 150 l 2
 163 57 195.5 46 230 46 c 0
 279 46 336.5 99.5 367 151 c 1
 367 249 l 2
 367 325 365.8 371.8 358 429 c 1
 360 432 l 1
 372 430 395 429 407 429 c 0
 419 429 442 430 454 432 c 1
 456 429 l 1
 448 376 447 324 447 249 c 2
 447 192 l 2
 447 117 456 43 464 0 c 1
 462 -3 l 1
 449 -1 430.1 0 417.5 0 c 0
 403 0 391.3 -1.3 378 -3 c 0
 375.2 -3 374 -2 374 0 c 2
 369 89 l 1
 365 92 l 1
EndSplineSet
Substitution2: "'smcp' Gemeine nach Kapitaelchen 1" ugrave.sc
AlternateSubs2: "'aalt' Alle Alternativen zeigen 1" ugrave.sc
Colour: ff00ff
EndChar

StartChar: uacute
Encoding: 250 250 39
Width: 537
VWidth: 999
Flags: HW
HStem: -10 56<180.062 284.965> -3 21<376.625 384.667 455.5 464> 412 20<74 82 164 172 358 366 448 456>
VStem: 83 80<63.2634 426.335> 367 80<119.835 426.324>
LayerCount: 2
Fore
SplineSet
306 671 m 1
 309 672 315 673 320 673 c 0
 326.4 673 352 672 375 650 c 1
 378 639 l 1
 263 530 l 2
 248 515 240 511 233 511 c 0
 226 511 219 517 219 524 c 0
 219 535.2 222.3 539.2 230.4 552 c 2
 306 671 l 1
365 92 m 1
 332 41 276 -10 214 -10 c 0
 115 -10 83 60 83 129 c 2
 83 249 l 2
 83 325 82 372 74 429 c 1
 76 432 l 1
 88 430 111 429 123 429 c 0
 135 429 158 430 170 432 c 1
 172 429 l 1
 164 376 163 324 163 249 c 2
 163 150 l 2
 163 57 195.5 46 230 46 c 0
 279 46 336.5 99.5 367 151 c 1
 367 249 l 2
 367 325 365.8 371.8 358 429 c 1
 360 432 l 1
 372 430 395 429 407 429 c 0
 419 429 442 430 454 432 c 1
 456 429 l 1
 448 376 447 324 447 249 c 2
 447 192 l 2
 447 117 456 43 464 0 c 1
 462 -3 l 1
 449 -1 430.1 0 417.5 0 c 0
 403 0 391.3 -1.3 378 -3 c 0
 375.2 -3 374 -2 374 0 c 2
 369 89 l 1
 365 92 l 1
EndSplineSet
Substitution2: "'smcp' Gemeine nach Kapitaelchen 1" uacute.sc
AlternateSubs2: "'aalt' Alle Alternativen zeigen 1" uacute.sc
Colour: ff00ff
EndChar

StartChar: ucircumflex
Encoding: 251 251 40
Width: 537
VWidth: 999
Flags: HW
HStem: -10 56<180.062 284.965> -3 21<376.625 384.667 455.5 464> 412 20<74 82 164 172 358 366 448 456>
VStem: 83 80<63.2634 426.335> 129 253<517 517> 367 80<119.835 426.324>
LayerCount: 2
Fore
SplineSet
281 646 m 1
 310 599 346 557 382 517 c 1
 361 503 l 1
 322 532 289 557 255 593 c 1
 218 555 186 530 148 503 c 1
 128 517 l 1
 164 557 202 600 231 646 c 1
 281 646 l 1
365 92 m 1
 332 41 276 -10 214 -10 c 0
 115 -10 83 60 83 129 c 2
 83 249 l 2
 83 325 82 372 74 429 c 1
 76 432 l 1
 88 430 111 429 123 429 c 0
 135 429 158 430 170 432 c 1
 172 429 l 1
 164 376 163 324 163 249 c 2
 163 150 l 2
 163 57 195.5 46 230 46 c 0
 279 46 336.5 99.5 367 151 c 1
 367 249 l 2
 367 325 365.8 371.8 358 429 c 1
 360 432 l 1
 372 430 395 429 407 429 c 0
 419 429 442 430 454 432 c 1
 456 429 l 1
 448 376 447 324 447 249 c 2
 447 192 l 2
 447 117 456 43 464 0 c 1
 462 -3 l 1
 449 -1 430.1 0 417.5 0 c 0
 403 0 391.3 -1.3 378 -3 c 0
 375.2 -3 374 -2 374 0 c 2
 369 89 l 1
 365 92 l 1
EndSplineSet
Substitution2: "'smcp' Gemeine nach Kapitaelchen 1" ucircumflex.sc
AlternateSubs2: "'aalt' Alle Alternativen zeigen 1" ucircumflex.sc
Colour: ff00ff
EndChar

StartChar: ebreve
Encoding: 277 277 41
Width: 453
VWidth: 999
Flags: HW
HStem: -10 59<180.536 330.136> 233 40<125 322.997> 399 40<182.373 286.139> 501 57<163.292 295.981>
VStem: 34 88<110.038 233 273 315.973> 93 27<613.641 639.111> 323 89<244.5 350.727> 336 27<612.798 639.111>
LayerCount: 2
Fore
SplineSet
120 648 m 1
 131 595 174 558 228 558 c 0
 280 558 326 590 336 648 c 1
 363 636 l 1
 351 550 287 501 228 501 c 0
 158 501 107 551 93 636 c 1
 120 648 l 1
125 273 m 1
 309 273 l 2
 319 273 323 278 323 287 c 0
 323 362 278.5 399 239 399 c 0
 207.5 399 142 377 125 273 c 1
392 104 m 1
 412 79 l 1
 374 27 310 -10 238 -10 c 0
 170.6 -10 113.4 14.7 79 56 c 0
 45.5 96.2 34 152.3 34 209 c 0
 34 356 136 439 239 439 c 0
 371 439 412 334 412 250 c 0
 412 239 405 233 394 233 c 2
 122 233 l 1
 122 174.9 128.4 134.1 146 106 c 0
 173.5 62 220.8 49 255 49 c 0
 310 49 357 66 392 104 c 1
EndSplineSet
Colour: ff00ff
EndChar

StartChar: Edotaccent
Encoding: 278 278 42
Width: 538
VWidth: 999
Flags: HW
HStem: 0 56<194.662 417.584> 317 50<190 404.78> 589 56<194.662 419.27> 729 104<234.542 317.458>
VStem: 104 86<58.188 317 367 587.818> 224 104<739.542 822.458>
LayerCount: 2
Fore
SplineSet
224 781 m 0
 224 809 248 833 276 833 c 0
 304 833 328 809 328 781 c 0
 328 753 304 729 276 729 c 0
 248 729 224 753 224 781 c 0
190 200 m 2
 190 183 191 80 198 56 c 1
 332 56 480 68 480 68 c 1
 482 64 l 1
 481 56 480 41 480 31 c 0
 480 21 481 14 482 0 c 1
 480 -3 l 1
 464 -1 441 0 420 0 c 2
 147 0 l 2
 112 0 95 -3 95 -3 c 1
 94 0 l 1
 102 54 104 125 104 200 c 2
 104 445 l 2
 104 520 102 588 94 645 c 1
 96 648 l 1
 96 648 113 645 147 645 c 2
 410 645 l 2
 431 645 454 646 470 648 c 1
 472 645 l 1
 471 631 470 615 470 607 c 0
 470 598 471 589 472 581 c 1
 470 577 l 1
 470 577 332 589 198 589 c 1
 191 565 190 462 190 445 c 2
 190 367 l 1
 308 367 354 372 413 377 c 1
 416 374 l 1
 414 365 413 351 413 342 c 0
 413 333 414 319 416 310 c 1
 413 307 l 1
 344 314 238 317 190 317 c 1
 190 200 l 2
EndSplineSet
Position2: "'cpsp' Versalabstaende 1" dx=5 dy=0 dh=10 dv=0
Colour: ff00ff
EndChar

StartChar: edotaccent
Encoding: 279 279 43
Width: 453
VWidth: 999
Flags: HW
HStem: -10 59<180.536 330.136> 233 40<125 322.997> 399 40<182.373 286.139> 546 102<188.735 271.265>
VStem: 34 88<110.038 233 273 315.973> 179 102<555.735 638.265> 323 89<244.5 350.727>
LayerCount: 2
Fore
SplineSet
179 597 m 0
 179 624 203 648 230 648 c 0
 257 648 281 624 281 597 c 0
 281 570 257 546 230 546 c 0
 203 546 179 570 179 597 c 0
125 273 m 1
 309 273 l 2
 319 273 323 278 323 287 c 0
 323 362 278.5 399 239 399 c 0
 207.5 399 142 377 125 273 c 1
392 104 m 1
 412 79 l 1
 374 27 310 -10 238 -10 c 0
 170.6 -10 113.4 14.7 79 56 c 0
 45.5 96.2 34 152.3 34 209 c 0
 34 356 136 439 239 439 c 0
 371 439 412 334 412 250 c 0
 412 239 405 233 394 233 c 2
 122 233 l 1
 122 174.9 128.4 134.1 146 106 c 0
 173.5 62 220.8 49 255 49 c 0
 310 49 357 66 392 104 c 1
EndSplineSet
Colour: ff00ff
EndChar

StartChar: Eogonek
Encoding: 280 280 44
Width: 538
VWidth: 999
Flags: HW
HStem: -224 39<325.181 408.941> 0 25<394.256 430.88> 0 56<194.662 417.584> 317 50<190 404.78> 589 56<194.662 419.27>
VStem: 104 86<58.188 317 367 587.818> 251 60<-173.091 -74.5789>
LayerCount: 2
Fore
SplineSet
344 -224 m 0
 291 -224 251 -193 251 -139 c 0
 251 -91.5 291 -33.4 351.2 0 c 1
 147 0 l 2
 112 0 95 -3 95 -3 c 1
 94 0 l 1
 102 54 104 125 104 200 c 2
 104 445 l 2
 104 520 102 588 94 645 c 1
 96 648 l 1
 96 648 113 645 147 645 c 2
 410 645 l 2
 431 645 454 646 470 648 c 1
 472 645 l 1
 471 631 470 615 470 607 c 0
 470 598 471 589 472 581 c 1
 470 577 l 1
 470 577 332 589 198 589 c 1
 191 565 190 462 190 445 c 2
 190 367 l 1
 308 367 354 372 413 377 c 1
 416 374 l 1
 414 365 413 351 413 342 c 0
 413 333 414 319 416 310 c 1
 413 307 l 1
 344 314 238 317 190 317 c 1
 190 200 l 2
 190 183 191 80 198 56 c 1
 332 56 480 68 480 68 c 1
 482 64 l 1
 481 56 480 41 480 31 c 0
 480 21 481 14 482 0 c 1
 480 -3 l 1
 468.5 -1.6 453.5 -0.6 438.2 -0.2 c 1
 362.5 -4.9 311 -76.7 311 -126 c 0
 311 -158 333 -185 369 -185 c 0
 399 -185 419 -170 439 -149 c 1
 454 -157 l 1
 430 -204 380 -224 344 -224 c 0
EndSplineSet
Position2: "'cpsp' Versalabstaende 1" dx=5 dy=0 dh=10 dv=0
Substitution2: "'c2sc' Versale nach Kapitaelchen 1" eogonek.sc
Colour: ff80cc
EndChar

StartChar: eogonek
Encoding: 281 281 45
Width: 453
VWidth: 999
Flags: HW
HStem: -193 44<294.832 363.751> -10 59<180.536 330.136> 233 40<125 322.997> 399 40<182.373 286.139>
VStem: 34 88<110.038 233 273 315.973> 223 66<-143.553 -49.2913> 323 89<244.5 350.727>
LayerCount: 2
Fore
SplineSet
125 273 m 1
 309 273 l 2
 319 273 323 278 323 287 c 0
 323 362 278.5 399 239 399 c 0
 207.5 399 142 377 125 273 c 1
392 104 m 1
 412 79 l 1
 401.1 64 388 50.4 373.2 38.4 c 1
 375 37 l 1
 320 -17 289 -53 289 -106 c 0
 289 -127 305 -149 331 -149 c 0
 348 -149 370 -134 384 -119 c 1
 387 -120 l 1
 401 -137 l 1
 374 -170 336 -193 302 -193 c 0
 253 -193 223 -164 223 -117 c 0
 223 -75.6 247.1 -38 279.6 -5.8 c 1
 266.1 -8.5 252.2 -10 238 -10 c 0
 170.6 -10 113.4 14.7 79 56 c 0
 45.5 96.2 34 152.3 34 209 c 0
 34 356 136 439 239 439 c 0
 371 439 412 334 412 250 c 0
 412 239 405 233 394 233 c 2
 122 233 l 1
 122 174.9 128.4 134.1 146 106 c 0
 173.5 62 220.8 49 255 49 c 0
 310 49 357 66 392 104 c 1
EndSplineSet
AlternateSubs2: "'aalt' Alle Alternativen zeigen 1" eogonek.sc
Substitution2: "'smcp' Gemeine nach Kapitaelchen 1" eogonek.sc
Colour: ff00ff
EndChar

StartChar: Ecaron
Encoding: 282 282 46
Width: 538
VWidth: 999
Flags: HW
HStem: 0 56<194.662 417.584> 317 50<190 404.78> 589 56<194.662 419.27> 697 115
VStem: 104 86<58.188 317 367 587.818> 167 244
LayerCount: 2
Fore
SplineSet
268 697 m 1
 238 734 203 764 167 792 c 1
 183 812 l 1
 222 795 256 776 289 751 c 1
 326 777 358 796 396 812 c 1
 411 792 l 1
 373 763 341 731 311 697 c 1
 268 697 l 1
190 200 m 2
 190 183 191 80 198 56 c 1
 332 56 480 68 480 68 c 1
 482 64 l 1
 481 56 480 41 480 31 c 0
 480 21 481 14 482 0 c 1
 480 -3 l 1
 464 -1 441 0 420 0 c 2
 147 0 l 2
 112 0 95 -3 95 -3 c 1
 94 0 l 1
 102 54 104 125 104 200 c 2
 104 445 l 2
 104 520 102 588 94 645 c 1
 96 648 l 1
 96 648 113 645 147 645 c 2
 410 645 l 2
 431 645 454 646 470 648 c 1
 472 645 l 1
 471 631 470 615 470 607 c 0
 470 598 471 589 472 581 c 1
 470 577 l 1
 470 577 332 589 198 589 c 1
 191 565 190 462 190 445 c 2
 190 367 l 1
 308 367 354 372 413 377 c 1
 416 374 l 1
 414 365 413 351 413 342 c 0
 413 333 414 319 416 310 c 1
 413 307 l 1
 344 314 238 317 190 317 c 1
 190 200 l 2
EndSplineSet
Position2: "'cpsp' Versalabstaende 1" dx=5 dy=0 dh=10 dv=0
Substitution2: "'c2sc' Versale nach Kapitaelchen 1" ecaron.sc
Colour: ff00ff
EndChar

StartChar: ecaron
Encoding: 283 283 47
Width: 453
VWidth: 999
Flags: HW
HStem: -10 59<180.536 330.136> 233 40<125 322.997> 399 40<182.373 286.139>
VStem: 34 88<110.038 233 273 315.973> 323 89<244.5 350.727>
LayerCount: 2
Fore
SplineSet
199 501 m 1
 170 548 133 593 98 631 c 1
 118 644 l 1
 157 615 190 590 224 554 c 1
 261 592 295 617 332 644 c 1
 351 631 l 1
 316 592 278 547 249 501 c 1
 199 501 l 1
125 273 m 1
 309 273 l 2
 319 273 323 278 323 287 c 0
 323 362 278.5 399 239 399 c 0
 207.5 399 142 377 125 273 c 1
392 104 m 1
 412 79 l 1
 374 27 310 -10 238 -10 c 0
 170.6 -10 113.4 14.7 79 56 c 0
 45.5 96.2 34 152.3 34 209 c 0
 34 356 136 439 239 439 c 0
 371 439 412 334 412 250 c 0
 412 239 405 233 394 233 c 2
 122 233 l 1
 122 174.9 128.4 134.1 146 106 c 0
 173.5 62 220.8 49 255 49 c 0
 310 49 357 66 392 104 c 1
EndSplineSet
AlternateSubs2: "'aalt' Alle Alternativen zeigen 1" ecaron.sc
Substitution2: "'smcp' Gemeine nach Kapitaelchen 1" ecaron.sc
Colour: ff00ff
EndChar

StartChar: Gcircumflex
Encoding: 284 284 48
Width: 717
VWidth: 999
Flags: HW
HStem: -10 44<296.87 519.78> 614 44<295.445 484.524> 690 115
VStem: 52 103<200.39 438.829> 243 243 546 86<83.5114 304.327>
LayerCount: 2
Fore
SplineSet
385 805 m 1
 415 769 450 738 486 711 c 1
 470 690 l 1
 431 708 397 727 364 752 c 1
 327 725 295 707 257 690 c 1
 243 711 l 1
 280 739 311 771 342 805 c 1
 385 805 l 1
546 117 m 2
 546 192 544 250 536 307 c 1
 538 310 l 1
 538 310 555 307 589 307 c 0
 624 307 641 310 641 310 c 1
 642 307 l 1
 634 254 632 212 632 137 c 2
 632 131 l 2
 632 120 633.3 93.7 642 83 c 1
 642 80 l 1
 574.5 23.4 492.5 -10 376 -10 c 0
 175 -10 52 144 52 317 c 0
 52 537 229 658 401 658 c 0
 523 658 629 608 629 608 c 1
 631 605 l 1
 620.3 567 614.6 540 611 489 c 1
 599 488 l 1
 554 564 477 614 387 614 c 0
 252 614 155 502 155 327 c 0
 155 195 221 34 399 34 c 0
 453 34 512 40 546 72 c 1
 546 117 l 2
EndSplineSet
Position2: "'cpsp' Versalabstaende 1" dx=5 dy=0 dh=10 dv=0
Colour: ff00ff
EndChar

StartChar: gcircumflex
Encoding: 285 285 49
Width: 499
VWidth: 999
Flags: HW
HStem: -237 43<140.309 341.162> -15 62<136.804 254.33> -12 66<174.316 367.191> 136 40<165.212 281.953> 401 38<167.383 278.422>
VStem: 32 69<-158.235 -60.0017> 55 78<208.143 363.302> 62 61<52.8771 126.198> 103 253<516 516> 312 78<209.177 369.538> 400 73<-149.549 -43.25>
LayerCount: 2
Fore
SplineSet
255 645 m 1
 284 598 320 556 356 516 c 1
 335 502 l 1
 296 531 263 556 229 592 c 1
 192 554 160 529 122 502 c 1
 102 516 l 1
 138 556 176 599 205 645 c 1
 255 645 l 1
101 -104 m 0
 101 -172 167 -194 232 -194 c 0
 318 -194 400 -162 400 -101 c 0
 400 -75 390 -46 361 -29 c 0
 333.6 -12.9 303 -12 255 -12 c 0
 241.2 -12 195.5 -15 166 -15 c 1
 131 -34 101 -70.9 101 -104 c 0
390 285 m 0
 390 206.2 328 136 224 136 c 0
 193.9 136 163 143 150 150 c 1
 128 131 123 114 123 94 c 0
 123 51 153 47 181 47 c 0
 186 47 196 48 210 49 c 0
 233 52 273 54 290 54 c 0
 325 54 393.5 53 431 21 c 0
 459 -2.9 473 -33.9 473 -78 c 0
 473 -171.7 380.1 -237 224 -237 c 0
 118 -237 32 -202.7 32 -124 c 0
 32 -105.3 42.5 -77 55 -58 c 1
 80.9 -38 112 -18.7 139.9 -7.3 c 1
 86 2 62 38 62 79 c 0
 62 113 97 142 126 162 c 1
 98 178 55 212 55 287 c 0
 55 386.1 146 439 225 439 c 0
 246.5 439 268.4 436 286.3 430.4 c 1
 360.9 434.3 396.2 444.9 444 449 c 1
 447 446 l 1
 445 437 444 429 444 420 c 0
 444 411 445 403 447 394 c 1
 444 391 l 1
 402.8 395.2 369.7 399 339.6 401.4 c 1
 363 386 390 354 390 285 c 0
312 284 m 0
 312 355 286 401 221 401 c 0
 163 401 133 358 133 292 c 0
 133 223 155 176 227 176 c 0
 287 176 312 223.3 312 284 c 0
EndSplineSet
Colour: ff00ff
EndChar

StartChar: Gbreve
Encoding: 286 286 50
Width: 717
VWidth: 999
Flags: HW
HStem: -10 44<296.87 519.78> 614 44<295.445 484.524> 693 52<292.738 450.488> 786 20<236 268 476.5 508>
VStem: 52 103<200.39 438.829> 236 28<781.047 806> 480 28<780.76 806> 546 86<83.5114 304.327>
LayerCount: 2
Fore
SplineSet
508 806 m 1
 502 735 438 693 372 693 c 0
 299 693 241 736 236 806 c 1
 264 806 l 1
 272 767 319 745 372 745 c 0
 421 745 473 767 480 806 c 1
 508 806 l 1
546 117 m 2
 546 192 544 250 536 307 c 1
 538 310 l 1
 538 310 555 307 589 307 c 0
 624 307 641 310 641 310 c 1
 642 307 l 1
 634 254 632 212 632 137 c 2
 632 131 l 2
 632 120 633.3 93.7 642 83 c 1
 642 80 l 1
 574.5 23.4 492.5 -10 376 -10 c 0
 175 -10 52 144 52 317 c 0
 52 537 229 658 401 658 c 0
 523 658 629 608 629 608 c 1
 631 605 l 1
 620.3 567 614.6 540 611 489 c 1
 599 488 l 1
 554 564 477 614 387 614 c 0
 252 614 155 502 155 327 c 0
 155 195 221 34 399 34 c 0
 453 34 512 40 546 72 c 1
 546 117 l 2
EndSplineSet
Position2: "'cpsp' Versalabstaende 1" dx=5 dy=0 dh=10 dv=0
Substitution2: "'c2sc' Versale nach Kapitaelchen 1" gbreve.sc
Colour: ff00ff
EndChar

StartChar: gbreve
Encoding: 287 287 51
Width: 499
VWidth: 999
Flags: HW
HStem: -237 43<140.309 341.162> -15 62<136.804 254.33> -12 66<174.316 367.191> 136 40<165.212 281.953> 401 38<167.383 278.422> 497 57<155.292 287.981>
VStem: 32 69<-158.235 -60.0017> 55 78<208.143 363.302> 62 61<52.8771 126.198> 85 27<609.641 635.111> 312 78<209.177 369.538> 328 27<608.798 635.111> 400 73<-149.549 -43.25>
LayerCount: 2
Fore
SplineSet
112 644 m 1
 123 591 166 554 220 554 c 0
 272 554 318 586 328 644 c 1
 355 632 l 1
 343 546 279 497 220 497 c 0
 150 497 99 547 85 632 c 1
 112 644 l 1
101 -104 m 0
 101 -172 167 -194 232 -194 c 0
 318 -194 400 -162 400 -101 c 0
 400 -75 390 -46 361 -29 c 0
 333.6 -12.9 303 -12 255 -12 c 0
 241.2 -12 195.5 -15 166 -15 c 1
 131 -34 101 -70.9 101 -104 c 0
390 285 m 0
 390 206.2 328 136 224 136 c 0
 193.9 136 163 143 150 150 c 1
 128 131 123 114 123 94 c 0
 123 51 153 47 181 47 c 0
 186 47 196 48 210 49 c 0
 233 52 273 54 290 54 c 0
 325 54 393.5 53 431 21 c 0
 459 -2.9 473 -33.9 473 -78 c 0
 473 -171.7 380.1 -237 224 -237 c 0
 118 -237 32 -202.7 32 -124 c 0
 32 -105.3 42.5 -77 55 -58 c 1
 80.9 -38 112 -18.7 139.9 -7.3 c 1
 86 2 62 38 62 79 c 0
 62 113 97 142 126 162 c 1
 98 178 55 212 55 287 c 0
 55 386.1 146 439 225 439 c 0
 246.5 439 268.4 436 286.3 430.4 c 1
 360.9 434.3 396.2 444.9 444 449 c 1
 447 446 l 1
 445 437 444 429 444 420 c 0
 444 411 445 403 447 394 c 1
 444 391 l 1
 402.8 395.2 369.7 399 339.6 401.4 c 1
 363 386 390 354 390 285 c 0
312 284 m 0
 312 355 286 401 221 401 c 0
 163 401 133 358 133 292 c 0
 133 223 155 176 227 176 c 0
 287 176 312 223.3 312 284 c 0
EndSplineSet
AlternateSubs2: "'aalt' Alle Alternativen zeigen 1" gbreve.sc
Substitution2: "'smcp' Gemeine nach Kapitaelchen 1" gbreve.sc
Colour: ff00ff
EndChar

StartChar: Gdotaccent
Encoding: 288 288 52
Width: 717
VWidth: 999
Flags: HW
HStem: -10 44<296.87 519.78> 614 44<295.445 484.524> 729 104<334.542 417.458>
VStem: 52 103<200.39 438.829> 324 104<739.542 822.458> 546 86<83.5114 304.327>
LayerCount: 2
Fore
SplineSet
324 781 m 0
 324 809 348 833 376 833 c 0
 404 833 428 809 428 781 c 0
 428 753 404 729 376 729 c 0
 348 729 324 753 324 781 c 0
546 117 m 2
 546 192 544 250 536 307 c 1
 538 310 l 1
 538 310 555 307 589 307 c 0
 624 307 641 310 641 310 c 1
 642 307 l 1
 634 254 632 212 632 137 c 2
 632 131 l 2
 632 120 633.3 93.7 642 83 c 1
 642 80 l 1
 574.5 23.4 492.5 -10 376 -10 c 0
 175 -10 52 144 52 317 c 0
 52 537 229 658 401 658 c 0
 523 658 629 608 629 608 c 1
 631 605 l 1
 620.3 567 614.6 540 611 489 c 1
 599 488 l 1
 554 564 477 614 387 614 c 0
 252 614 155 502 155 327 c 0
 155 195 221 34 399 34 c 0
 453 34 512 40 546 72 c 1
 546 117 l 2
EndSplineSet
Position2: "'cpsp' Versalabstaende 1" dx=5 dy=0 dh=10 dv=0
Colour: ff00ff
EndChar

StartChar: gdotaccent
Encoding: 289 289 53
Width: 499
VWidth: 999
Flags: HW
HStem: -237 43<140.309 341.162> -15 62<136.804 254.33> -12 66<174.316 367.191> 136 40<165.212 281.953> 401 38<167.383 278.422> 546 102<182.735 265.265>
VStem: 32 69<-158.235 -60.0017> 55 78<208.143 363.302> 62 61<52.8771 126.198> 173 102<555.735 638.265> 312 78<209.177 369.538> 400 73<-149.549 -43.25>
LayerCount: 2
Fore
SplineSet
173 597 m 0
 173 624 197 648 224 648 c 0
 251 648 275 624 275 597 c 0
 275 570 251 546 224 546 c 0
 197 546 173 570 173 597 c 0
101 -104 m 0
 101 -172 167 -194 232 -194 c 0
 318 -194 400 -162 400 -101 c 0
 400 -75 390 -46 361 -29 c 0
 333.6 -12.9 303 -12 255 -12 c 0
 241.2 -12 195.5 -15 166 -15 c 1
 131 -34 101 -70.9 101 -104 c 0
390 285 m 0
 390 206.2 328 136 224 136 c 0
 193.9 136 163 143 150 150 c 1
 128 131 123 114 123 94 c 0
 123 51 153 47 181 47 c 0
 186 47 196 48 210 49 c 0
 233 52 273 54 290 54 c 0
 325 54 393.5 53 431 21 c 0
 459 -2.9 473 -33.9 473 -78 c 0
 473 -171.7 380.1 -237 224 -237 c 0
 118 -237 32 -202.7 32 -124 c 0
 32 -105.3 42.5 -77 55 -58 c 1
 80.9 -38 112 -18.7 139.9 -7.3 c 1
 86 2 62 38 62 79 c 0
 62 113 97 142 126 162 c 1
 98 178 55 212 55 287 c 0
 55 386.1 146 439 225 439 c 0
 246.5 439 268.4 436 286.3 430.4 c 1
 360.9 434.3 396.2 444.9 444 449 c 1
 447 446 l 1
 445 437 444 429 444 420 c 0
 444 411 445 403 447 394 c 1
 444 391 l 1
 402.8 395.2 369.7 399 339.6 401.4 c 1
 363 386 390 354 390 285 c 0
312 284 m 0
 312 355 286 401 221 401 c 0
 163 401 133 358 133 292 c 0
 133 223 155 176 227 176 c 0
 287 176 312 223.3 312 284 c 0
EndSplineSet
Colour: ff00ff
EndChar

StartChar: Gcommaaccent
Encoding: 290 290 54
Width: 717
VWidth: 999
Flags: HW
HStem: -247 24<326.315 356.976> -144 82<331.324 396.34> -10 44<296.87 519.78> 614 44<295.445 484.524>
VStem: 52 103<200.39 438.829> 398 39<-198.408 -120.958> 546 86<83.5114 304.327>
LayerCount: 2
Fore
SplineSet
375 -62 m 0
 413 -62 437 -96 437 -148 c 0
 437 -208 388 -238 331 -247 c 1
 325 -241 323 -232 323 -223 c 1
 372 -212 398 -188 398 -170 c 0
 398 -150 385 -146 367 -144 c 1
 350 -141 325 -132 325 -105 c 0
 325 -81 346 -62 375 -62 c 0
546 117 m 2
 546 192 544 250 536 307 c 1
 538 310 l 1
 538 310 555 307 589 307 c 0
 624 307 641 310 641 310 c 1
 642 307 l 1
 634 254 632 212 632 137 c 2
 632 131 l 2
 632 120 633.3 93.7 642 83 c 1
 642 80 l 1
 574.5 23.4 492.5 -10 376 -10 c 0
 175 -10 52 144 52 317 c 0
 52 537 229 658 401 658 c 0
 523 658 629 608 629 608 c 1
 631 605 l 1
 620.3 567 614.6 540 611 489 c 1
 599 488 l 1
 554 564 477 614 387 614 c 0
 252 614 155 502 155 327 c 0
 155 195 221 34 399 34 c 0
 453 34 512 40 546 72 c 1
 546 117 l 2
EndSplineSet
Position2: "'cpsp' Versalabstaende 1" dx=5 dy=0 dh=10 dv=0
Colour: ff00ff
EndChar

StartChar: gcommaaccent
Encoding: 291 291 55
Width: 499
VWidth: 999
Flags: HW
HStem: -237 43<140.309 341.162> -15 62<136.804 254.33> -12 66<174.316 367.191> 136 40<165.212 281.953> 401 38<167.383 278.422> 511 82<200.44 272.661> 673 20<246.927 275.524>
VStem: 32 69<-158.235 -60.0017> 55 78<208.143 363.302> 62 61<52.8771 126.198> 166 34<566 641.371> 312 78<209.177 369.538> 400 73<-149.549 -43.25>
LayerCount: 2
Fore
SplineSet
228 511 m 0
 189 511 166 548 166 584 c 0
 166 608 173 630 189 650 c 0
 205.9 671.1 234 688 272 693 c 1
 276 689 277 680 277 673 c 1
 220 661 200 629 200 606 c 0
 200 586.4 204.8 593 229 593 c 0
 269 593 279 569 279 552 c 0
 279 536 263 511 228 511 c 0
101 -104 m 0
 101 -172 167 -194 232 -194 c 0
 318 -194 400 -162 400 -101 c 0
 400 -75 390 -46 361 -29 c 0
 333.6 -12.9 303 -12 255 -12 c 0
 241.2 -12 195.5 -15 166 -15 c 1
 131 -34 101 -70.9 101 -104 c 0
390 285 m 0
 390 206.2 328 136 224 136 c 0
 193.9 136 163 143 150 150 c 1
 128 131 123 114 123 94 c 0
 123 51 153 47 181 47 c 0
 186 47 196 48 210 49 c 0
 233 52 273 54 290 54 c 0
 325 54 393.5 53 431 21 c 0
 459 -2.9 473 -33.9 473 -78 c 0
 473 -171.7 380.1 -237 224 -237 c 0
 118 -237 32 -202.7 32 -124 c 0
 32 -105.3 42.5 -77 55 -58 c 1
 80.9 -38 112 -18.7 139.9 -7.3 c 1
 86 2 62 38 62 79 c 0
 62 113 97 142 126 162 c 1
 98 178 55 212 55 287 c 0
 55 386.1 146 439 225 439 c 0
 246.5 439 268.4 436 286.3 430.4 c 1
 360.9 434.3 396.2 444.9 444 449 c 1
 447 446 l 1
 445 437 444 429 444 420 c 0
 444 411 445 403 447 394 c 1
 444 391 l 1
 402.8 395.2 369.7 399 339.6 401.4 c 1
 363 386 390 354 390 285 c 0
312 284 m 0
 312 355 286 401 221 401 c 0
 163 401 133 358 133 292 c 0
 133 223 155 176 227 176 c 0
 287 176 312 223.3 312 284 c 0
EndSplineSet
Colour: ff00ff
EndChar

StartChar: Hcircumflex
Encoding: 292 292 56
Width: 726
VWidth: 999
Flags: HW
HStem: -3 21<94 101 192 200 526 533 624 632> 321 44<190 536> 628 20<94 102 193 200 526 534 625 632> 688 115
VStem: 104 86<2.67992 321 365 642.32> 226 243 536 86<2.67992 321 365 642.32>
LayerCount: 2
Fore
SplineSet
536 445 m 2
 536 520 534 588 526 645 c 1
 528 648 l 1
 540 646 567 645 579 645 c 0
 591 645 619 646 631 648 c 1
 632 645 l 1
 624 592 622 520 622 445 c 2
 622 200 l 2
 622 125 624 57 632 0 c 1
 630 -3 l 1
 618 -1 591 0 579 0 c 0
 567 0 539 -1 527 -3 c 1
 526 0 l 1
 534 54 536 125 536 200 c 2
 536 321 l 1
 190 321 l 1
 190 200 l 2
 190 125 192 57 200 0 c 1
 198 -3 l 1
 186 -1 159 0 147 0 c 0
 135 0 107 -1 95 -3 c 1
 94 0 l 1
 102 54 104 125 104 200 c 2
 104 445 l 2
 104 520 102 588 94 645 c 1
 96 648 l 1
 108 646 135 645 147 645 c 0
 159 645 187 646 199 648 c 1
 200 645 l 1
 192 592 190 520 190 445 c 2
 190 365 l 1
 536 365 l 1
 536 445 l 2
368 803 m 1
 398 767 433 736 469 709 c 1
 453 688 l 1
 414 706 380 725 347 750 c 1
 310 723 278 705 240 688 c 1
 226 709 l 1
 263 737 294 769 325 803 c 1
 368 803 l 1
EndSplineSet
Position2: "'cpsp' Versalabstaende 1" dx=5 dy=0 dh=10 dv=0
Colour: ff00ff
EndChar

StartChar: hcircumflex
Encoding: 293 293 57
Width: 549
VWidth: 999
Flags: HW
HStem: -3 21<81 89 171 179 378 386 468 476> 379 60<258.668 370.026> 678 20<157.465 173.167> 717 115
VStem: 90 80<2.67606 320.103 352 672.976> 144 243 387 80<2.67606 363.729>
LayerCount: 2
Fore
SplineSet
286 832 m 1
 316 796 351 765 387 738 c 1
 371 717 l 1
 332 735 298 754 265 779 c 1
 228 752 196 734 158 717 c 1
 144 738 l 1
 181 766 212 798 243 832 c 1
 286 832 l 1
170 352 m 1
 172 349 l 1
 236 424 307 439 345 439 c 0
 435 439 469 385 469 281 c 0
 469 249 467 212 467 180 c 0
 467 104 468 57.2 476 0 c 1
 474 -3 l 1
 462 -1 439 0 427 0 c 0
 415 0 392 -1 380 -3 c 1
 378 0 l 1
 386 53.8 387 105 387 180 c 2
 387 278 l 2
 387 359 366 379 315 379 c 0
 279.5 379 221 357 170 297 c 1
 170 180 l 2
 170 104 171.5 57.2 179 0 c 1
 177 -3 l 1
 165 -1 142 0 130 0 c 0
 118 0 95 -1 83 -3 c 1
 81 0 l 1
 88.8 56 90 105.5 90 180 c 2
 90 481 l 2
 90 557 88.7 632.3 81 675 c 1
 83 678 l 1
 123.5 681 144.9 688 170 698 c 1
 176.3 698 179 695 179 688 c 0
 174.2 626.5 170 575 170 501 c 2
 170 352 l 1
EndSplineSet
Colour: ff00ff
EndChar

StartChar: Hbar
Encoding: 294 294 58
Width: 726
VWidth: 999
Flags: HW
HStem: -3 21<94 101 192 200 526 533 624 632> 321 44<190 536> 512 34<41 677> 628 20<94 102 193 200 526 534 625 632>
VStem: 104 86<2.67992 321 365 642.32> 536 86<2.67992 321 365 642.32>
LayerCount: 2
Fore
SplineSet
191.7 546 m 1
 534.2 546 l 1
 532.7 581.7 530.2 614.9 526 645 c 1
 528 648 l 1
 540 646 567 645 579 645 c 0
 591 645 619 646 631 648 c 1
 632 645 l 1
 627.7 616.6 625.2 582.8 623.7 546 c 1
 677 546 l 1
 677 512 l 1
 622.7 512 l 1
 622.2 490.2 622 467.8 622 445 c 2
 622 200 l 2
 622 125 624 57 632 0 c 1
 630 -3 l 1
 618 -1 591 0 579 0 c 0
 567 0 539 -1 527 -3 c 1
 526 0 l 1
 534 54 536 125 536 200 c 2
 536 321 l 1
 190 321 l 1
 190 200 l 2
 190 125 192 57 200 0 c 1
 198 -3 l 1
 186 -1 159 0 147 0 c 0
 135 0 107 -1 95 -3 c 1
 94 0 l 1
 102 54 104 125 104 200 c 2
 104 445 l 2
 104 468 103.8 490.4 103.3 512 c 1
 41 512 l 1
 41 546 l 1
 102.2 546 l 1
 100.7 581.7 98.2 614.9 94 645 c 1
 96 648 l 1
 108 646 135 645 147 645 c 0
 159 645 187 646 199 648 c 1
 200 645 l 1
 195.7 616.6 193.2 582.8 191.7 546 c 1
190.7 512 m 1
 190.2 490.2 190 467.8 190 445 c 2
 190 365 l 1
 536 365 l 1
 536 445 l 2
 536 468 535.8 490.4 535.3 512 c 1
 190.7 512 l 1
EndSplineSet
Position2: "'cpsp' Versalabstaende 1" dx=5 dy=0 dh=10 dv=0
Colour: ff80cc
EndChar

StartChar: hbar
Encoding: 295 295 59
Width: 549
VWidth: 999
Flags: HW
HStem: -3 21<81 89 171 179 378 386 468 476> 379 60<258.668 370.026> 530 39<26 341> 678 20<157.465 173.167>
VStem: 90 80<2.67606 320.103 352 672.976> 387 80<2.67606 363.729>
LayerCount: 2
Fore
SplineSet
170 352 m 1
 172 349 l 1
 236 424 307 439 345 439 c 0
 435 439 469 385 469 281 c 0
 469 249 467 212 467 180 c 0
 467 104 468 57.2 476 0 c 1
 474 -3 l 1
 462 -1 439 0 427 0 c 0
 415 0 392 -1 380 -3 c 1
 378 0 l 1
 386 53.8 387 105 387 180 c 2
 387 278 l 2
 387 359 366 379 315 379 c 0
 279.5 379 221 357 170 297 c 1
 170 180 l 2
 170 104 171.5 57.2 179 0 c 1
 177 -3 l 1
 165 -1 142 0 130 0 c 0
 118 0 95 -1 83 -3 c 1
 81 0 l 1
 88.8 56 90 105.5 90 180 c 2
 90 481 l 2
 90 497.5 90 513.9 89.8 530 c 1
 26 530 l 1
 26 569 l 1
 89.1 569 l 1
 88 611.5 85.6 649.2 81 675 c 1
 83 678 l 1
 123.5 681 144.9 688 170 698 c 1
 176.3 698 179 695 179 688 c 0
 175.8 647.1 172.9 610.6 171.3 569 c 1
 341 569 l 1
 341 530 l 1
 170.2 530 l 1
 170.1 520.7 170 511.1 170 501 c 2
 170 352 l 1
EndSplineSet
Colour: ff80cc
EndChar

StartChar: Itilde
Encoding: 296 296 60
Width: 294
VWidth: 999
Flags: HW
HStem: -3 21<94 102 192 200> 628 20<94 102 192 200> 697 44<162 249> 745 46<44 135> 784 10
VStem: 104 86<2.67992 642.32>
LayerCount: 2
Fore
SplineSet
213 741 m 0
 235 741 249 751 263 793 c 1
 287 787 l 1
 275 727 246 697 200 697 c 0
 178 697 157 709 136 723 c 0
 118 734 99 745 82 745 c 0
 56 745 43 730 33 697 c 1
 9 702 l 1
 23 761 46 791 89 791 c 0
 119 791 141 777 161 763 c 0
 177 751 194 741 213 741 c 0
104 445 m 2
 104 520 102 588 94 645 c 1
 96 648 l 1
 108 646 135 645 147 645 c 0
 159 645 186 646 198 648 c 1
 200 645 l 1
 192 592 190 520 190 445 c 2
 190 200 l 2
 190 125 192 57 200 0 c 1
 198 -3 l 1
 186 -1 159 0 147 0 c 0
 135 0 108 -1 96 -3 c 1
 94 0 l 1
 102 54 104 125 104 200 c 2
 104 445 l 2
EndSplineSet
Position2: "'cpsp' Versalabstaende 1" dx=5 dy=0 dh=10 dv=0
Colour: ff00ff
EndChar

StartChar: itilde
Encoding: 297 297 61
Width: 260
VWidth: 999
Flags: HW
HStem: -3 21<81 89 171 179> 413 20<158.667 173.917> 526 44<149.2 227.5> 574 46<43 124.9> 613 10
VStem: 90 80<2.65714 420.159>
LayerCount: 2
Fore
SplineSet
195.1 570 m 0
 214.9 570 227.5 580 240.1 622 c 1
 261.7 616 l 1
 250.9 556 224.8 526 183.4 526 c 0
 163.6 526 144.7 538 125.8 552 c 0
 109.6 563 92.5 574 77.2 574 c 0
 53.8 574 42.1 559 33.1 526 c 1
 11.5 531 l 1
 24.1 590 44.8 620 83.5 620 c 0
 110.5 620 130.3 606 148.3 592 c 0
 162.7 580 178 570 195.1 570 c 0
90 235 m 2
 90 310 87.3 386.2 81 429 c 1
 83 432 l 1
 104.2 430.3 147.3 430.7 170 433 c 0
 177.8 433 179 432 179 423 c 0
 172.5 362 170 326 170 251 c 2
 170 180 l 2
 170 104 171.8 56.8 179 0 c 1
 177 -3 l 1
 165 -1 142 0 130 0 c 0
 118 0 95 -1 83 -3 c 1
 81 0 l 1
 88.2 54 90 105 90 180 c 2
 90 235 l 2
EndSplineSet
Colour: ff00ff
EndChar

StartChar: Imacron
Encoding: 298 298 62
Width: 294
VWidth: 999
Flags: HW
HStem: -3 21<94 102 192 200> 628 20<94 102 192 200> 733 44<9.088 287.515>
VStem: 8 281<733.205 777> 104 86<2.67992 642.32>
LayerCount: 2
Fore
SplineSet
265 733 m 2
 21 733 l 2
 12 733 8 741 8 748 c 0
 8 760 19 777 30 777 c 2
 275 777 l 2
 285 777 289 769 289 763 c 0
 289 751 278 733 265 733 c 2
104 445 m 2
 104 520 102 588 94 645 c 1
 96 648 l 1
 108 646 135 645 147 645 c 0
 159 645 186 646 198 648 c 1
 200 645 l 1
 192 592 190 520 190 445 c 2
 190 200 l 2
 190 125 192 57 200 0 c 1
 198 -3 l 1
 186 -1 159 0 147 0 c 0
 135 0 108 -1 96 -3 c 1
 94 0 l 1
 102 54 104 125 104 200 c 2
 104 445 l 2
EndSplineSet
Position2: "'cpsp' Versalabstaende 1" dx=5 dy=0 dh=10 dv=0
Colour: ff00ff
EndChar

StartChar: imacron
Encoding: 299 299 63
Width: 260
VWidth: 999
Flags: HW
HStem: -3 21<81 89 171 179> 413 20<158.667 173.917> 538 44<9.5792 260.164>
VStem: 8.6 252.9<538.205 582> 90 80<2.65714 420.159>
LayerCount: 2
Fore
SplineSet
239.9 538 m 2
 20.3 538 l 2
 12.2 538 8.6 546 8.6 553 c 0
 8.6 565 18.5 582 28.4 582 c 2
 248.9 582 l 2
 257.9 582 261.5 574 261.5 568 c 0
 261.5 556 251.6 538 239.9 538 c 2
90 235 m 2
 90 310 87.3 386.2 81 429 c 1
 83 432 l 1
 104.2 430.3 147.3 430.7 170 433 c 0
 177.8 433 179 432 179 423 c 0
 172.5 362 170 326 170 251 c 2
 170 180 l 2
 170 104 171.8 56.8 179 0 c 1
 177 -3 l 1
 165 -1 142 0 130 0 c 0
 118 0 95 -1 83 -3 c 1
 81 0 l 1
 88.2 54 90 105 90 180 c 2
 90 235 l 2
EndSplineSet
Colour: ff00ff
EndChar

StartChar: Ibreve
Encoding: 300 300 64
Width: 294
VWidth: 999
Flags: HW
HStem: -3 21<94 102 192 200> 628 20<94 102 192 200> 692 52<69.738 227.488> 785 20<13 45 253.5 285>
VStem: 13 28<780.047 805> 104 86<2.67992 642.32> 257 28<779.76 805>
LayerCount: 2
Fore
SplineSet
285 805 m 1
 279 734 215 692 149 692 c 0
 76 692 18 735 13 805 c 1
 41 805 l 1
 49 766 96 744 149 744 c 0
 198 744 250 766 257 805 c 1
 285 805 l 1
104 445 m 2
 104 520 102 588 94 645 c 1
 96 648 l 1
 108 646 135 645 147 645 c 0
 159 645 186 646 198 648 c 1
 200 645 l 1
 192 592 190 520 190 445 c 2
 190 200 l 2
 190 125 192 57 200 0 c 1
 198 -3 l 1
 186 -1 159 0 147 0 c 0
 135 0 108 -1 96 -3 c 1
 94 0 l 1
 102 54 104 125 104 200 c 2
 104 445 l 2
EndSplineSet
Position2: "'cpsp' Versalabstaende 1" dx=5 dy=0 dh=10 dv=0
Colour: ff00ff
EndChar

StartChar: ibreve
Encoding: 301 301 65
Width: 260
VWidth: 999
Flags: HW
HStem: -3 21<81 89 171 179> 413 20<158.667 173.917> 503 57<78.1628 197.583>
VStem: 14.9 24.3<615.641 641.111> 90 80<2.65714 420.159> 233.6 24.3<614.798 641.111>
LayerCount: 2
Fore
SplineSet
39.2 650 m 1
 49.1 597 87.8 560 136.4 560 c 0
 183.2 560 224.6 592 233.6 650 c 1
 257.9 638 l 1
 247.1 552 189.5 503 136.4 503 c 0
 73.4 503 27.5 553 14.9 638 c 1
 39.2 650 l 1
90 235 m 2
 90 310 87.3 386.2 81 429 c 1
 83 432 l 1
 104.2 430.3 147.3 430.7 170 433 c 0
 177.8 433 179 432 179 423 c 0
 172.5 362 170 326 170 251 c 2
 170 180 l 2
 170 104 171.8 56.8 179 0 c 1
 177 -3 l 1
 165 -1 142 0 130 0 c 0
 118 0 95 -1 83 -3 c 1
 81 0 l 1
 88.2 54 90 105 90 180 c 2
 90 235 l 2
EndSplineSet
Colour: ff00ff
EndChar

StartChar: Iogonek
Encoding: 302 302 66
Width: 294
VWidth: 999
Flags: HW
HStem: -225 39<73.1814 157.134> -3 21<94 102 192 200> -1 25<142.256 178.88> 628 20<94 102 192 200>
VStem: -1 60<-174.091 -75.5789> 104 86<2.67992 642.32>
LayerCount: 2
Fore
SplineSet
92 -225 m 0
 39 -225 -1 -194 -1 -140 c 0
 -1 -93.4 37.6 -36.5 95.9 -2.9 c 1
 94 0 l 1
 102 54 104 125 104 200 c 2
 104 445 l 2
 104 520 102 588 94 645 c 1
 96 648 l 1
 108 646 135 645 147 645 c 0
 159 645 186 646 198 648 c 1
 200 645 l 1
 192 592 190 520 190 445 c 2
 190 200 l 2
 190 125 192 57 200 0 c 1
 198 -3 l 1
 194.3 -2.4 189.2 -1.8 183.5 -1.4 c 0
 109.2 -7.6 59 -78.3 59 -127 c 0
 59 -159 81 -186 117 -186 c 0
 147 -186 168 -171 187 -150 c 1
 202 -158 l 1
 178 -205 128 -225 92 -225 c 0
EndSplineSet
Position2: "'cpsp' Versalabstaende 1" dx=5 dy=0 dh=10 dv=0
Colour: ff80cc
EndChar

StartChar: iogonek
Encoding: 303 303 67
Width: 260
VWidth: 999
Flags: HW
HStem: -225 39<52.2133 135.045> -3 21<81 89 171 179> -1 25<119.395 156.6> 413 20<158.667 173.917> 546 102<89.735 172.265>
VStem: -23 60<-174.091 -75.5789> 80 102<555.735 638.265> 90 80<2.65714 420.159>
LayerCount: 2
Fore
SplineSet
70 -225 m 0
 16 -225 -23 -194 -23 -140 c 0
 -23 -91.4 18.4 -31.5 81.2 1.4 c 1
 88.2 54.9 90 105.6 90 180 c 2
 90 235 l 2
 90 310 87.3 386.2 81 429 c 1
 83 432 l 1
 104.2 430.3 147.3 430.7 170 433 c 0
 177.8 433 179 432 179 423 c 0
 172.5 362 170 326 170 251 c 2
 170 180 l 2
 170 104 171.8 56.8 179 0 c 1
 177 -3 l 1
 173 -2.3 167.7 -1.7 162 -1.3 c 0
 87 -6.7 37 -77.9 37 -127 c 0
 37 -159 59 -186 95 -186 c 0
 124 -186 145 -171 164 -150 c 1
 180 -158 l 1
 156 -205 105 -225 70 -225 c 0
80 597 m 0
 80 624 104 648 131 648 c 0
 158 648 182 624 182 597 c 0
 182 570 158 546 131 546 c 0
 104 546 80 570 80 597 c 0
EndSplineSet
Colour: ff80cc
EndChar

StartChar: Idotaccent
Encoding: 304 304 68
Width: 294
VWidth: 999
Flags: HW
HStem: -3 21<94 102 192 200> 628 20<94 102 192 200> 729 104<107.542 190.458>
VStem: 97 104<739.542 822.458> 104 86<2.67992 642.32>
LayerCount: 2
Fore
SplineSet
97 781 m 0
 97 809 121 833 149 833 c 0
 177 833 201 809 201 781 c 0
 201 753 177 729 149 729 c 0
 121 729 97 753 97 781 c 0
104 445 m 2
 104 520 102 588 94 645 c 1
 96 648 l 1
 108 646 135 645 147 645 c 0
 159 645 186 646 198 648 c 1
 200 645 l 1
 192 592 190 520 190 445 c 2
 190 200 l 2
 190 125 192 57 200 0 c 1
 198 -3 l 1
 186 -1 159 0 147 0 c 0
 135 0 108 -1 96 -3 c 1
 94 0 l 1
 102 54 104 125 104 200 c 2
 104 445 l 2
EndSplineSet
Substitution2: "'c2sc' Versale nach Kapitaelchen 1" idotaccent.sc
Position2: "'cpsp' Versalabstaende 1" dx=5 dy=0 dh=10 dv=0
Colour: ff00ff
EndChar

StartChar: afii10057
Encoding: 1032 1032 69
Width: 385
VWidth: 999
Flags: HW
HStem: -10 60<57.8935 169.935> 628 20G<200 253 253 306>
VStem: 210 86<132.814 642.32>
AnchorPoint: "top_akzent" 252 806 basechar 0
AnchorPoint: "top_punkt" 251 723 basechar 0
LayerCount: 2
Fore
SplineSet
210 258 m 2
 210 445 l 2
 210 520 208 588 200 645 c 1
 202 648 l 1
 202 648 219 645 253 645 c 0
 288 645 305 648 305 648 c 1
 306 645 l 1
 298 592 296 520 296 445 c 2
 296 280 l 2
 296 165.5 286 135 233 66 c 0
 192 12 138 -10 75 -10 c 0
 56 -10 38 -6 30 -1 c 1
 29 2 l 1
 40 21 50 57 57 84 c 1
 68 85 l 1
 79 65 97 50 126 50 c 0
 205 50 210 170 210 258 c 2
EndSplineSet
EndChar

StartChar: afii10061
Encoding: 1036 1036 70
Width: 632
VWidth: 999
Flags: HW
HStem: -4 21<443 478.5 586.5 596> -3 21<94 102 192 200> 312 45<187 249.712> 569 89<450.534 559.69> 628 20<94 102 192 200> 698 122
VStem: 104 86<2.67992 642.32> 288 201
LayerCount: 2
Fore
SplineSet
427 820 m 1
 455.6 806.7 476.3 789.3 489 768 c 1
 345 710 l 2
 324 701 312 698 303 698 c 0
 294 698 288 705 288 713 c 0
 288 720 290 725 303 734 c 2
 427 820 l 1
104 445 m 2
 104 520 102 588 94 645 c 1
 96 648 l 1
 108 646 135 645 147 645 c 0
 159 645 186 646 198 648 c 1
 200 645 l 1
 192 592 190 520 190 445 c 2
 190 357 l 1
 281.1 358.8 285.7 443 347 531 c 0
 390.3 593.1 449 658 527 658 c 0
 554 658 558 655 584 648 c 1
 589 642 l 1
 560 551 l 1
 548 548 l 1
 528 562 511 569 483 569 c 0
 460 569 424 550 388 502 c 0
 343.6 442.8 328 360 285 340 c 1
 285 337 l 1
 357 325 377 297 429 237 c 0
 514 140 512 89 596 0 c 1
 593 -4 l 1
 580 -2 541 0 516 0 c 0
 490 0 490 -2 467 -4 c 1
 419 73 399 117 371 169 c 0
 329.4 246.3 299.5 304 190 311.8 c 1
 190 200 l 2
 190 125 192 57 200 0 c 1
 198 -3 l 1
 186 -1 159 0 147 0 c 0
 135 0 108 -1 96 -3 c 1
 94 0 l 1
 102 54 104 125 104 200 c 2
 104 445 l 2
EndSplineSet
LCarets2: 1 0 
Colour: ff00ff
EndChar

StartChar: uni040D
Encoding: 1037 1037 71
Width: 728
VWidth: 999
Flags: HW
HStem: -3 21<94 102 192 200 528 536 626 634> 0 21<159.81 211.762> 625.2 20<516.891 570.882> 628 20<94 102 192 200 528 536 626 634> 698 120
VStem: 104 86<2.67992 642.32> 223 212 538 86<2.67992 642.32>
DStem2: 159.81 18.0518 200 0 0.50693 0.861987<4.81334 727.544>
LayerCount: 2
Fore
SplineSet
104 445 m 2
 104 520 102 588 94 645 c 1
 96 648 l 1
 108 646 135 645 147 645 c 0
 159 645 186 646 198 648 c 1
 200 645 l 1
 192 592 190 520 190 445 c 2
 190 200 l 2
 190 155.4 190.7 113.2 193 74.4 c 1
 528.1 644.2 l 2
 528.1 644.5 528 644.7 528 645 c 2
 530 648 l 1
 542 646 569 645 581 645 c 0
 593 645 620 646 632 648 c 1
 634 645 l 1
 626 592 624 520 624 445 c 2
 624 200 l 2
 624 125 626 57 634 0 c 1
 632 -3 l 1
 620 -1 593 0 581 0 c 0
 569 0 542 -1 530 -3 c 1
 528 0 l 1
 536 54 538 125 538 200 c 2
 538 445 l 2
 538 489.3 537.3 531.2 535.1 569.8 c 1
 200 0 l 1
 198 -3 l 1
 186 -1 159 0 147 0 c 0
 135 0 108 -1 96 -3 c 1
 94 0 l 1
 102 54 104 125 104 200 c 2
 104 445 l 2
299 818 m 1
 420 734 l 2
 431 726 435 720 435 713 c 0
 435 705 428 698 420 698 c 0
 412 698 398 701 377 710 c 2
 223 773 l 1
 241.3 790.7 264.8 806.4 299 818 c 1
EndSplineSet
LCarets2: 1 0 
Colour: ff00ff
EndChar

StartChar: afii10062
Encoding: 1038 1038 72
Width: 580
VWidth: 999
Flags: HW
HStem: -22 69<145.475 228.079> 628 20<54.5 65.8588 152.5 165.28 462.421 482 552.006 555> 697 31<264.585 355.415>
VStem: 185 69<734.873 803.004> 366 69<736.589 803.004>
DStem2: 278.595 138.281 342 161 0.410131 0.912027<-105.377 13.9627 113.393 328.053>
LayerCount: 2
Fore
SplineSet
310 728 m 0
 343 728 366 745 366 762 c 0
 366 767 365 773 365 775 c 0
 365 790 375 805 398 805 c 0
 425 805 435 791 435 772 c 0
 435 720 376 697 310 697 c 0
 244 697 185 720 185 772 c 0
 185 791 195 805 222 805 c 0
 245 805 255 790 255 775 c 0
 255 773 254 767 254 762 c 0
 254 745 277 728 310 728 c 0
120.7 115.1 m 1
 126.3 85 152.7 47 195 47 c 0
 237.7 47 253.9 81.1 278.6 138.3 c 1
 192.3 339.9 85.7 567.8 46 648 c 1
 63 645 89 645 106 645 c 0
 123 645 144 645 161 648 c 1
 169.6 618 224.1 470.1 323.2 242.5 c 1
 384.4 386.9 448.8 546.4 476 648 c 1
 488 645 515 645 526 645 c 0
 537 645 549 645 561 648 c 1
 342 161 l 2
 293.9 54.1 244 -22 154 -22 c 0
 110 -22 59.1 -3.2 39.8 20 c 1
 39.8 24.2 l 1
 60.9 44.2 87.5 86.3 106.8 118 c 1
 120.7 115.1 l 1
EndSplineSet
LCarets2: 1 0 
Colour: ff00ff
EndChar

StartChar: afii10020
Encoding: 1043 1043 73
Width: 481
VWidth: 999
Flags: HW
HStem: -3 21<88 142 142 195> 591 54<189.662 412.584>
VStem: 99 86<2.67992 589.791>
LayerCount: 2
Fore
SplineSet
185 445 m 2
 185 200 l 2
 185 125 187 53 195 0 c 1
 194 -3 l 1
 194 -3 177 0 142 0 c 0
 108 0 90 -3 90 -3 c 1
 88 0 l 1
 96 57 99 125 99 200 c 2
 99 445 l 2
 99 520 97 591 89 645 c 1
 90 648 l 1
 90 648 108 645 142 645 c 2
 415 645 l 2
 436 645 459 646 475 648 c 1
 477 645 l 1
 476 631 475 626 475 616 c 0
 475 606 476 591 477 583 c 1
 475 579 l 1
 475 579 327 591 193 591 c 1
 186 567 185 462 185 445 c 2
EndSplineSet
Colour: ff00ff
EndChar

StartChar: afii10021
Encoding: 1044 1044 74
Width: 708
VWidth: 999
Flags: HW
HStem: 0 44<192.009 452.856> 601 44<276.411 452.674>
VStem: 39 36<-138 -59.5127> 461 86<60.1801 586.818> 570 36<-138 -59.5127>
LayerCount: 2
Fore
SplineSet
425 44 m 2
 443 44 450 50 453 59 c 0
 460 83 461 183 461 200 c 2
 461 445 l 2
 461 462 460 564 453 588 c 1
 446 597 442 601 427 601 c 2
 313 601 l 2
 286 601 276 591 274 566 c 0
 266 465 251 361 239 293 c 0
 217 176 192 77 192 56 c 0
 192 44 205 44 219 44 c 2
 425 44 l 2
178 0 m 2
 98 0 86 -65 75 -138 c 1
 73 -141 l 1
 41 -141 l 1
 39 -138 l 1
 27 11 l 2
 27 21 32 29 57 32 c 0
 77.1 34.4 98 32 112 47 c 0
 138 73 156 145 188 301 c 1
 210 415 222 518 222 581 c 0
 222 603 219 625 216 645 c 1
 217 648 l 1
 217 648 244 645 278 645 c 2
 504 645 l 2
 538 645 556 648 556 648 c 1
 557 645 l 1
 549 591 547 520 547 445 c 2
 547 200 l 2
 547 90 554 35 588 32 c 0
 613 30 618 21 618 11 c 2
 606 -138 l 1
 604 -141 l 1
 572 -141 l 1
 570 -138 l 1
 559 -65 547 0 467 0 c 2
 178 0 l 2
EndSplineSet
EndChar

StartChar: afii10024
Encoding: 1046 1046 75
Width: 924
VWidth: 999
Flags: HW
HStem: -4 21G<35 44.5 147 181 743 777 879.5 889> -3 21<407 415 505 513> 312 45<364.57 424 500 559.43> 569 89<70.0289 172.306 751.694 853.971> 628 20<407 415 505 513>
VStem: 417 86<2.67992 642.32>
LayerCount: 2
Fore
SplineSet
249 169 m 0
 223 117 204 73 158 -4 c 1
 136 -2 136 0 111 0 c 0
 88 0 51 -2 38 -4 c 1
 35 0 l 1
 115 89 113 140 194 237 c 0
 244 297 262 325 331 337 c 1
 331 340 l 1
 290 360 275 443 233 502 c 0
 199 550 165 569 143 569 c 0
 116 569 100 562 81 548 c 1
 70 551 l 1
 42 642 l 1
 47 648 l 1
 72 655 75 658 101 658 c 0
 175 658 231 593 272 531 c 0
 329.4 444.4 334.7 361.6 417 357.2 c 1
 417 445 l 2
 417 520 415 588 407 645 c 1
 409 648 l 1
 421 646 448 645 460 645 c 0
 472 645 499 646 511 648 c 1
 513 645 l 1
 505 592 503 520 503 445 c 2
 503 357 l 1
 589.1 358.9 593.7 443 652 531 c 0
 693 593 749 658 823 658 c 0
 849 658 852 655 877 648 c 1
 882 642 l 1
 854 551 l 1
 843 548 l 1
 824 562 808 569 781 569 c 0
 759 569 725 550 691 502 c 0
 649 443 634 360 593 340 c 1
 593 337 l 1
 662 325 680 297 730 237 c 0
 811 140 809 89 889 0 c 1
 886 -4 l 1
 873 -2 836 0 813 0 c 0
 788 0 788 -2 766 -4 c 1
 720 73 701 117 675 169 c 0
 635.4 246.3 606.6 303.9 503 311.8 c 1
 503 200 l 2
 503 125 505 57 513 0 c 1
 511 -3 l 1
 499 -1 472 0 460 0 c 0
 448 0 421 -1 409 -3 c 1
 407 0 l 1
 415 54 417 125 417 200 c 2
 417 311.5 l 1
 316.7 302.4 288.1 245.3 249 169 c 0
EndSplineSet
Colour: ff80cc
EndChar

StartChar: afii10025
Encoding: 1047 1047 76
Width: 542
VWidth: 999
Flags: HW
HStem: -12 37<172.536 324.196> 336 37<158.005 306.843> 469 21G<49 91> 624 34<165.85 309.892>
VStem: 49 30<470.533 513.383> 375 80<432.684 569.184> 405 92<100.605 254.446>
LayerCount: 2
Fore
SplineSet
248 25 m 0
 318 25 405 68 405 176 c 0
 405 227 366 336 249 336 c 2
 176 336 l 2
 165 336 158 343 158 354 c 0
 158 365 165 373 176 373 c 2
 223 373 l 2
 342 373 375 451 375 506 c 0
 375 573 311 624 249 624 c 0
 126 624 103 550 79 469 c 1
 49 471 l 1
 69 646 l 1
 156 646 191 658 251 658 c 0
 344 658 455 611 455 516 c 0
 455 437 412 387 340 360 c 1
 411 340 497 299 497 192 c 0
 497 41 363 -12 245 -12 c 0
 164 -12 115 19 84 43 c 0
 57 64 36 91 36 118 c 0
 36 144 47 165 70 165 c 0
 98 165 108 152 119 120 c 0
 140 59 172 25 248 25 c 0
EndSplineSet
EndChar

StartChar: afii10026
Encoding: 1048 1048 77
Width: 728
VWidth: 999
Flags: HW
HStem: -3 21<94 102 192 200 528 536 626 634> 0 21G<159.81 211.762> 625.2 20G<516.891 570.882> 628 20<94 102 192 200 528 536 626 634>
VStem: 104 86<2.67992 642.32> 538 86<2.67992 642.32>
DStem2: 159.81 18.0518 200 0 0.50693 0.861987<4.81334 727.544>
LayerCount: 2
Fore
SplineSet
104 445 m 2
 104 520 102 588 94 645 c 1
 96 648 l 1
 108 646 135 645 147 645 c 0
 159 645 186 646 198 648 c 1
 200 645 l 1
 192 592 190 520 190 445 c 2
 190 200 l 2
 190 155.4 190.7 113.2 193 74.4 c 1
 528.1 644.2 l 2
 528.1 644.5 528 644.7 528 645 c 2
 530 648 l 1
 542 646 569 645 581 645 c 0
 593 645 620 646 632 648 c 1
 634 645 l 1
 626 592 624 520 624 445 c 2
 624 200 l 2
 624 125 626 57 634 0 c 1
 632 -3 l 1
 620 -1 593 0 581 0 c 0
 569 0 542 -1 530 -3 c 1
 528 0 l 1
 536 54 538 125 538 200 c 2
 538 445 l 2
 538 489.3 537.3 531.2 535.1 569.8 c 1
 200 0 l 1
 198 -3 l 1
 186 -1 159 0 147 0 c 0
 135 0 108 -1 96 -3 c 1
 94 0 l 1
 102 54 104 125 104 200 c 2
 104 445 l 2
EndSplineSet
EndChar

StartChar: afii10027
Encoding: 1049 1049 78
Width: 728
VWidth: 999
Flags: HW
HStem: -3 21<94 102 192 200 528 536 626 634> 0 21<159.81 211.762> 625.2 20<516.891 570.882> 628 20<94 102 192 200 528 536 626 634> 697 31<304.585 395.415>
VStem: 104 86<2.67992 642.32> 225 69<734.873 803.004> 406 69<736.589 803.004> 538 86<2.67992 642.32>
DStem2: 159.81 18.0518 200 0 0.50693 0.861987<4.81334 727.544>
LayerCount: 2
Fore
SplineSet
350 728 m 0
 383 728 406 745 406 762 c 0
 406 767 405 773 405 775 c 0
 405 790 415 805 438 805 c 0
 465 805 475 791 475 772 c 0
 475 720 416 697 350 697 c 0
 284 697 225 720 225 772 c 0
 225 791 235 805 262 805 c 0
 285 805 295 790 295 775 c 0
 295 773 294 767 294 762 c 0
 294 745 317 728 350 728 c 0
104 445 m 2
 104 520 102 588 94 645 c 1
 96 648 l 1
 108 646 135 645 147 645 c 0
 159 645 186 646 198 648 c 1
 200 645 l 1
 192 592 190 520 190 445 c 2
 190 200 l 2
 190 155.4 190.7 113.2 193 74.4 c 1
 528.1 644.2 l 2
 528.1 644.5 528 644.7 528 645 c 2
 530 648 l 1
 542 646 569 645 581 645 c 0
 593 645 620 646 632 648 c 1
 634 645 l 1
 626 592 624 520 624 445 c 2
 624 200 l 2
 624 125 626 57 634 0 c 1
 632 -3 l 1
 620 -1 593 0 581 0 c 0
 569 0 542 -1 530 -3 c 1
 528 0 l 1
 536 54 538 125 538 200 c 2
 538 445 l 2
 538 489.3 537.3 531.2 535.1 569.8 c 1
 200 0 l 1
 198 -3 l 1
 186 -1 159 0 147 0 c 0
 135 0 108 -1 96 -3 c 1
 94 0 l 1
 102 54 104 125 104 200 c 2
 104 445 l 2
EndSplineSet
LCarets2: 1 0 
Colour: ff00ff
EndChar

StartChar: afii10033
Encoding: 1055 1055 79
Width: 708
VWidth: 999
Flags: HW
HStem: -3 21<90 144 144 197 511 564 564 618> 601 44<195.326 512.674>
VStem: 101 86<2.67992 586.818> 521 86<2.67992 586.818>
LayerCount: 2
Fore
SplineSet
564 645 m 2
 598 645 616 648 616 648 c 1
 617 645 l 1
 609 591 607 520 607 445 c 2
 607 200 l 2
 607 125 610 57 618 0 c 1
 616 -3 l 1
 616 -3 598 0 564 0 c 0
 529 0 512 -3 512 -3 c 1
 511 0 l 1
 519 53 521 125 521 200 c 2
 521 445 l 2
 521 462 520 564 513 588 c 1
 506 597 502 601 487 601 c 2
 221 601 l 2
 206 601 202 597 195 588 c 1
 188 564 187 462 187 445 c 2
 187 200 l 2
 187 125 189 53 197 0 c 1
 196 -3 l 1
 196 -3 179 0 144 0 c 0
 110 0 92 -3 92 -3 c 1
 90 0 l 1
 98 57 101 125 101 200 c 2
 101 445 l 2
 101 520 99 591 91 645 c 1
 92 648 l 1
 92 648 110 645 144 645 c 2
 564 645 l 2
EndSplineSet
Colour: ff00ff
EndChar

StartChar: afii10034
Encoding: 1056 1056 80
Width: 559
VWidth: 999
Flags: HW
HStem: -3 21<94 102 192 200> 276 43<190.832 365.053> 609 43<172.409 371.18>
VStem: 104 86<2.67993 286 323.159 597.325> 422 97<391.757 557.83>
LayerCount: 2
Fore
SplineSet
190 565 m 2
 190 329 l 1
 203 322 244 319 269 319 c 0
 366 319 422 356 422 471 c 0
 422 590 349 609 280 609 c 0
 208 609 190 594 190 565 c 2
104 445 m 2
 104 520 102 588 94 645 c 1
 96 648 l 1
 108 646 135 645 147 645 c 0
 177 645 261 652 287 652 c 0
 472 652 519 550 519 476 c 0
 519 391 456 276 274 276 c 0
 239 276 212 279 190 286 c 1
 190 200 l 2
 190 125 192 57 200 0 c 1
 198 -3 l 1
 186 -1 159 0 147 0 c 0
 135 0 108 -1 96 -3 c 1
 94 0 l 1
 102 54 104 125 104 200 c 2
 104 445 l 2
EndSplineSet
Colour: ff00ff
EndChar

StartChar: afii10035
Encoding: 1057 1057 81
Width: 677
VWidth: 999
Flags: HW
HStem: -10 51<292.131 490.773> 611 47<286.061 471.755>
VStem: 52 103<211.392 435.455>
LayerCount: 2
Fore
SplineSet
380 658 m 0
 502 658 598 608 598 608 c 1
 600 605 l 1
 589 562.5 585.6 545 582 494 c 1
 570 493 l 1
 529 575 456 611 366 611 c 0
 284 611 155 537 155 334 c 0
 155 178 248.2 41 375 41 c 0
 468 41 528 67 599 145 c 1
 606 142 l 1
 609.5 133 611.5 111 612.1 99.5 c 1
 545.3 18.7 458.4 -10 366 -10 c 0
 151 -10 52 142 52 315 c 0
 52 512 211 658 380 658 c 0
EndSplineSet
Colour: ff00ff
EndChar

StartChar: afii10036
Encoding: 1058 1058 82
Width: 540
VWidth: 999
Flags: HW
HStem: -3 21<217 225 315 323> 589 56<17.7551 222.338 317.662 522.245>
VStem: 227 86<2.67992 587.818>
LayerCount: 2
Fore
SplineSet
227 445 m 2
 227 462 226 565 219 589 c 1
 85 589 17 575 17 575 c 1
 15 579 l 1
 17 594 17 617 15 645 c 1
 17 648 l 1
 33 646 56 645 77 645 c 2
 463 645 l 2
 484 645 507 646 523 648 c 1
 525 645 l 1
 523 617 523 594 525 579 c 1
 523 575 l 1
 523 575 455 589 321 589 c 1
 314 565 313 462 313 445 c 2
 313 200 l 2
 313 125 315 57 323 0 c 1
 321 -3 l 1
 309 -1 282 0 270 0 c 0
 258 0 231 -1 219 -3 c 1
 217 0 l 1
 225 54 227 125 227 200 c 2
 227 445 l 2
EndSplineSet
Colour: ff00ff
EndChar

StartChar: afii10037
Encoding: 1059 1059 83
Width: 580
VWidth: 999
Flags: HW
HStem: -22 69<145.475 228.079> 628 20G<54.5 65.8588 152.5 165.28 462.421 482 552.006 555>
DStem2: 278.595 138.281 342 161 0.410131 0.912027<-105.377 13.9627 113.393 328.053>
LayerCount: 2
Fore
SplineSet
120.7 115.1 m 1
 126.3 85 152.7 47 195 47 c 0
 237.7 47 253.9 81.1 278.6 138.3 c 1
 192.3 339.9 85.7 567.8 46 648 c 1
 63 645 89 645 106 645 c 0
 123 645 144 645 161 648 c 1
 169.6 618 224.1 470.1 323.2 242.5 c 1
 384.4 386.9 448.8 546.4 476 648 c 1
 488 645 515 645 526 645 c 0
 537 645 549 645 561 648 c 1
 342 161 l 2
 293.9 54.1 244 -22 154 -22 c 0
 110 -22 59.1 -3.2 39.8 20 c 1
 39.8 24.2 l 1
 60.9 44.2 87.5 86.3 106.8 118 c 1
 120.7 115.1 l 1
EndSplineSet
EndChar

StartChar: afii10039
Encoding: 1061 1061 84
Width: 581
VWidth: 999
Flags: HW
HStem: -3 21<28.5 36.6457 101.5 134.298 419.617 457 520.843 555> 628 20<36.5 41.2125 132 156.316 436.407 469.5 525.709 542.5>
LayerCount: 2
Fore
SplineSet
564 -3 m 1
 546 0 524 0 506 0 c 0
 488 0 466 0 448 -3 c 1
 395.7 97.4 338.3 178.3 274.4 274.9 c 1
 218.1 189.2 160.1 95.1 107 -3 c 1
 96 0 77 0 65 0 c 0
 54 0 34 0 23 -3 c 1
 244 321 l 1
 28 648 l 1
 45 645 67 645 84 645 c 0
 101 645 123 645 141 648 c 1
 169.8 588.2 236.5 491.2 302 390.8 c 1
 385.6 511.8 409.8 547.8 464 648 c 1
 475 645 495 645 506 645 c 0
 517 645 537 645 548 648 c 1
 504.8 587.2 422.9 479.6 331.5 345.4 c 1
 418.3 211.9 483 111.4 564 -3 c 1
EndSplineSet
Colour: ff00ff
EndChar

StartChar: afii10040
Encoding: 1062 1062 85
Width: 702
VWidth: 999
Flags: HW
HStem: 0 44<195.144 512.856> 628 20G<90 144 144 197 511 564 564 618>
VStem: 101 86<60.1801 642.32> 521 86<60.1801 642.32> 629 36<-138 -59.6869>
LayerCount: 2
Fore
SplineSet
607 200 m 2
 607 90 613.2 35 647 32 c 0
 671.9 29.8 677 20.7 677 11 c 2
 665 -138 l 1
 663 -141 l 1
 631 -141 l 1
 629 -138 l 1
 618.1 -65.4 605.7 0 526 0 c 2
 144 0 l 2
 110 0 92 -3 92 -3 c 1
 91 0 l 1
 99 54 101 125 101 200 c 2
 101 445 l 2
 101 520 98 588 90 645 c 1
 92 648 l 1
 92 648 110 645 144 645 c 0
 179 645 196 648 196 648 c 1
 197 645 l 1
 189 592 187 520 187 445 c 2
 187 200 l 2
 187 183 188 83 195 59 c 0
 198 50 205 44 223 44 c 2
 485 44 l 2
 503 44 510 50 513 59 c 0
 520 83 521 183 521 200 c 2
 521 445 l 2
 521 520 519 592 511 645 c 1
 512 648 l 1
 512 648 529 645 564 645 c 0
 598 645 616 648 616 648 c 1
 618 645 l 1
 610 588 607 520 607 445 c 2
 607 200 l 2
EndSplineSet
EndChar

StartChar: afii10041
Encoding: 1063 1063 86
Width: 633
VWidth: 999
Flags: HW
HStem: -3 21<434 442 532 540> 244 64<213.903 364.049> 628 20G<84 137 137 190 434 442 532 540>
VStem: 94 86<340.66 642.32> 444 86<2.67992 642.32>
LayerCount: 2
Fore
SplineSet
180 445 m 2
 180 417 l 2
 180 335 220 308 292 308 c 0
 320.2 308 381.7 311.8 444 351.7 c 1
 444 445 l 2
 444 520 442 588 434 645 c 1
 436 648 l 1
 448 646 475 645 487 645 c 0
 499 645 526 646 538 648 c 1
 540 645 l 1
 532 592 530 520 530 445 c 2
 530 200 l 2
 530 125 532 57 540 0 c 1
 538 -3 l 1
 526 -1 499 0 487 0 c 0
 475 0 448 -1 436 -3 c 1
 434 0 l 1
 442 54 444 125 444 200 c 2
 444 307.6 l 1
 372.9 259.3 306.7 244 250 244 c 0
 136 244 94 323 94 422 c 2
 94 445 l 2
 94 520 92 588 84 645 c 1
 86 648 l 1
 86 648 103 645 137 645 c 0
 172 645 189 648 189 648 c 1
 190 645 l 1
 182 592 180 520 180 445 c 2
EndSplineSet
EndChar

StartChar: afii10042
Encoding: 1064 1064 87
Width: 960
VWidth: 999
Flags: HW
HStem: 0 44<197.144 430.533 531.144 766.533> 628 20G<92 146 146 199 426 480 480 533 763 816 816 870>
VStem: 103 86<60.1801 642.32> 437 86<60.1801 642.32> 773 86<47.6754 642.32>
CounterMasks: 1 38
LayerCount: 2
Fore
SplineSet
859 200 m 2
 859.3 125 861 57 869 0 c 1
 867 -3 l 1
 867 -3 850 0 816 0 c 2
 147 0 l 2
 112 0 94 -3 94 -3 c 1
 93 0 l 1
 101 54 103 125 103 200 c 2
 103 445 l 2
 103 520 100 588 92 645 c 1
 94 648 l 1
 94 648 112 645 146 645 c 0
 181 645 198 648 198 648 c 1
 199 645 l 1
 191 592 189 520 189 445 c 2
 189 200 l 2
 189 183 190 83 197 59 c 0
 200 50 207 44 225 44 c 2
 401 44 l 2
 419 44 426 50 429 59 c 0
 436 83 437 183 437 200 c 2
 437 445 l 2
 437 520 434 588 426 645 c 1
 428 648 l 1
 428 648 446 645 480 645 c 0
 515 645 532 648 532 648 c 1
 533 645 l 1
 525 592 523 520 523 445 c 2
 523 200 l 2
 523 183 524 83 531 59 c 0
 534 50 541 44 559 44 c 2
 737 44 l 2
 755 44 762 50 765 59 c 0
 772 83 773 183 773 200 c 2
 773 445 l 2
 773 520 771 592 763 645 c 1
 764 648 l 1
 764 648 781 645 816 645 c 0
 850 645 868 648 868 648 c 1
 870 645 l 1
 862 588 859 520 859 445 c 2
 859 200 l 2
EndSplineSet
EndChar

StartChar: afii10043
Encoding: 1065 1065 88
Width: 948
VWidth: 999
Flags: HW
HStem: 0 44<197.144 430.533 531.144 766.533> 628 20G<92 146 146 199 426 480 480 533 763 816 816 870>
VStem: 103 86<60.1801 642.32> 437 86<60.1801 642.32> 773 86<46.9378 642.32> 881 36<-138 -59.6869>
LayerCount: 2
Fore
SplineSet
147 0 m 2
 112 0 94 -3 94 -3 c 1
 93 0 l 1
 101 54 103 125 103 200 c 2
 103 445 l 2
 103 520 100 588 92 645 c 1
 94 648 l 1
 94 648 112 645 146 645 c 0
 181 645 198 648 198 648 c 1
 199 645 l 1
 191 592 189 520 189 445 c 2
 189 200 l 2
 189 183 190 83 197 59 c 0
 200 50 207 44 225 44 c 2
 401 44 l 2
 419 44 426 50 429 59 c 0
 436 83 437 183 437 200 c 2
 437 445 l 2
 437 520 434 588 426 645 c 1
 428 648 l 1
 428 648 446 645 480 645 c 0
 515 645 532 648 532 648 c 1
 533 645 l 1
 525 592 523 520 523 445 c 2
 523 200 l 2
 523 183 524 83 531 59 c 0
 534 50 541 44 559 44 c 2
 737 44 l 2
 755 44 762 50 765 59 c 0
 772 83 773 183 773 200 c 2
 773 445 l 2
 773 520 771 592 763 645 c 1
 764 648 l 1
 764 648 781 645 816 645 c 0
 850 645 868 648 868 648 c 1
 870 645 l 1
 862 588 859 520 859 445 c 2
 859 200 l 2
 859 90 865.2 35 899 32 c 0
 923.9 29.8 929 20.7 929 11 c 2
 917 -138 l 1
 915 -141 l 1
 883 -141 l 1
 881 -138 l 1
 870.1 -65.4 857.7 0 778 0 c 2
 147 0 l 2
EndSplineSet
EndChar

StartChar: afii10044
Encoding: 1066 1066 89
Width: 723
VWidth: 999
Flags: HW
HStem: -2 35<330.638 507.646> 329 44<348 522.934> 581 64<52.7551 257.32>
VStem: 262 86<37.7419 329 373 578.197> 587 100<98.5818 271.869>
LayerCount: 2
Fore
SplineSet
348 329 m 1
 348 84 l 2
 348 51 350 33 405 33 c 0
 557 33 587 109 587 183 c 0
 587 254 561 329 433 329 c 2
 348 329 l 1
302 645 m 2
 340 645 357 648 357 648 c 1
 358 645 l 1
 350 592 350.1 520 348 445 c 1
 348 373 l 1
 426 373 l 2
 642 373 688 303 687 183 c 0
 685.6 16 550 -2 429 -2 c 0
 393 -2 336 0 307 0 c 0
 273 0 253 -3 253 -3 c 1
 252 0 l 1
 260 54 262 125 262 200 c 2
 262 445 l 2
 261.8 462 261 557 254 581 c 1
 120 581 52 569 52 569 c 1
 50 573 l 1
 52 588 52 617 50 645 c 1
 52 648 l 1
 68 646 91 645 112 645 c 2
 302 645 l 2
EndSplineSet
EndChar

StartChar: afii10045
Encoding: 1067 1067 90
Width: 786
VWidth: 999
Flags: HW
HStem: -2 21<586 594 684 692> -2 35<193.897 347.346> 329 44<189 366.218> 628 20<92 146 146 199> 629 20<586 594 684 692>
VStem: 103 86<37.7419 329 373 642.32> 428 100<97.9571 270.351> 596 86<3.67992 643.32>
LayerCount: 2
Fore
SplineSet
596 446 m 2
 596 521 594 589 586 646 c 1
 588 649 l 1
 600 647 627 646 639 646 c 0
 651 646 678 647 690 649 c 1
 692 646 l 1
 684 593 682 521 682 446 c 2
 682 201 l 2
 682 126 684 58 692 1 c 1
 690 -2 l 1
 678 0 651 1 639 1 c 0
 627 1 600 0 588 -2 c 1
 586 1 l 1
 594 55 596 126 596 201 c 2
 596 446 l 2
148 0 m 0
 114 0 94 -3 94 -3 c 1
 93 0 l 1
 101 54 103 125 103 200 c 2
 103 445 l 2
 103 520 100 588 92 645 c 1
 94 648 l 1
 94 648 112 645 146 645 c 0
 181 645 198 648 198 648 c 1
 199 645 l 1
 191 592 189 520 189 445 c 2
 189 373 l 1
 267 373 l 2
 513 373 528 272 528 183 c 0
 528 14 394 0 250 -2 c 0
 214 -2.5 177 0 148 0 c 0
189 329 m 1
 189 84 l 2
 189 51 191 33 246 33 c 0
 398 33 428 111 428 183 c 0
 428 250 402 329 274 329 c 2
 189 329 l 1
EndSplineSet
Colour: ff00ff
EndChar

StartChar: afii10046
Encoding: 1068 1068 91
Width: 558
VWidth: 999
Flags: HW
HStem: -2 35<193.897 347.346> 329 44<189 366.218> 628 20G<92 146 146 199>
VStem: 103 86<37.7419 329 373 642.32> 428 100<97.9571 270.351>
LayerCount: 2
Fore
SplineSet
148 0 m 0
 114 0 94 -3 94 -3 c 1
 93 0 l 1
 101 54 103 125 103 200 c 2
 103 445 l 2
 103 520 100 588 92 645 c 1
 94 648 l 1
 94 648 112 645 146 645 c 0
 181 645 198 648 198 648 c 1
 199 645 l 1
 191 592 189 520 189 445 c 2
 189 373 l 1
 267 373 l 2
 513 373 528 272 528 183 c 0
 528 14 394 0 250 -2 c 0
 214 -2.5 177 0 148 0 c 0
189 329 m 1
 189 84 l 2
 189 51 191 33 246 33 c 0
 398 33 428 111 428 183 c 0
 428 250 402 329 274 329 c 2
 189 329 l 1
EndSplineSet
EndChar

StartChar: afii10047
Encoding: 1069 1069 92
Width: 604
VWidth: 999
Flags: HMW
HStem: -12 34<194 359> 273 56<309 422> 311 49<155 284> 621 37<189 346>
VStem: 472 89<186 307 344 460>
LayerCount: 2
Fore
SplineSet
472 307 m 1
 417 273 373 273 360 273 c 0
 298 273 255 311 196 311 c 0
 158 311 142 295 134 295 c 0
 130 295 125 298 125 307 c 0
 125 332 188 360 247 360 c 0
 313 360 342 329 400 329 c 0
 429 329 452 335 471 344 c 1
 461 550 352 621 271 621 c 0
 176 621 98 540 72 454 c 1
 42 458 l 1
 53 511 61 558 63 613 c 1
 121 616 174 658 279 658 c 0
 444 658 561 550 561 333 c 0
 561 113 445 -12 275 -12 c 0
 189 -12 133 19 102 43 c 0
 75 64 54 95 54 122 c 0
 54 148 66 165 84 165 c 0
 113 165 125 152 135 120 c 0
 159 48 214 21 286 21 c 0
 413 21 471 169 472 307 c 1
EndSplineSet
EndChar

StartChar: afii10048
Encoding: 1070 1070 93
Width: 905
VWidth: 999
Flags: HW
HStem: -12 44<502.438 657.231> -3 21<94 102 192 200> 302 44<187 285> 614 44<495.389 660.456> 628 20<94 102 192 200>
VStem: 104 86<2.67992 642.32> 285 96<186.432 302 346 446.306> 770 96<184.305 464.996>
LayerCount: 2
Fore
SplineSet
572 614 m 0
 488 614 381 537 381 327 c 0
 381 135 474 32 582 32 c 0
 685 32 770 131 770 310 c 0
 770 518 697 614 572 614 c 0
104 445 m 2
 104 520 102 588 94 645 c 1
 96 648 l 1
 108 646 135 645 147 645 c 0
 159 645 186 646 198 648 c 1
 200 645 l 1
 192 592 190 520 190 445 c 2
 190 346 l 1
 286 346 l 1
 299 525 417 658 573 658 c 0
 756 658 866 527 866 329 c 0
 866 129 766 -10 574 -12 c 0
 416 -13.6 287 108 285 302 c 1
 190 302 l 1
 190 200 l 2
 190 125 192 57 200 0 c 1
 198 -3 l 1
 186 -1 159 0 147 0 c 0
 135 0 108 -1 96 -3 c 1
 94 0 l 1
 102 54 104 125 104 200 c 2
 104 445 l 2
EndSplineSet
EndChar

StartChar: afii10049
Encoding: 1071 1071 94
Width: 561
VWidth: 999
Flags: HW
HStem: -3 21G<0 12 112.5 127.5 370 423 423 476> 286 44<273.038 380> 613 39<216.656 397.701>
VStem: 71 97<391.218 564.52> 380 86<2.67993 286 330 603.161>
LayerCount: 2
Fore
SplineSet
297 613 m 0
 236 613 168 596 168 478 c 0
 168 353 235 330 332 330 c 2
 380 330 l 1
 380 569 l 2
 380 598 368 613 297 613 c 0
219.2 300 m 1
 199 305.1 184.1 311.3 171 318 c 0
 117 345 71 397 71 479 c 0
 71 529 88 570 124 604 c 0
 172 649 235 652 298 652 c 0
 323 652 393 645 423 645 c 0
 457 645 474 648 474 648 c 1
 476 645 l 1
 468 588 466 520 466 445 c 2
 466 200 l 2
 466 125 468 54 476 0 c 1
 475 -3 l 1
 475 -3 458 0 423 0 c 0
 389 0 372 -3 372 -3 c 1
 370 0 l 1
 378 57 380 125 380 200 c 2
 380 286 l 1
 355.1 286 333.2 286.6 313.9 287.6 c 1
 285.4 254.7 256.4 214.9 229 176 c 0
 178 104 133 31 122 -3 c 1
 103 0 73 0 54 0 c 0
 34 0 22 0 2 -3 c 1
 0 0 l 1
 50.1 56.7 155.4 215.9 219.2 300 c 1
EndSplineSet
EndChar

StartChar: afii10089
Encoding: 1095 1095 95
Width: 510
VWidth: 999
Flags: HW
HStem: -3 21<323 331 415 423> 137 44<162.252 301.419> 412 20G<57 107 107 157 323 331 415 423>
VStem: 68 80<195.691 426.366> 333 80<2.66467 426.335>
LayerCount: 2
Fore
SplineSet
68 291 m 0
 68 366.5 65 376 57 429 c 1
 58 432 l 1
 58 432 72 429 107 429 c 0
 141 429 155 432 155 432 c 1
 157 429 l 1
 149 372 148 368 148 293 c 0
 148 215 155 181 217 181 c 0
 265 181 301.5 192.5 333 223 c 1
 333 250 l 2
 333 321 332 375 323 429 c 1
 325 432 l 1
 337 430 361 429 373 429 c 0
 385 429 409 430 421 432 c 1
 423 429 l 1
 414 372 414 325 413 250 c 1
 413 179 l 2
 413 104 414 57 423 0 c 1
 421 -3 l 1
 409 -1 385 0 373 0 c 0
 361 0 337 -1 325 -3 c 1
 323 0 l 1
 332 53.9 333 104.8 333 178.5 c 1
 294.9 150.5 263 137 204 137 c 0
 106 137 68 185 68 291 c 0
EndSplineSet
EndChar

StartChar: afii10090
Encoding: 1096 1096 96
Width: 807
VWidth: 999
Flags: HW
HStem: 0 41<185.326 354.674 451.326 622.533> 412 20G<87 137 137 187 353 403 403 453 619 670 670 720>
VStem: 97 80<55.1837 426.335> 363 80<55.1837 426.335> 629 80<43.5547 426.335>
CounterMasks: 1 38
LayerCount: 2
Fore
SplineSet
709 200 m 2
 709 125.5 711 54 719 0 c 1
 718 -3 l 1
 718 -3 700 0 666 0 c 2
 140 0 l 2
 106 0 88 -3 88 -3 c 1
 87 0 l 1
 95 54 97 125 97 200 c 2
 97 250 l 2
 97 325 96 372 87 429 c 1
 89 432 l 1
 89 432 103 429 137 429 c 0
 172 429 186 432 186 432 c 1
 187 429 l 1
 178 375 177 324 177 250 c 2
 177 200 l 2
 177 183 178 78 185 54 c 1
 192 45 196 41 211 41 c 2
 329 41 l 2
 344 41 348 45 355 54 c 1
 362 78 363 183 363 200 c 2
 363 250 l 2
 363 325 362 372 353 429 c 1
 355 432 l 1
 355 432 369 429 403 429 c 0
 438 429 452 432 452 432 c 1
 453 429 l 1
 444 375 443 324 443 250 c 2
 443 200 l 2
 443 183 444 78 451 54 c 1
 458 45 462 41 477 41 c 2
 609 41 l 2
 624 41 614 45 621 54 c 1
 628 78 629 183 629 200 c 2
 629 249 l 2
 629 325 627.5 372 619 429 c 1
 621 432 l 1
 621 432 635.7 429 670 429 c 0
 705 429 719 432 719 432 c 1
 720 429 l 1
 711.5 375.5 709 324.1 709 249 c 2
 709 200 l 2
EndSplineSet
EndChar

StartChar: afii10091
Encoding: 1097 1097 97
Width: 813
VWidth: 999
Flags: HW
HStem: 0 41<185.326 354.674 451.326 622.533> 412 20G<87 137 137 187 353 403 403 453 619 670 670 720>
VStem: 97 80<55.1837 426.335> 363 80<55.1837 426.335> 629 80<41.465 426.335> 731 36<-125 -51.0882>
LayerCount: 2
Fore
SplineSet
140 0 m 2
 106 0 88 -3 88 -3 c 1
 87 0 l 1
 95 54 97 125 97 200 c 2
 97 250 l 2
 97 325 96 372 87 429 c 1
 89 432 l 1
 89 432 103 429 137 429 c 0
 172 429 186 432 186 432 c 1
 187 429 l 1
 178 375 177 324 177 250 c 2
 177 200 l 2
 177 183 178 78 185 54 c 1
 192 45 196 41 211 41 c 2
 329 41 l 2
 344 41 348 45 355 54 c 1
 362 78 363 183 363 200 c 2
 363 250 l 2
 363 325 362 372 353 429 c 1
 355 432 l 1
 355 432 369 429 403 429 c 0
 438 429 452 432 452 432 c 1
 453 429 l 1
 444 375 443 324 443 250 c 2
 443 200 l 2
 443 183 444 78 451 54 c 1
 458 45 462 41 477 41 c 2
 609 41 l 2
 624 41 614 45 621 54 c 1
 628 78 629 183 629 200 c 2
 629 249 l 2
 629 325 627.5 372 619 429 c 1
 621 432 l 1
 621 432 635.7 429 670 429 c 0
 705 429 719 432 719 432 c 1
 720 429 l 1
 711.5 375.5 709 324.1 709 249 c 2
 709 200 l 2
 709 90 715.2 35 749 32 c 0
 773.9 29.8 779 20.7 779 11 c 2
 767 -125 l 1
 765 -128 l 1
 733 -128 l 1
 731 -125 l 1
 720.1 -52.4 707.7 0 628 0 c 2
 140 0 l 2
EndSplineSet
EndChar

StartChar: afii10092
Encoding: 1098 1098 98
Width: 545
VWidth: 999
Flags: HW
HStem: -2 36<257.238 403.141> 219 37<273 400.783> 374 55<34.7075 190>
VStem: 193 80<40.3429 219 256 372.311> 428 86<60.92 197.087>
LayerCount: 2
Fore
SplineSet
428 126 m 0
 428 179 411 219 340 219 c 2
 273 219 l 1
 273 79 l 2
 273 44 290 34 336 34 c 0
 386 34 428 44 428 126 c 0
193 250 m 2
 193 321 190 374 190 374 c 1
 65 374 34 363 34 363 c 1
 32 366 l 1
 34 380 34 403 32 429 c 1
 34 431 l 1
 49 430 70 429 89 429 c 2
 233 429 l 2
 267 429 281 432 281 432 c 1
 283 429 l 1
 274 372 273 334 273 259 c 2
 273 256 l 1
 350 256 l 2
 446 256 514 230 514 136 c 0
 514 52 452 -2 341 -2 c 0
 298.9 -2 275.1 0 233 0 c 0
 198 0 184 -3 184 -3 c 1
 183 0 l 1
 192 54 193 105 193 179 c 2
 193 250 l 2
EndSplineSet
EndChar

StartChar: afii10093
Encoding: 1099 1099 99
Width: 681
VWidth: 999
Flags: HW
HStem: -3 21<496 504 588 596> -2 36<165.238 311.141> 219 37<181 308.783> 412 20<91 141 141 191 496 504 588 596>
VStem: 101 80<40.3429 219 256 426.342> 336 86<60.92 197.087> 506 80<2.66467 426.335>
LayerCount: 2
Fore
SplineSet
506 250 m 2
 506 321 505 375 496 429 c 1
 498 432 l 1
 510 430 534 429 546 429 c 0
 558 429 582 430 594 432 c 1
 596 429 l 1
 587 372 587 325 586 250 c 1
 586 179 l 2
 586 104 587 57 596 0 c 1
 594 -3 l 1
 582 -1 558 0 546 0 c 0
 534 0 510 -1 498 -3 c 1
 496 0 l 1
 505 54 506 105 506 179 c 2
 506 250 l 2
336 126 m 0
 336 179 319 219 248 219 c 2
 181 219 l 1
 181 79 l 2
 181 44 198 34 244 34 c 0
 294 34 336 44 336 126 c 0
181 259 m 2
 181 256 l 1
 258 256 l 2
 354 256 422 230 422 136 c 0
 422 52 360 -2 249 -2 c 0
 206.9 -2 183.1 0 141 0 c 0
 106 0 92 -3 92 -3 c 1
 91 0 l 1
 100 54 101 105 101 179 c 2
 101 250 l 2
 101 321 100 375 91 429 c 1
 92 432 l 1
 92 432 106 429 141 429 c 0
 175 429 189 432 189 432 c 1
 191 429 l 1
 182 372 181 334 181 259 c 2
EndSplineSet
Colour: ff00ff
EndChar

StartChar: afii10094
Encoding: 1100 1100 100
Width: 453
VWidth: 999
Flags: HW
HStem: -2 36<165.238 311.141> 219 37<181 308.783> 412 20G<91 141 141 191>
VStem: 101 80<40.3429 219 256 426.342> 336 86<60.92 197.087>
LayerCount: 2
Fore
SplineSet
336 126 m 0
 336 179 319 219 248 219 c 2
 181 219 l 1
 181 79 l 2
 181 44 198 34 244 34 c 0
 294 34 336 44 336 126 c 0
181 259 m 2
 181 256 l 1
 258 256 l 2
 354 256 422 230 422 136 c 0
 422 52 360 -2 249 -2 c 0
 206.9 -2 183.1 0 141 0 c 0
 106 0 92 -3 92 -3 c 1
 91 0 l 1
 100 54 101 105 101 179 c 2
 101 250 l 2
 101 321 100 375 91 429 c 1
 92 432 l 1
 92 432 106 429 141 429 c 0
 175 429 189 432 189 432 c 1
 191 429 l 1
 182 372 181 334 181 259 c 2
EndSplineSet
EndChar

StartChar: afii10095
Encoding: 1101 1101 101
Width: 434
VWidth: 999
Flags: HMW
HStem: -10 40<121.873 240.565> 201 44<134.609 142> 399 40<123.448 236.203>
LayerCount: 2
Fore
SplineSet
300.5 245 m 1
 291.5 337.5 243.4 399 184 399 c 0
 139.9 399 99 370 78 325 c 1
 65 326 l 1
 42 408 l 1
 44 411 l 1
 75 427 133 439 183 439 c 0
 312 439 390 354 390 218 c 0
 390 78.9 290 -10 189 -10 c 0
 139 -10 75 2 44 18 c 1
 42 21 l 1
 65 103 l 1
 78 104 l 1
 99 59 135.9 30 180 30 c 0
 250.5 30 298.5 91.5 301.8 201 c 1
 135 201 l 2
 132 201 131 202 131 205 c 2
 138 241 l 2
 138.7 244.8 140 245 142 245 c 2
 300.5 245 l 1
EndSplineSet
EndChar

StartChar: afii10096
Encoding: 1102 1102 102
Width: 686
VWidth: 999
Flags: HW
HStem: -10 40<408.663 514.586> -3 21<83 91 175 183> 198 39<171 268> 399 40<403.215 515.249> 412 20<83 91 175 183>
VStem: 93 80<2.66467 426.335> 268 85<105.003 198 237 323.327> 564 85<101.559 329.901>
LayerCount: 2
Fore
SplineSet
454 399 m 0
 380 399 353 313 353 226 c 0
 353 149 371 30 465 30 c 0
 506 30 564 63 564 195 c 0
 564 341 532 399 454 399 c 0
93 250 m 2
 93 321 92 375 83 429 c 1
 85 432 l 1
 97 430 121 429 133 429 c 0
 145 429 169 430 181 432 c 1
 183 429 l 1
 174 372 174 325 173 250 c 1
 173 237 l 1
 269 237 l 1
 279 356 344 439 459 439 c 0
 603 439 649 321 649 217 c 0
 649 117 604 -10 465 -10 c 0
 337 -10 270 97 268 198 c 1
 173 198 l 1
 173 179 l 2
 173 104 174 57 183 0 c 1
 181 -3 l 1
 169 -1 145 0 133 0 c 0
 121 0 97 -1 85 -3 c 1
 83 0 l 1
 92 54 93 105 93 179 c 2
 93 250 l 2
EndSplineSet
EndChar

StartChar: afii10097
Encoding: 1103 1103 103
Width: 444
VWidth: 999
Flags: HW
HStem: -3 21G<12 18 119 141 273 323 323 373> 194 36<151.111 203 243 283> 398 34<147.125 299.24>
VStem: 38 85<253.79 379.633> 283 80<2.65817 178 230 391.204>
LayerCount: 2
Fore
SplineSet
283 230 m 1
 283 362 l 2
 283 394 253 398 214 398 c 0
 140 398 123 368 123 321 c 0
 123 271 146 230 203 230 c 2
 283 230 l 1
163.7 194.1 m 1
 158.9 194.1 154 194 149 194 c 0
 84 194 38 244 38 310 c 0
 38 367 59 432 201 432 c 0
 238 432 275.4 429 323 429 c 0
 358 429 371 432 371 432 c 1
 373 429 l 1
 364 375 363 324 363 251 c 2
 363 178 l 2
 363 108 364 54 373 0 c 1
 372 -3 l 1
 372 -3 358 0 323 0 c 0
 289 0 275 -3 275 -3 c 1
 273 0 l 1
 282 57 283 95 283 169 c 2
 283 194.6 l 1
 224.1 187.2 211.2 161.4 187 113 c 0
 169 78 156 49 126 -3 c 1
 112 -1 79 0 63 0 c 0
 47 0 22 -1 14 -3 c 1
 12 0 l 1
 65 59 77 94 131 158 c 0
 143.1 172.7 153.4 184.6 163.7 194.1 c 1
EndSplineSet
EndChar

StartChar: uni04D0
Encoding: 1232 1232 106
Width: 629
VWidth: 999
Flags: HW
HStem: -3 21<22 66.5 90 104.177 499.931 511.5 588 604.5> 231 42<198.642 407.322> 638 20<263 385> 698 31<273.585 364.415>
VStem: 194 69<735.873 804.004> 375 69<737.589 804.004>
DStem2: 16 -3 178.974 228.261 0.407548 0.913184<57.2509 287.455 329.137 596.593> 339 658 306.032 521.764 0.382928 -0.923778<113.228 379.463>
LayerCount: 2
Fore
SplineSet
407.3 275.5 m 1
 380.4 345.2 347.1 427.4 306 521.8 c 1
 304 521.8 l 1
 198.6 275.9 l 1
 220.6 274.7 274.1 273 303 273 c 0
 332.7 273 374.3 274 407.3 275.5 c 1
179 228.3 m 1
 143.3 140.8 112.4 58.3 96 -3 c 1
 84 0 62 0 51 0 c 0
 40 0 28 0 16 -3 c 1
 117 218 215 436 311 658 c 1
 339 658 l 1
 431 439 563 98 613 -3 c 1
 596 0 570 0 553 0 c 0
 536 0 520 0 503 -3 c 1
 496.9 19.2 474.3 97.2 425.3 228.3 c 1
 401 230 346 231 308 231 c 0
 273.5 231 204 230 179 228.3 c 1
319 729 m 0
 352 729 375 746 375 763 c 0
 375 768 374 774 374 776 c 0
 374 791 384 806 407 806 c 0
 434 806 444 792 444 773 c 0
 444 721 385 698 319 698 c 0
 253 698 194 721 194 773 c 0
 194 792 204 806 231 806 c 0
 254 806 264 791 264 776 c 0
 264 774 263 768 263 763 c 0
 263 746 286 729 319 729 c 0
EndSplineSet
LCarets2: 1 0 
Colour: ff00ff
EndChar

StartChar: uni04D1
Encoding: 1233 1233 107
Width: 481
VWidth: 999
Flags: HW
HStem: -10 51<143.58 256.585 377.751 457.24> 394 45<157.262 280.562> 503 31<196.971 271.548>
VStem: 45 81<59.6871 162.517> 113 73<540.553 619.612> 282 73<541.079 620.243> 311 79<78.8114 225 264.049 362.994>
DStem2: 211 243 225 202 0.975441 0.220261<-76.3759 92.604>
LayerCount: 2
Fore
SplineSet
355 590 m 0
 355 535 297 503 233 503 c 0
 168 503 113 536 113 590 c 0
 113 608 129 623 152 623 c 0
 174 623 186 609 186 593 c 0
 186 590 186 588 185 585 c 0
 184 582 184 579 184 577 c 0
 184 555 204 534 234 534 c 0
 263 534 284 554 284 576 c 0
 284 579 284 582 283 585 c 0
 282 587 282 589 282 592 c 0
 282 609 299 623 317 623 c 0
 341 623 355 609 355 590 c 0
310 225 m 1
 225 202 l 2
 147 181 126 147 126 102 c 0
 126 71 155 41 200 41 c 0
 230 41 264 59 292 80 c 0
 300 86 306 93 306 106 c 2
 310 225 l 1
310.1 48 m 1
 306 48 l 1
 253 3 225 -10 170 -10 c 0
 96 -10 45 24 45 98 c 0
 45 166 109 220 211 243 c 2
 304 264 l 2
 307 265 311 269 311 276 c 0
 311 389 251 394 215 394 c 0
 167 394 133 354 105 309 c 1
 92 310 l 1
 75 377 l 1
 78 381 l 1
 103 402 149 439 225 439 c 0
 301 439 390 412 390 277 c 0
 390 266 387.2 155 387.2 126 c 0
 387.2 81.5 393.7 57.3 403.9 48 c 0
 410 42.4 423.3 40.5 433.2 40.5 c 0
 440.8 40.5 449.3 41.9 460.2 45.7 c 1
 467.6 21 l 1
 444 -4 413.2 -10 388 -10 c 0
 351.4 -10 321.5 8.9 310.1 48 c 1
EndSplineSet
LCarets2: 1 0 
Colour: ff00ff
EndChar

StartChar: uni04D2
Encoding: 1234 1234 108
Width: 629
VWidth: 999
Flags: HW
HStem: -3 21<22 66.5 90 104.177 499.931 511.5 588 604.5> 231 42<198.642 407.322> 638 20<263 385> 710 95<202.016 279.984 371.016 448.984>
VStem: 194 94<717.394 797.312> 363 94<717.394 797.312>
DStem2: 16 -3 178.974 228.261 0.407548 0.913184<57.2509 287.455 329.137 596.593> 339 658 306.032 521.764 0.382928 -0.923778<113.228 379.463>
LayerCount: 2
Fore
SplineSet
194 757 m 0
 194 783 215 805 241 805 c 0
 267 805 288 783 288 757 c 0
 288 731 267 710 241 710 c 0
 215 710 194 731 194 757 c 0
363 757 m 0
 363 783 384 805 410 805 c 0
 436 805 457 783 457 757 c 0
 457 731 436 710 410 710 c 0
 384 710 363 731 363 757 c 0
407.3 275.5 m 1
 380.4 345.2 347.1 427.4 306 521.8 c 1
 304 521.8 l 1
 198.6 275.9 l 1
 220.6 274.7 274.1 273 303 273 c 0
 332.7 273 374.3 274 407.3 275.5 c 1
179 228.3 m 1
 143.3 140.8 112.4 58.3 96 -3 c 1
 84 0 62 0 51 0 c 0
 40 0 28 0 16 -3 c 1
 117 218 215 436 311 658 c 1
 339 658 l 1
 431 439 563 98 613 -3 c 1
 596 0 570 0 553 0 c 0
 536 0 520 0 503 -3 c 1
 496.9 19.2 474.3 97.2 425.3 228.3 c 1
 401 230 346 231 308 231 c 0
 273.5 231 204 230 179 228.3 c 1
EndSplineSet
LCarets2: 1 0 
Colour: ff00ff
EndChar

StartChar: uni04D3
Encoding: 1235 1235 109
Width: 481
VWidth: 999
Flags: HW
HStem: -10 51<143.58 256.585 377.751 457.24> 394 45<157.262 280.562> 527 95<99.0156 176.984 268.016 345.984>
VStem: 45 81<59.6871 162.517> 91 94<534.394 614.312> 260 94<534.394 614.312> 311 79<78.8114 225 264.049 362.994>
DStem2: 211 243 225 202 0.975441 0.220261<-76.3759 92.604>
LayerCount: 2
Fore
SplineSet
91 574 m 0
 91 600 112 622 138 622 c 0
 164 622 185 600 185 574 c 0
 185 548 164 527 138 527 c 0
 112 527 91 548 91 574 c 0
260 574 m 0
 260 600 281 622 307 622 c 0
 333 622 354 600 354 574 c 0
 354 548 333 527 307 527 c 0
 281 527 260 548 260 574 c 0
310 225 m 1
 225 202 l 2
 147 181 126 147 126 102 c 0
 126 71 155 41 200 41 c 0
 230 41 264 59 292 80 c 0
 300 86 306 93 306 106 c 2
 310 225 l 1
310.1 48 m 1
 306 48 l 1
 253 3 225 -10 170 -10 c 0
 96 -10 45 24 45 98 c 0
 45 166 109 220 211 243 c 2
 304 264 l 2
 307 265 311 269 311 276 c 0
 311 389 251 394 215 394 c 0
 167 394 133 354 105 309 c 1
 92 310 l 1
 75 377 l 1
 78 381 l 1
 103 402 149 439 225 439 c 0
 301 439 390 412 390 277 c 0
 390 266 387.2 155 387.2 126 c 0
 387.2 81.5 393.7 57.3 403.9 48 c 0
 410 42.4 423.3 40.5 433.2 40.5 c 0
 440.8 40.5 449.3 41.9 460.2 45.7 c 1
 467.6 21 l 1
 444 -4 413.2 -10 388 -10 c 0
 351.4 -10 321.5 8.9 310.1 48 c 1
EndSplineSet
LCarets2: 1 0 
Colour: ff00ff
EndChar

StartChar: uni04D4
Encoding: 1236 1236 110
Width: 802
VWidth: 999
Flags: HW
HStem: 0 55.6<502.929 751.245> 280 46<218.935 453.333> 291 42<462 667.146> 594.3 50.7<425.796 691.245>
LayerCount: 2
Fore
SplineSet
222 278.5 m 1
 170.6 171.8 125.5 69.1 98 -3 c 1
 86 0 64 0 53 0 c 0
 42 0 30 0 18 -3 c 1
 124 200 221 410 366 645.7 c 1
 366.2 645.3 l 1
 368 648 l 1
 368 648 385 645 419 645 c 2
 632 645 l 2
 653 645 676 646 692 648 c 1
 694 645 l 1
 693 631 692 622 692 614 c 0
 692 605 693 596 694 588 c 1
 692 584 l 1
 692 584 614.7 594.3 509 594.3 c 0
 433.5 594.3 419.2 585.3 424.4 545.5 c 1
 438.6 475.1 454.6 402.4 470.7 333 c 1
 582.8 333.2 637.5 338.1 695 343 c 1
 698 340 l 1
 696 331 695 321 695 312 c 0
 695 303 696 293 698 284 c 1
 695 281 l 1
 633.7 287.2 535.4 290.3 480.5 290.9 c 1
 502 199.9 523 116.9 539.5 55.8 c 1
 639.3 59.2 752 66 752 66 c 1
 754 62 l 1
 753 54 752 39 752 29 c 0
 752 19 753 14 754 0 c 1
 752 -3 l 1
 736 -1 713 0 692 0 c 2
 555 0 l 1
 553.5 0 l 1
 500 0 l 2
 483 0 467 0 450 -3 c 1
 450 32.7 436.6 117.3 405.9 279.4 c 1
 383.7 279.8 361.3 280 340 280 c 0
 308.7 280 259.3 279.3 222 278.5 c 1
397.2 324.7 m 1
 385.7 384.7 372.2 453.9 356.5 533.5 c 1
 354.5 533.5 l 1
 318.2 469.5 280.5 397.6 245 325.7 c 1
 274.6 325.1 310.2 324 335 324 c 0
 352.9 324 375.1 324.3 397.2 324.7 c 1
EndSplineSet
Colour: ff00ff
EndChar

StartChar: uni04D5
Encoding: 1237 1237 111
Width: 687
VWidth: 999
Flags: HW
HStem: -10 50<135.407 255.127 438.656 562.972> 218 40<209.155 296 375 554.771> 394 45<146.355 264.956 426.84 534.254>
VStem: 39 82<54.0916 159.063> 296 78<112.964 215> 562 84<266.765 365.2>
LayerCount: 2
Fore
SplineSet
296 215 m 1
 163 203 121 157 121 106 c 0
 121 61 145 40 192 40 c 0
 228 40 271 61 285 100 c 0
 291.4 117.9 296 165 296 215 c 1
375 258 m 1
 515 266 562 245 562 306 c 0
 562 338 537 394 489 394 c 0
 426 394 383 343 375 258 c 1
202 394 m 0
 157.5 394 115 350 89 305 c 1
 76 306 l 1
 60 373 l 1
 63 377 l 1
 87.5 397.5 138.5 439 211 439 c 0
 235 439 311 436 348 369 c 1
 381 414 433 439 490 439 c 0
 604 439 646 343 646 309 c 0
 646 278.1 640 254 620 237 c 1
 584.3 217.3 509.5 225.4 374 218 c 1
 374 112 423 44 498 44 c 0
 552 44 591 77 621 112 c 1
 641 84 l 1
 612 30 550 -10 484 -10 c 0
 393 -10 360 34 340 59 c 1
 294 15 245 -10 190 -10 c 0
 85 -10 39 33 39 101 c 0
 39 184 126 243 296 255 c 1
 294.8 348.6 274.8 394 202 394 c 0
EndSplineSet
Colour: ff00ff
EndChar

StartChar: uni04D6
Encoding: 1238 1238 112
Width: 538
VWidth: 999
Flags: HW
HStem: 0 56<194.662 417.584> 317 50<190 404.78> 589 56<194.662 419.27> 698 31<228.585 319.415>
VStem: 104 86<58.188 317 367 587.818> 149 69<735.873 804.004> 330 69<737.589 804.004>
LayerCount: 2
Fore
SplineSet
190 200 m 2
 190 183 191 80 198 56 c 1
 332 56 480 68 480 68 c 1
 482 64 l 1
 481 56 480 41 480 31 c 0
 480 21 481 14 482 0 c 1
 480 -3 l 1
 464 -1 441 0 420 0 c 2
 147 0 l 2
 112 0 95 -3 95 -3 c 1
 94 0 l 1
 102 54 104 125 104 200 c 2
 104 445 l 2
 104 520 102 588 94 645 c 1
 96 648 l 1
 96 648 113 645 147 645 c 2
 410 645 l 2
 431 645 454 646 470 648 c 1
 472 645 l 1
 471 631 470 615 470 607 c 0
 470 598 471 589 472 581 c 1
 470 577 l 1
 470 577 332 589 198 589 c 1
 191 565 190 462 190 445 c 2
 190 367 l 1
 308 367 354 372 413 377 c 1
 416 374 l 1
 414 365 413 351 413 342 c 0
 413 333 414 319 416 310 c 1
 413 307 l 1
 344 314 238 317 190 317 c 1
 190 200 l 2
274 729 m 0
 307 729 330 746 330 763 c 0
 330 768 329 774 329 776 c 0
 329 791 339 806 362 806 c 0
 389 806 399 792 399 773 c 0
 399 721 340 698 274 698 c 0
 208 698 149 721 149 773 c 0
 149 792 159 806 186 806 c 0
 209 806 219 791 219 776 c 0
 219 774 218 768 218 763 c 0
 218 746 241 729 274 729 c 0
EndSplineSet
LCarets2: 1 0 
Colour: ff00ff
EndChar

StartChar: uni04D7
Encoding: 1239 1239 113
Width: 453
VWidth: 999
Flags: HW
HStem: -10 59<180.536 330.136> 233 40<125 322.997> 399 40<182.373 286.139> 503 31<188.971 263.548>
VStem: 34 88<110.038 233 273 315.973> 105 73<540.553 619.612> 274 73<541.079 620.243> 323 89<244.5 350.727>
LayerCount: 2
Fore
SplineSet
347 590 m 0
 347 535 289 503 225 503 c 0
 160 503 105 536 105 590 c 0
 105 608 121 623 144 623 c 0
 166 623 178 609 178 593 c 0
 178 590 178 588 177 585 c 0
 176 582 176 579 176 577 c 0
 176 555 196 534 226 534 c 0
 255 534 276 554 276 576 c 0
 276 579 276 582 275 585 c 0
 274 587 274 589 274 592 c 0
 274 609 291 623 309 623 c 0
 333 623 347 609 347 590 c 0
125 273 m 1
 309 273 l 2
 319 273 323 278 323 287 c 0
 323 362 278.5 399 239 399 c 0
 207.5 399 142 377 125 273 c 1
392 104 m 1
 412 79 l 1
 374 27 310 -10 238 -10 c 0
 170.6 -10 113.4 14.7 79 56 c 0
 45.5 96.2 34 152.3 34 209 c 0
 34 356 136 439 239 439 c 0
 371 439 412 334 412 250 c 0
 412 239 405 233 394 233 c 2
 122 233 l 1
 122 174.9 128.4 134.1 146 106 c 0
 173.5 62 220.8 49 255 49 c 0
 310 49 357 66 392 104 c 1
EndSplineSet
LCarets2: 1 0 
Colour: ff00ff
EndChar

StartChar: uni04D8
Encoding: 1240 1240 114
Width: 644
VWidth: 999
Flags: HW
HStem: -10 40<240.996 394.914> 226 44<127 505> 607 51<178.723 378.605>
VStem: 515 103<270 434.725>
LayerCount: 2
Fore
SplineSet
515 314 m 0
 515 470 421.9 607 295.1 607 c 0
 202.1 607 142.1 581 71.1 503 c 1
 64.1 506 l 1
 60.6 515 58.6 537 58 548.5 c 1
 124.8 629.3 211.7 658 304.1 658 c 0
 519.1 658 618 506 618 333 c 0
 618 138 509 -10 316 -10 c 0
 124 -10 46 128 35 270 c 1
 514 270 l 1
 515 281 515 300 515 314 c 0
127 226 m 1
 158 96 225 30 323 30 c 0
 429 30 487 126 505 226 c 1
 127 226 l 1
EndSplineSet
Colour: ff00ff
EndChar

StartChar: afii10846
Encoding: 1241 1241 115
Width: 453
VWidth: 999
Flags: HW
HStem: -11 40<141.861 245.627> 155 40<105.003 303> 379 59<97.864 247.464>
VStem: 16 89<77.273 183.5> 306 88<112.027 155 195 317.962>
LayerCount: 2
Fore
SplineSet
303 155 m 1
 119 155 l 2
 109 155 105 150 105 141 c 0
 105 66 149.5 29 189 29 c 0
 220.5 29 286 51 303 155 c 1
36 324 m 1
 16 349 l 1
 54 401 118 438 190 438 c 0
 257.4 438 314.6 413.3 349 372 c 0
 382.5 331.8 394 275.7 394 219 c 0
 394 72 292 -11 189 -11 c 0
 57 -11 16 94 16 178 c 0
 16 189 23 195 34 195 c 2
 306 195 l 1
 306 253.1 299.6 293.9 282 322 c 0
 254.5 366 207.2 379 173 379 c 0
 118 379 71 362 36 324 c 1
EndSplineSet
Colour: ff00ff
EndChar

StartChar: uni04DA
Encoding: 1242 1242 116
Width: 644
VWidth: 999
Flags: HW
HStem: -10 40<240.996 394.914> 226 44<127 505> 607 51<178.723 378.605> 704 96<171.332 250.668 360.332 439.668>
VStem: 163 96<712.332 791.668> 352 96<712.332 791.668> 515 103<270 434.725>
LayerCount: 2
Fore
SplineSet
352 752 m 0
 352 778 374 800 400 800 c 0
 426 800 448 778 448 752 c 0
 448 726 426 704 400 704 c 0
 374 704 352 726 352 752 c 0
163 752 m 0
 163 778 185 800 211 800 c 0
 237 800 259 778 259 752 c 0
 259 726 237 704 211 704 c 0
 185 704 163 726 163 752 c 0
515 314 m 0
 515 470 421.9 607 295.1 607 c 0
 202.1 607 142.1 581 71.1 503 c 1
 64.1 506 l 1
 60.6 515 58.6 537 58 548.5 c 1
 124.8 629.3 211.7 658 304.1 658 c 0
 519.1 658 618 506 618 333 c 0
 618 138 509 -10 316 -10 c 0
 124 -10 46 128 35 270 c 1
 514 270 l 1
 515 281 515 300 515 314 c 0
127 226 m 1
 158 96 225 30 323 30 c 0
 429 30 487 126 505 226 c 1
 127 226 l 1
EndSplineSet
LCarets2: 1 0 
Colour: ff00ff
EndChar

StartChar: uni04DB
Encoding: 1243 1243 117
Width: 453
VWidth: 999
Flags: HW
HStem: -11 40<141.861 245.627> 155 40<105.003 303> 379 59<97.864 247.464> 525 95<91.0156 168.984 260.016 337.984>
VStem: 16 89<77.273 183.5> 83 94<532.394 612.312> 252 94<532.394 612.312> 306 88<112.027 155 195 317.962>
LayerCount: 2
Fore
SplineSet
83 572 m 0
 83 598 104 620 130 620 c 0
 156 620 177 598 177 572 c 0
 177 546 156 525 130 525 c 0
 104 525 83 546 83 572 c 0
252 572 m 0
 252 598 273 620 299 620 c 0
 325 620 346 598 346 572 c 0
 346 546 325 525 299 525 c 0
 273 525 252 546 252 572 c 0
303 155 m 1
 119 155 l 2
 109 155 105 150 105 141 c 0
 105 66 149.5 29 189 29 c 0
 220.5 29 286 51 303 155 c 1
36 324 m 1
 16 349 l 1
 54 401 118 438 190 438 c 0
 257.4 438 314.6 413.3 349 372 c 0
 382.5 331.8 394 275.7 394 219 c 0
 394 72 292 -11 189 -11 c 0
 57 -11 16 94 16 178 c 0
 16 189 23 195 34 195 c 2
 306 195 l 1
 306 253.1 299.6 293.9 282 322 c 0
 254.5 366 207.2 379 173 379 c 0
 118 379 71 362 36 324 c 1
EndSplineSet
LCarets2: 1 0 
Colour: ff00ff
EndChar

StartChar: uni04E0
Encoding: 1248 1248 118
Width: 608
VWidth: 999
Flags: HW
HStem: -217 47<203.531 370.654> 591 54<214.043 428.672>
VStem: 465 103<-60.9347 133.109>
DStem2: 219 247 342 289 0.539989 0.841672<101.769 403.056>
LayerCount: 2
Fore
SplineSet
291 -170 m 0
 406 -170 465 -58 465 42 c 0
 465 189 329 250 260 250 c 0
 244 250 233 250 219 247 c 1
 432 579 l 2
 436.9 586.7 434 591 429 591 c 0
 328.5 591 210.5 581.5 74 570 c 1
 72 573 l 1
 73 581 74 596 74 606 c 0
 74 616 73 631 72 645 c 1
 74 648 l 1
 90 646 113 645 135 645 c 2
 439 645 l 2
 470 645 548.5 648.8 565 651 c 0
 569.5 651 571 649 571 645 c 0
 571 634 559.9 619.7 541 591 c 2
 342 289 l 1
 487 277 568 184 568 45 c 0
 568 -83.5 484 -217 286 -217 c 0
 164 -217 57 -180 57 -180 c 1
 55 -177 l 1
 66 -134.5 69.4 -105 73 -54 c 1
 102.5 -50 l 1
 143.5 -132 224.5 -170 291 -170 c 0
EndSplineSet
Colour: ff00ff
EndChar

StartChar: uni04E1
Encoding: 1249 1249 119
Width: 409
VWidth: 999
Flags: HW
HStem: -222 38<118.202 234.756> 114 46<162.11 258.439> 373 56<78.8 267>
VStem: 302 80<-110.073 70.1629>
DStem2: 68 111 184.75 158 0.596159 0.802867<107.336 333.804>
LayerCount: 2
Fore
SplineSet
76 100 m 1
 68 111 l 1
 267 379 l 1
 166 376 l 2
 142 375 118 374 93 373 c 2
 22 368 l 1
 20 371 l 1
 21 382 22 392 22 402 c 2
 20 429 l 1
 22 432 l 1
 37 430 56 429 78 429 c 2
 302 429 l 2
 329 429 361 432 376 432 c 0
 379 432 383 430 383 428 c 0
 383 424 378.6 414.3 358 387 c 2
 184.8 158 l 1
 194.8 159 207 160 218 160 c 0
 317 160 382 96 382 -10 c 0
 382 -123 312 -222 175 -222 c 0
 111 -222 67 -205 28 -176 c 1
 38 -156 45 -130 49 -100 c 1
 62 -99 l 1
 88 -147 124 -184 177 -184 c 0
 249 -184 302 -111 302 -16 c 0
 302 67 264 114 186 114 c 0
 139 114 110 110 76 100 c 1
EndSplineSet
Colour: ff00ff
EndChar

StartChar: uni04E6
Encoding: 1254 1254 120
Width: 741
VWidth: 999
Flags: HW
HStem: -10 44<297.518 470.882> 614 44<271.342 456.336> 704 96<217.332 296.668 406.332 485.668>
VStem: 52 103<199.871 439.073> 209 96<712.332 791.668> 398 96<712.332 791.668> 586 103<198.639 454.348>
LayerCount: 2
Fore
SplineSet
398 752 m 0
 398 778 420 800 446 800 c 0
 472 800 494 778 494 752 c 0
 494 726 472 704 446 704 c 0
 420 704 398 726 398 752 c 0
209 752 m 0
 209 778 231 800 257 800 c 0
 283 800 305 778 305 752 c 0
 305 726 283 704 257 704 c 0
 231 704 209 726 209 752 c 0
355 614 m 0
 259 614 155 537 155 327 c 0
 155 135 269 34 389 34 c 0
 503 34 586 131 586 310 c 0
 586 518 496 614 355 614 c 0
689 329 m 0
 689 129 560 -10 369 -10 c 0
 197 -10 52 113 52 310 c 0
 52 506 189 658 368 658 c 0
 548 658 689 527 689 329 c 0
EndSplineSet
LCarets2: 1 0 
Colour: ff00ff
EndChar

StartChar: uni04E7
Encoding: 1255 1255 121
Width: 500
VWidth: 999
Flags: HW
HStem: -10 40<195.326 314.337> 399 40<184.058 317.876> 527 95<132.016 209.984 301.016 378.984>
VStem: 38 88<109.697 316.694> 124 94<534.394 614.312> 293 94<534.394 614.312> 374 88<108.595 325.77>
LayerCount: 2
Fore
SplineSet
38 205 m 0
 38 347 123 439 254 439 c 0
 389 439 462 350 462 214 c 0
 462 83 382 -10 250 -10 c 0
 117 -10 38 85 38 205 c 0
247 399 m 0
 153 399 126 309 126 222 c 0
 126 145 153 30 259 30 c 0
 326 30 374 100.9 374 196 c 0
 374 317 353 399 247 399 c 0
124 574 m 0
 124 600 145 622 171 622 c 0
 197 622 218 600 218 574 c 0
 218 548 197 527 171 527 c 0
 145 527 124 548 124 574 c 0
293 574 m 0
 293 600 314 622 340 622 c 0
 366 622 387 600 387 574 c 0
 387 548 366 527 340 527 c 0
 314 527 293 548 293 574 c 0
EndSplineSet
LCarets2: 1 0 
Colour: ff00ff
EndChar

StartChar: uni04E8
Encoding: 1256 1256 122
Width: 741
VWidth: 999
Flags: HW
HStem: -10 44<297.518 470.882> 266 57<387.324 534.392> 312 58<177.336 340.102> 614 44<271.342 456.336>
VStem: 52 103<199.871 439.073> 100 15<267.333 271.234> 586 103<198.639 454.348>
LayerCount: 2
Fore
SplineSet
689 329 m 0
 689 129 560 -10 369 -10 c 0
 197 -10 52 113 52 310 c 0
 52 506 189 658 368 658 c 0
 548 658 689 527 689 329 c 0
585.8 326 m 1
 542 279.4 486.9 266 446 266 c 0
 354 266 330 312 255 312 c 0
 230.5 312 189.3 308.5 156.2 293.9 c 1
 168.5 123.4 276.1 34 389 34 c 0
 503 34 586 131 586 310 c 0
 586 315.4 585.9 320.7 585.8 326 c 1
583.6 366 m 1
 568.5 535.3 482.7 614 355 614 c 0
 260.7 614 158.7 539.7 155.1 338.1 c 1
 193.1 359.9 241.6 370 273 370 c 0
 371 370 401 323 464 323 c 0
 498.8 323 551.2 338.1 583.6 366 c 1
EndSplineSet
Colour: ff00ff
EndChar

StartChar: uni04E9
Encoding: 1257 1257 123
Width: 500
VWidth: 999
Flags: HMW
HStem: -12 36<202 328> 179 49<204 349> 207 42<118 238> 409 33<183 304>
VStem: 44 79<124 320> 377 79<113 318>
AnchorPoint: "unten_punkt" 246 -107 basechar 0
AnchorPoint: "top_punkt" 245 550 basechar 0
AnchorPoint: "top_akzent" 236 645 basechar 0
LayerCount: 2
Fore
SplineSet
38 205 m 0
 38 347 123 439 254 439 c 0
 389 439 462 350 462 214 c 0
 462 83 382 -10 250 -10 c 0
 117 -10 38 85 38 205 c 0
373.8 214.9 m 1
 352.2 201.1 311.1 179 274 179 c 0
 231 179 197 207 162 207 c 0
 154.3 207 138.6 204.1 126.6 202 c 1
 131.1 126.6 161.8 30 259 30 c 0
 326 30 374 100.9 374 196 c 0
 374 202.4 373.9 208.7 373.8 214.9 c 1
372.7 242.1 m 1
 366.9 337.4 338.9 399 247 399 c 0
 156.1 399 127.8 314.8 126.1 230.5 c 1
 149.2 240.5 185.7 249 213 249 c 0
 258 249 280 229 318 229 c 0
 338 229 358 235.6 372.7 242.1 c 1
EndSplineSet
Colour: ff80cc
EndChar

StartChar: uni04EA
Encoding: 1258 1258 124
Width: 741
VWidth: 999
Flags: HW
HStem: -10 44<297.518 470.882> 266 57<387.324 534.392> 312 58<177.336 340.102> 614 44<271.342 456.336> 706 96<234.332 313.668 423.332 502.668>
VStem: 52 103<199.871 439.073> 100 15<267.333 271.234> 226 96<714.332 793.668> 415 96<714.332 793.668> 586 103<198.639 454.348>
LayerCount: 2
Fore
SplineSet
415 754 m 0
 415 780 437 802 463 802 c 0
 489 802 511 780 511 754 c 0
 511 728 489 706 463 706 c 0
 437 706 415 728 415 754 c 0
226 754 m 0
 226 780 248 802 274 802 c 0
 300 802 322 780 322 754 c 0
 322 728 300 706 274 706 c 0
 248 706 226 728 226 754 c 0
689 329 m 0
 689 129 560 -10 369 -10 c 0
 197 -10 52 113 52 310 c 0
 52 506 189 658 368 658 c 0
 548 658 689 527 689 329 c 0
585.8 326 m 1
 542 279.4 486.9 266 446 266 c 0
 354 266 330 312 255 312 c 0
 230.5 312 189.3 308.5 156.2 293.9 c 1
 168.5 123.4 276.1 34 389 34 c 0
 503 34 586 131 586 310 c 0
 586 315.4 585.9 320.7 585.8 326 c 1
583.6 366 m 1
 568.5 535.3 482.7 614 355 614 c 0
 260.7 614 158.7 539.7 155.1 338.1 c 1
 193.1 359.9 241.6 370 273 370 c 0
 371 370 401 323 464 323 c 0
 498.8 323 551.2 338.1 583.6 366 c 1
EndSplineSet
LCarets2: 1 0 
Colour: ff00ff
EndChar

StartChar: uni04EB
Encoding: 1259 1259 125
Width: 500
VWidth: 999
Flags: HW
HStem: -12 36<202 328> 179 49<204 349> 207 42<118 238> 409 33<183 304> 525 95<134.016 211.984 303.016 380.984>
VStem: 44 79<124 320> 126 94<532.394 612.312> 295 94<532.394 612.312> 377 79<113 318>
LayerCount: 2
Fore
SplineSet
38 205 m 0
 38 347 123 439 254 439 c 0
 389 439 462 350 462 214 c 0
 462 83 382 -10 250 -10 c 0
 117 -10 38 85 38 205 c 0
126 572 m 0
 126 598 147 620 173 620 c 0
 199 620 220 598 220 572 c 0
 220 546 199 525 173 525 c 0
 147 525 126 546 126 572 c 0
295 572 m 0
 295 598 316 620 342 620 c 0
 368 620 389 598 389 572 c 0
 389 546 368 525 342 525 c 0
 316 525 295 546 295 572 c 0
373.8 214.9 m 1
 352.2 201.1 311.1 179 274 179 c 0
 231 179 197 207 162 207 c 0
 154.3 207 138.6 204.1 126.6 202 c 1
 131.1 126.6 161.8 30 259 30 c 0
 326 30 374 100.9 374 196 c 0
 374 202.4 373.9 208.7 373.8 214.9 c 1
372.7 242.1 m 1
 366.9 337.4 338.9 399 247 399 c 0
 156.1 399 127.8 314.8 126.1 230.5 c 1
 149.2 240.5 185.7 249 213 249 c 0
 258 249 280 229 318 229 c 0
 338 229 358 235.6 372.7 242.1 c 1
EndSplineSet
LCarets2: 1 0 
Colour: ff00ff
EndChar

StartChar: uni04EF
Encoding: 1263 1263 126
Width: 506
VWidth: 999
Flags: HW
HStem: -237 21<109 126.595 183 207> 412 20<35 47.8975 122.5 147.705 377.981 401 461.5 473> 538 44<121.088 399.515>
VStem: 120 281<538.205 582>
LayerCount: 2
Fore
SplineSet
28 432 m 1
 42 429 67 429 80 429 c 0
 94 429 116 429 129 432 c 1
 166.4 317.8 213.5 206.5 262.7 87.6 c 1
 264.7 87.6 l 1
 313.3 191.2 360 319 396 432 c 1
 406 429 425 429 435 429 c 0
 445 429 468 429 478 432 c 1
 445 365 226 -112 188 -237 c 1
 178 -234 149 -232 139 -232 c 0
 129 -232 114 -234 104 -237 c 1
 149.2 -161.7 190 -84.7 222 -10 c 1
 186.6 85.1 67.8 343.2 28 432 c 1
377 538 m 2
 133 538 l 2
 124 538 120 546 120 553 c 0
 120 565 131 582 142 582 c 2
 387 582 l 2
 397 582 401 574 401 568 c 0
 401 556 390 538 377 538 c 2
EndSplineSet
LCarets2: 1 0 
Colour: ff00ff
EndChar

StartChar: uni04F1
Encoding: 1265 1265 127
Width: 506
VWidth: 999
Flags: HW
HStem: -237 21<109 126.595 183 207> 412 20<35 47.8975 122.5 147.705 377.981 401 461.5 473> 527 95<149.016 226.984 318.016 395.984>
VStem: 141 94<534.394 614.312> 310 94<534.394 614.312>
LayerCount: 2
Fore
SplineSet
28 432 m 1
 42 429 67 429 80 429 c 0
 94 429 116 429 129 432 c 1
 166.4 317.8 213.5 206.5 262.7 87.6 c 1
 264.7 87.6 l 1
 313.3 191.2 360 319 396 432 c 1
 406 429 425 429 435 429 c 0
 445 429 468 429 478 432 c 1
 445 365 226 -112 188 -237 c 1
 178 -234 149 -232 139 -232 c 0
 129 -232 114 -234 104 -237 c 1
 149.2 -161.7 190 -84.7 222 -10 c 1
 186.6 85.1 67.8 343.2 28 432 c 1
141 574 m 0
 141 600 162 622 188 622 c 0
 214 622 235 600 235 574 c 0
 235 548 214 527 188 527 c 0
 162 527 141 548 141 574 c 0
310 574 m 0
 310 600 331 622 357 622 c 0
 383 622 404 600 404 574 c 0
 404 548 383 527 357 527 c 0
 331 527 310 548 310 574 c 0
EndSplineSet
LCarets2: 1 0 
Colour: ff00ff
EndChar

StartChar: uni04F3
Encoding: 1267 1267 128
Width: 506
VWidth: 999
Flags: HW
HStem: -237 21<109 126.595 183 207> 412 20<35 47.8975 122.5 147.705 377.981 401 461.5 473>
LayerCount: 2
Fore
SplineSet
28 432 m 1
 42 429 67 429 80 429 c 0
 94 429 116 429 129 432 c 1
 166.4 317.8 213.5 206.5 262.7 87.6 c 1
 264.7 87.6 l 1
 313.3 191.2 360 319 396 432 c 1
 406 429 425 429 435 429 c 0
 445 429 468 429 478 432 c 1
 445 365 226 -112 188 -237 c 1
 178 -234 149 -232 139 -232 c 0
 129 -232 114 -234 104 -237 c 1
 149.2 -161.7 190 -84.7 222 -10 c 1
 186.6 85.1 67.8 343.2 28 432 c 1
454 615 m 0
 454 609 453 602 447 596 c 2
 333 486 l 2
 331 484 329 484 327 484 c 0
 322 484 313 489 313 497 c 0
 313 498 313 500 314 501 c 2
 392 640 l 2
 397 649 404 652 416 652 c 0
 437 652 454 633.6 454 615 c 0
322 621 m 0
 322 616 321 610 317 605 c 2
 215 484 l 2
 213 482 210 481 207 481 c 0
 201 481 193 486 193 494 c 0
 193 495 193 496 194 497 c 2
 258 643 l 2
 264 656 280 657 284 657 c 0
 304.9 657 322 641.5 322 621 c 0
EndSplineSet
LCarets2: 1 0 
Colour: ff00ff
EndChar

StartChar: uni1E00
Encoding: 7680 7680 129
Width: 629
VWidth: 999
Flags: HW
HStem: -215 27<276.321 340.091> -76 27<274.895 340.898> -3 21<22 66.5 90 104.177 499.931 511.5 588 604.5> 231 42<198.642 407.322> 638 20<263 385>
VStem: 221 37<-175.131 -88.56> 358 37<-174.909 -88.184>
DStem2: 16 -3 178.974 228.261 0.407548 0.913184<57.2509 287.455 329.137 596.593> 339 658 306.032 521.764 0.382928 -0.923778<113.228 379.463>
LayerCount: 2
Fore
SplineSet
308 -76 m 0
 277 -76 258 -102 258 -132 c 0
 258 -160 277 -188 308 -188 c 0
 339 -188 358 -160 358 -132 c 0
 358 -101 338 -76 308 -76 c 0
221 -132 m 0
 221 -86 262 -49 308 -49 c 0
 354 -49 395 -85 395 -132 c 0
 395 -177 356 -215 308 -215 c 0
 262 -215 221 -178 221 -132 c 0
407.3 275.5 m 1
 380.4 345.2 347.1 427.4 306 521.8 c 1
 304 521.8 l 1
 198.6 275.9 l 1
 220.6 274.7 274.1 273 303 273 c 0
 332.7 273 374.3 274 407.3 275.5 c 1
179 228.3 m 1
 143.3 140.8 112.4 58.3 96 -3 c 1
 84 0 62 0 51 0 c 0
 40 0 28 0 16 -3 c 1
 117 218 215 436 311 658 c 1
 339 658 l 1
 431 439 563 98 613 -3 c 1
 596 0 570 0 553 0 c 0
 536 0 520 0 503 -3 c 1
 496.9 19.2 474.3 97.2 425.3 228.3 c 1
 401 230 346 231 308 231 c 0
 273.5 231 204 230 179 228.3 c 1
EndSplineSet
LCarets2: 1 0 
Colour: ff00ff
EndChar

StartChar: uni1E01
Encoding: 7681 7681 130
Width: 481
VWidth: 999
Flags: HW
HStem: -216 27<192.321 256.091> -77 27<190.895 256.898> -10 51<143.58 256.585 377.751 457.24> 394 45<157.262 280.562>
VStem: 45 81<59.6871 162.517> 137 37<-176.131 -89.56> 274 37<-175.909 -89.184> 311 79<78.8114 225 264.049 362.994>
DStem2: 211 243 225 202 0.975441 0.220261<-76.3759 92.604>
LayerCount: 2
Fore
SplineSet
224 -77 m 0
 193 -77 174 -103 174 -133 c 0
 174 -161 193 -189 224 -189 c 0
 255 -189 274 -161 274 -133 c 0
 274 -102 254 -77 224 -77 c 0
137 -133 m 0
 137 -87 178 -50 224 -50 c 0
 270 -50 311 -86 311 -133 c 0
 311 -178 272 -216 224 -216 c 0
 178 -216 137 -179 137 -133 c 0
310 225 m 1
 225 202 l 2
 147 181 126 147 126 102 c 0
 126 71 155 41 200 41 c 0
 230 41 264 59 292 80 c 0
 300 86 306 93 306 106 c 2
 310 225 l 1
310.1 48 m 1
 306 48 l 1
 253 3 225 -10 170 -10 c 0
 96 -10 45 24 45 98 c 0
 45 166 109 220 211 243 c 2
 304 264 l 2
 307 265 311 269 311 276 c 0
 311 389 251 394 215 394 c 0
 167 394 133 354 105 309 c 1
 92 310 l 1
 75 377 l 1
 78 381 l 1
 103 402 149 439 225 439 c 0
 301 439 390 412 390 277 c 0
 390 266 387.2 155 387.2 126 c 0
 387.2 81.5 393.7 57.3 403.9 48 c 0
 410 42.4 423.3 40.5 433.2 40.5 c 0
 440.8 40.5 449.3 41.9 460.2 45.7 c 1
 467.6 21 l 1
 444 -4 413.2 -10 388 -10 c 0
 351.4 -10 321.5 8.9 310.1 48 c 1
EndSplineSet
LCarets2: 1 0 
Colour: ff00ff
EndChar

StartChar: uni1E02
Encoding: 7682 7682 131
Width: 616
VWidth: 999
Flags: HW
HStem: -3 43<174.577 403.148> 328 43<190 363.242> 605 43<172.065 358.947> 729 104<234.542 317.458>
VStem: 104 86<52.3754 328 371 597.325> 224 104<739.542 822.458> 408 87<424.724 559.411> 455 99<94.8914 252.437>
LayerCount: 2
Fore
SplineSet
190 559 m 2
 190 371 l 1
 268 371 l 2
 351 371 408 396 408 481 c 0
 408 583 337 605 281 605 c 0
 200 605 190 592.3 190 559 c 2
190 328 m 1
 190 88 l 2
 190 55 217 40 287 40 c 0
 431.2 40 455 95.9 455 165 c 0
 455 255 400 328 283 328 c 2
 190 328 l 1
147 645 m 0
 197 645 239 648 274 648 c 0
 460 648 495 560 495 493 c 0
 495 438 453 385 402 360 c 1
 489 335 554 280 554 184 c 0
 554 98 505 -3 306 -3 c 0
 217 -3 209 0 147 0 c 0
 112 0 95 -3 95 -3 c 1
 94 0 l 1
 102 54 104 125 104 200 c 2
 104 445 l 2
 104 520 102 588 94 645 c 1
 96 648 l 1
 96 648 113 645 147 645 c 0
224 781 m 0
 224 809 248 833 276 833 c 0
 304 833 328 809 328 781 c 0
 328 753 304 729 276 729 c 0
 248 729 224 753 224 781 c 0
EndSplineSet
LCarets2: 1 0 
Colour: ff00ff
EndChar

StartChar: uni1E03
Encoding: 7683 7683 132
Width: 504
VWidth: 999
Flags: HW
HStem: -10 40<196.823 319.151> 399 40<205.929 326.332> 546 102<263.735 346.265> 678 20<146.465 162.167>
VStem: 77 61<4.06622 39> 82 80<59.4722 360.298 389 672.977> 254 102<555.735 638.265> 382 89<116.35 330.17>
LayerCount: 2
Fore
SplineSet
254 597 m 0
 254 624 278 648 305 648 c 0
 332 648 356 624 356 597 c 0
 356 570 332 546 305 546 c 0
 278 546 254 570 254 597 c 0
162 81 m 1
 182 56 219 30 250 30 c 0
 345 30 382 100 382 224 c 0
 382 348.7 328.1 399 267 399 c 0
 226 399 201 380 162 340 c 1
 162 81 l 1
162 500 m 2
 162 389 l 1
 196 426 239 439 287 439 c 0
 384 439 471 354 471 232 c 0
 471 62 358 -10 256 -10 c 0
 213 -10 167 14 138 39 c 1
 127.5 19 116 2 105 -10 c 1
 94.5 -10 83 -8 77 -2 c 1
 81.2 19.8 82 34 82 73 c 2
 82 482 l 2
 82 558 77.7 632.3 70 675 c 1
 72 678 l 1
 112.5 681 133.9 688 159 698 c 1
 165.3 698 168 695 168 688 c 0
 163.3 626.7 162 574 162 500 c 2
EndSplineSet
LCarets2: 1 0 
Colour: ff00ff
EndChar

StartChar: uni1E04
Encoding: 7684 7684 133
Width: 616
VWidth: 999
Flags: HW
HStem: -209 102<228.735 311.265> -3 43<174.577 403.148> 328 43<190 363.242> 605 43<172.065 358.947>
VStem: 104 86<52.3754 328 371 597.325> 219 102<-199.265 -116.735> 408 87<424.724 559.411> 455 99<94.8914 252.437>
LayerCount: 2
Fore
SplineSet
219 -158 m 0
 219 -131 243 -107 270 -107 c 0
 297 -107 321 -131 321 -158 c 0
 321 -185 297 -209 270 -209 c 0
 243 -209 219 -185 219 -158 c 0
190 559 m 2
 190 371 l 1
 268 371 l 2
 351 371 408 396 408 481 c 0
 408 583 337 605 281 605 c 0
 200 605 190 592.3 190 559 c 2
190 328 m 1
 190 88 l 2
 190 55 217 40 287 40 c 0
 431.2 40 455 95.9 455 165 c 0
 455 255 400 328 283 328 c 2
 190 328 l 1
147 645 m 0
 197 645 239 648 274 648 c 0
 460 648 495 560 495 493 c 0
 495 438 453 385 402 360 c 1
 489 335 554 280 554 184 c 0
 554 98 505 -3 306 -3 c 0
 217 -3 209 0 147 0 c 0
 112 0 95 -3 95 -3 c 1
 94 0 l 1
 102 54 104 125 104 200 c 2
 104 445 l 2
 104 520 102 588 94 645 c 1
 96 648 l 1
 96 648 113 645 147 645 c 0
EndSplineSet
LCarets2: 1 0 
Colour: ff00ff
EndChar

StartChar: uni1E05
Encoding: 7685 7685 134
Width: 504
VWidth: 999
Flags: HW
HStem: -209 102<183.735 266.265> -10 40<196.823 319.151> 399 40<205.929 326.332> 678 20<146.465 162.167>
VStem: 77 61<4.06622 39> 82 80<59.4722 360.298 389 672.977> 174 102<-199.265 -116.735> 382 89<116.35 330.17>
LayerCount: 2
Fore
SplineSet
174 -158 m 0
 174 -131 198 -107 225 -107 c 0
 252 -107 276 -131 276 -158 c 0
 276 -185 252 -209 225 -209 c 0
 198 -209 174 -185 174 -158 c 0
162 81 m 1
 182 56 219 30 250 30 c 0
 345 30 382 100 382 224 c 0
 382 348.7 328.1 399 267 399 c 0
 226 399 201 380 162 340 c 1
 162 81 l 1
162 500 m 2
 162 389 l 1
 196 426 239 439 287 439 c 0
 384 439 471 354 471 232 c 0
 471 62 358 -10 256 -10 c 0
 213 -10 167 14 138 39 c 1
 127.5 19 116 2 105 -10 c 1
 94.5 -10 83 -8 77 -2 c 1
 81.2 19.8 82 34 82 73 c 2
 82 482 l 2
 82 558 77.7 632.3 70 675 c 1
 72 678 l 1
 112.5 681 133.9 688 159 698 c 1
 165.3 698 168 695 168 688 c 0
 163.3 626.7 162 574 162 500 c 2
EndSplineSet
LCarets2: 1 0 
Colour: ff00ff
EndChar

StartChar: uni1E06
Encoding: 7686 7686 135
Width: 616
VWidth: 999
Flags: HW
HStem: -106 44<137 148 148 415> -3 43<174.577 403.148> 328 43<190 363.242> 605 43<172.065 358.947>
VStem: 104 86<52.3754 328 371 597.325> 408 87<424.724 559.411> 455 99<94.8914 252.437>
LayerCount: 2
Fore
SplineSet
393 -106 m 2
 148 -106 l 2
 140 -106 136 -98 136 -91 c 0
 136 -79 146 -62 158 -62 c 2
 403 -62 l 2
 412 -62 416 -69 416 -76 c 0
 416 -88 406 -106 393 -106 c 2
190 559 m 2
 190 371 l 1
 268 371 l 2
 351 371 408 396 408 481 c 0
 408 583 337 605 281 605 c 0
 200 605 190 592.3 190 559 c 2
190 328 m 1
 190 88 l 2
 190 55 217 40 287 40 c 0
 431.2 40 455 95.9 455 165 c 0
 455 255 400 328 283 328 c 2
 190 328 l 1
147 645 m 0
 197 645 239 648 274 648 c 0
 460 648 495 560 495 493 c 0
 495 438 453 385 402 360 c 1
 489 335 554 280 554 184 c 0
 554 98 505 -3 306 -3 c 0
 217 -3 209 0 147 0 c 0
 112 0 95 -3 95 -3 c 1
 94 0 l 1
 102 54 104 125 104 200 c 2
 104 445 l 2
 104 520 102 588 94 645 c 1
 96 648 l 1
 96 648 113 645 147 645 c 0
EndSplineSet
LCarets2: 1 0 
Colour: ff00ff
EndChar

StartChar: uni1E07
Encoding: 7687 7687 136
Width: 504
VWidth: 999
Flags: HW
HStem: -110 44<107 118 118 385> -10 40<196.823 319.151> 399 40<205.929 326.332> 678 20<146.465 162.167>
VStem: 77 61<4.06622 39> 82 80<59.4722 360.298 389 672.977> 382 89<116.35 330.17>
LayerCount: 2
Fore
SplineSet
363 -110 m 2
 118 -110 l 2
 110 -110 106 -102 106 -95 c 0
 106 -83 116 -66 128 -66 c 2
 373 -66 l 2
 382 -66 386 -73 386 -80 c 0
 386 -92 376 -110 363 -110 c 2
162 81 m 1
 182 56 219 30 250 30 c 0
 345 30 382 100 382 224 c 0
 382 348.7 328.1 399 267 399 c 0
 226 399 201 380 162 340 c 1
 162 81 l 1
162 500 m 2
 162 389 l 1
 196 426 239 439 287 439 c 0
 384 439 471 354 471 232 c 0
 471 62 358 -10 256 -10 c 0
 213 -10 167 14 138 39 c 1
 127.5 19 116 2 105 -10 c 1
 94.5 -10 83 -8 77 -2 c 1
 81.2 19.8 82 34 82 73 c 2
 82 482 l 2
 82 558 77.7 632.3 70 675 c 1
 72 678 l 1
 112.5 681 133.9 688 159 698 c 1
 165.3 698 168 695 168 688 c 0
 163.3 626.7 162 574 162 500 c 2
EndSplineSet
LCarets2: 1 0 
Colour: ff00ff
EndChar

StartChar: uni1E08
Encoding: 7688 7688 137
Width: 677
VWidth: 999
Flags: HW
HStem: -204 29<290.047 390.231> -100 32<365.31 395.355> -10 51<292.131 490.773> 611 47<286.061 471.755> 698 122
VStem: 52 103<211.392 435.455> 288 201 400 62<-169.259 -101.456>
DStem2: 316 -100 365 -71 0.384615 0.923077<45.6154 104>
LayerCount: 2
Fore
SplineSet
427 820 m 1
 455.6 806.7 476.3 789.3 489 768 c 1
 345 710 l 2
 324 701 312 698 303 698 c 0
 294 698 288 705 288 713 c 0
 288 720 290 725 303 734 c 2
 427 820 l 1
367 -100 m 0
 348 -100 338 -101 322 -106 c 1
 316 -100 l 1
 353.6 -9.8 l 1
 147.2 -4 52 145.4 52 315 c 0
 52 512 211 658 380 658 c 0
 502 658 598 608 598 608 c 1
 600 605 l 1
 589 562.5 585.6 545 582 494 c 1
 570 493 l 1
 529 575 456 611 366 611 c 0
 284 611 155 537 155 334 c 0
 155 178 248.2 41 375 41 c 0
 468 41 528 67 599 145 c 1
 606 142 l 1
 609.5 133 611.5 111 612.1 99.5 c 1
 550.6 25.1 472.1 -5.1 388 -9.4 c 1
 365 -71 l 1
 373 -69 382 -68 391 -68 c 0
 431 -68 462 -92 462 -130 c 0
 462 -173 416 -204 355 -204 c 0
 323 -204 306 -198 281 -187 c 1
 281 -175 284 -168 291 -161 c 1
 318 -171 329 -175 349 -175 c 0
 379 -175 400 -161 400 -135 c 0
 400 -114 390 -100 367 -100 c 0
EndSplineSet
LCarets2: 1 0 
Colour: ff00ff
EndChar

StartChar: uni1E09
Encoding: 7689 7689 138
Width: 429
VWidth: 999
Flags: HW
HStem: -198 29<156.047 256.231> -94 32<231.31 261.355> -10 50<190.47 329.737> 399 40<192.359 303.419>
VStem: 38 88<116.087 315.617> 266 62<-163.259 -95.4563>
DStem2: 182 -94 231 -65 0.384615 0.923077<45.6154 104>
LayerCount: 2
Fore
SplineSet
300 671 m 1
 303 672 309 673 314 673 c 0
 320.4 673 346 672 369 650 c 1
 372 639 l 1
 257 530 l 2
 242 515 234 511 227 511 c 0
 220 511 213 517 213 524 c 0
 213 535.2 216.3 539.2 224.4 552 c 2
 300 671 l 1
233 -94 m 0
 214 -94 204 -95 188 -100 c 1
 182 -94 l 1
 217.4 -9 l 1
 107.8 0.9 38 87.3 38 218 c 0
 38 354 147 439 251 439 c 0
 301 439 353 427 384 411 c 1
 386 408 l 1
 363 326 l 1
 350 325 l 1
 323.5 370.5 288.5 399 250 399 c 0
 184 399 126 333 126 223 c 0
 126 106 183 40 256 40 c 0
 293.2 40 325 48 363 82 c 1
 367 82 l 1
 386 61 l 1
 348.9 13.6 305.6 -7 251.6 -9.7 c 1
 231 -65 l 1
 239 -63 248 -62 257 -62 c 0
 297 -62 328 -86 328 -124 c 0
 328 -167 282 -198 221 -198 c 0
 189 -198 172 -192 147 -181 c 1
 147 -169 150 -162 157 -155 c 1
 184 -165 195 -169 215 -169 c 0
 245 -169 266 -155 266 -129 c 0
 266 -108 256 -94 233 -94 c 0
EndSplineSet
LCarets2: 1 0 
Colour: ff00ff
EndChar

StartChar: uni1E0A
Encoding: 7690 7690 139
Width: 710
VWidth: 999
Flags: HW
HStem: -2 44<171.537 435.266> 604 44<172.393 392.698> 729 104<254.542 337.458>
VStem: 104 86<49.3073 594.385> 244 104<739.542 822.458> 555 103<179.784 425.325>
LayerCount: 2
Fore
SplineSet
244 781 m 0
 244 809 268 833 296 833 c 0
 324 833 348 809 348 781 c 0
 348 753 324 729 296 729 c 0
 268 729 244 753 244 781 c 0
190 82 m 2
 190 50 201 42 299 42 c 0
 440 42 555 82 555 284 c 0
 555 438 490 604 274 604 c 0
 225 604 190 599 190 564 c 2
 190 82 l 2
147 645 m 0
 211 645 248 648 312 648 c 0
 504 648 658 494 658 308 c 0
 658 62 471 -2 330 -2 c 0
 227 -2 218 0 147 0 c 0
 112 0 95 -3 95 -3 c 1
 94 0 l 1
 102 54 104 125 104 200 c 2
 104 445 l 2
 104 520 102 588 94 645 c 1
 96 648 l 1
 96 648 113 645 147 645 c 0
EndSplineSet
LCarets2: 1 0 
Colour: ff00ff
EndChar

StartChar: uni1E0B
Encoding: 7691 7691 140
Width: 530
VWidth: 999
Flags: HW
HStem: -10 52<186.632 307.002> -3 21<374 383.667 449.5 458> 399 40<202.018 328.515> 546 102<190.735 273.265> 678 20<428.466 444.167>
VStem: 51 87<104.723 316.169> 181 102<555.735 638.265> 361 80<90.2803 370.032 417 672.977>
LayerCount: 2
Fore
SplineSet
181 597 m 0
 181 624 205 648 232 648 c 0
 259 648 283 624 283 597 c 0
 283 570 259 546 232 546 c 0
 205 546 181 570 181 597 c 0
361 113 m 1
 361 341 l 1
 337 379 313 399 266 399 c 0
 217.6 399 138 371 138 221 c 0
 138 96 184 42 238 42 c 0
 278.5 42 324.5 66.5 361 113 c 1
361 58 m 1
 325 11.5 280 -10 232 -10 c 0
 124 -10 51 90 51 213 c 0
 51 349 146.8 439 277 439 c 0
 297 439 338 430 361 417 c 1
 361 482 l 2
 361 558 359.7 632.3 352 675 c 1
 354 678 l 1
 394.5 681 415.9 688 441 698 c 1
 447.3 698 450 695 450 688 c 0
 445 626.3 441 574 441 500 c 2
 441 192 l 2
 441 117 450 43 458 0 c 1
 456 -3 l 1
 443 -1 424.1 0 411.5 0 c 0
 397 0 390.3 -1.3 377 -3 c 0
 371 -3 368 -2 368 0 c 2
 363 58 l 1
 361 58 l 1
EndSplineSet
LCarets2: 1 0 
Colour: ff00ff
EndChar

StartChar: uni1E0C
Encoding: 7692 7692 141
Width: 710
VWidth: 999
Flags: HW
HStem: -209 102<248.735 331.265> -2 44<171.537 435.266> 604 44<172.393 392.698>
VStem: 104 86<49.3073 594.385> 239 102<-199.265 -116.735> 555 103<179.784 425.325>
LayerCount: 2
Fore
SplineSet
239 -158 m 0
 239 -131 263 -107 290 -107 c 0
 317 -107 341 -131 341 -158 c 0
 341 -185 317 -209 290 -209 c 0
 263 -209 239 -185 239 -158 c 0
190 82 m 2
 190 50 201 42 299 42 c 0
 440 42 555 82 555 284 c 0
 555 438 490 604 274 604 c 0
 225 604 190 599 190 564 c 2
 190 82 l 2
147 645 m 0
 211 645 248 648 312 648 c 0
 504 648 658 494 658 308 c 0
 658 62 471 -2 330 -2 c 0
 227 -2 218 0 147 0 c 0
 112 0 95 -3 95 -3 c 1
 94 0 l 1
 102 54 104 125 104 200 c 2
 104 445 l 2
 104 520 102 588 94 645 c 1
 96 648 l 1
 96 648 113 645 147 645 c 0
EndSplineSet
LCarets2: 1 0 
Colour: ff00ff
EndChar

StartChar: uni1E0D
Encoding: 7693 7693 142
Width: 530
VWidth: 999
Flags: HW
HStem: -209 102<244.735 327.265> -10 52<186.632 307.002> -3 21<374 383.667 449.5 458> 399 40<202.018 328.515> 678 20<428.466 444.167>
VStem: 51 87<104.723 316.169> 235 102<-199.265 -116.735> 361 80<90.2803 370.032 417 672.977>
LayerCount: 2
Fore
SplineSet
235 -158 m 0
 235 -131 259 -107 286 -107 c 0
 313 -107 337 -131 337 -158 c 0
 337 -185 313 -209 286 -209 c 0
 259 -209 235 -185 235 -158 c 0
361 113 m 1
 361 341 l 1
 337 379 313 399 266 399 c 0
 217.6 399 138 371 138 221 c 0
 138 96 184 42 238 42 c 0
 278.5 42 324.5 66.5 361 113 c 1
361 58 m 1
 325 11.5 280 -10 232 -10 c 0
 124 -10 51 90 51 213 c 0
 51 349 146.8 439 277 439 c 0
 297 439 338 430 361 417 c 1
 361 482 l 2
 361 558 359.7 632.3 352 675 c 1
 354 678 l 1
 394.5 681 415.9 688 441 698 c 1
 447.3 698 450 695 450 688 c 0
 445 626.3 441 574 441 500 c 2
 441 192 l 2
 441 117 450 43 458 0 c 1
 456 -3 l 1
 443 -1 424.1 0 411.5 0 c 0
 397 0 390.3 -1.3 377 -3 c 0
 371 -3 368 -2 368 0 c 2
 363 58 l 1
 361 58 l 1
EndSplineSet
LCarets2: 1 0 
Colour: ff00ff
EndChar

StartChar: uni1E0E
Encoding: 7694 7694 143
Width: 710
VWidth: 999
Flags: HW
HStem: -105 44<144 155 155 422> -2 44<171.537 435.266> 604 44<172.393 392.698>
VStem: 104 86<49.3073 594.385> 555 103<179.784 425.325>
LayerCount: 2
Fore
SplineSet
400 -105 m 2
 155 -105 l 2
 147 -105 143 -97 143 -90 c 0
 143 -78 153 -61 165 -61 c 2
 410 -61 l 2
 419 -61 423 -68 423 -75 c 0
 423 -87 413 -105 400 -105 c 2
190 82 m 2
 190 50 201 42 299 42 c 0
 440 42 555 82 555 284 c 0
 555 438 490 604 274 604 c 0
 225 604 190 599 190 564 c 2
 190 82 l 2
147 645 m 0
 211 645 248 648 312 648 c 0
 504 648 658 494 658 308 c 0
 658 62 471 -2 330 -2 c 0
 227 -2 218 0 147 0 c 0
 112 0 95 -3 95 -3 c 1
 94 0 l 1
 102 54 104 125 104 200 c 2
 104 445 l 2
 104 520 102 588 94 645 c 1
 96 648 l 1
 96 648 113 645 147 645 c 0
EndSplineSet
LCarets2: 1 0 
Colour: ff00ff
EndChar

StartChar: uni1E0F
Encoding: 7695 7695 144
Width: 530
VWidth: 999
Flags: HW
HStem: -109 44<146 157 157 424> -10 52<186.632 307.002> -3 21<374 383.667 449.5 458> 399 40<202.018 328.515> 678 20<428.466 444.167>
VStem: 51 87<104.723 316.169> 361 80<90.2803 370.032 417 672.977>
LayerCount: 2
Fore
SplineSet
402 -109 m 2
 157 -109 l 2
 149 -109 145 -101 145 -94 c 0
 145 -82 155 -65 167 -65 c 2
 412 -65 l 2
 421 -65 425 -72 425 -79 c 0
 425 -91 415 -109 402 -109 c 2
361 113 m 1
 361 341 l 1
 337 379 313 399 266 399 c 0
 217.6 399 138 371 138 221 c 0
 138 96 184 42 238 42 c 0
 278.5 42 324.5 66.5 361 113 c 1
361 58 m 1
 325 11.5 280 -10 232 -10 c 0
 124 -10 51 90 51 213 c 0
 51 349 146.8 439 277 439 c 0
 297 439 338 430 361 417 c 1
 361 482 l 2
 361 558 359.7 632.3 352 675 c 1
 354 678 l 1
 394.5 681 415.9 688 441 698 c 1
 447.3 698 450 695 450 688 c 0
 445 626.3 441 574 441 500 c 2
 441 192 l 2
 441 117 450 43 458 0 c 1
 456 -3 l 1
 443 -1 424.1 0 411.5 0 c 0
 397 0 390.3 -1.3 377 -3 c 0
 371 -3 368 -2 368 0 c 2
 363 58 l 1
 361 58 l 1
EndSplineSet
LCarets2: 1 0 
Colour: ff00ff
EndChar

StartChar: uni1E10
Encoding: 7696 7696 145
Width: 710
VWidth: 999
Flags: HW
HStem: -226 24<271.315 301.976> -123 82<276.324 341.34> -2 34<15.9238 91.0861 203.681 417.647> 613 34<15.9238 91.0861 206.921 373.9>
VStem: 106 85<43.9064 600.097> 343 39<-177.408 -99.958> 562 96<179.249 422.825>
LayerCount: 2
Fore
SplineSet
190 82 m 2
 190 50 201 42 299 42 c 0
 440 42 555 82 555 284 c 0
 555 438 490 604 274 604 c 0
 225 604 190 599 190 564 c 2
 190 82 l 2
147 645 m 0
 211 645 248 648 312 648 c 0
 504 648 658 494 658 308 c 0
 658 62 471 -2 330 -2 c 0
 227 -2 218 0 147 0 c 0
 112 0 95 -3 95 -3 c 1
 94 0 l 1
 102 54 104 125 104 200 c 2
 104 445 l 2
 104 520 102 588 94 645 c 1
 96 648 l 1
 96 648 113 645 147 645 c 0
320 -41 m 0
 358 -41 382 -75 382 -127 c 0
 382 -187 333 -217 276 -226 c 1
 270 -220 268 -211 268 -202 c 1
 317 -191 343 -167 343 -149 c 0
 343 -129 330 -125 312 -123 c 1
 295 -120 270 -111 270 -84 c 0
 270 -60 291 -41 320 -41 c 0
EndSplineSet
LCarets2: 1 0 
Colour: ff00ff
EndChar

StartChar: uni1E11
Encoding: 7697 7697 146
Width: 530
VWidth: 999
Flags: HW
HStem: -10 47<182.748 279.881> 30 27<444.892 500.639> 404 35<187.076 307.036> 641 30<277.065 335.38> 678 20<402.5 419.5>
VStem: 39 86<108.084 310.695> 345 79<80.6055 373.206 422.001 635.885>
LayerCount: 2
Fore
SplineSet
361 113 m 1
 361 341 l 1
 337 379 313 399 266 399 c 0
 217.6 399 138 371 138 221 c 0
 138 96 184 42 238 42 c 0
 278.5 42 324.5 66.5 361 113 c 1
361 58 m 1
 325 11.5 280 -10 232 -10 c 0
 124 -10 51 90 51 213 c 0
 51 349 146.8 439 277 439 c 0
 297 439 338 430 361 417 c 1
 361 482 l 2
 361 558 359.7 632.3 352 675 c 1
 354 678 l 1
 394.5 681 415.9 688 441 698 c 1
 447.3 698 450 695 450 688 c 0
 445 626.3 441 574 441 500 c 2
 441 192 l 2
 441 117 450 43 458 0 c 1
 456 -3 l 1
 443 -1 424.1 0 411.5 0 c 0
 397 0 390.3 -1.3 377 -3 c 0
 371 -3 368 -2 368 0 c 2
 363 58 l 1
 361 58 l 1
230 -41 m 0
 268 -41 292 -75 292 -127 c 0
 292 -187 243 -217 186 -226 c 1
 180 -220 178 -211 178 -202 c 1
 227 -191 253 -167 253 -149 c 0
 253 -129 240 -125 222 -123 c 1
 205 -120 180 -111 180 -84 c 0
 180 -60 201 -41 230 -41 c 0
EndSplineSet
LCarets2: 1 0 
Colour: ff00ff
EndChar

StartChar: uni1E12
Encoding: 7698 7698 147
Width: 710
VWidth: 999
Flags: HW
HStem: -2 44<171.537 435.266> 604 44<172.393 392.698>
VStem: 104 86<49.3073 594.385> 140 253<-186 -186> 555 103<179.784 425.325>
LayerCount: 2
Fore
SplineSet
292 -57 m 1
 321 -104 357 -146 393 -186 c 1
 372 -200 l 1
 333 -171 300 -146 266 -110 c 1
 229 -148 197 -173 159 -200 c 1
 139 -186 l 1
 175 -146 213 -103 242 -57 c 1
 292 -57 l 1
190 82 m 2
 190 50 201 42 299 42 c 0
 440 42 555 82 555 284 c 0
 555 438 490 604 274 604 c 0
 225 604 190 599 190 564 c 2
 190 82 l 2
147 645 m 0
 211 645 248 648 312 648 c 0
 504 648 658 494 658 308 c 0
 658 62 471 -2 330 -2 c 0
 227 -2 218 0 147 0 c 0
 112 0 95 -3 95 -3 c 1
 94 0 l 1
 102 54 104 125 104 200 c 2
 104 445 l 2
 104 520 102 588 94 645 c 1
 96 648 l 1
 96 648 113 645 147 645 c 0
EndSplineSet
LCarets2: 1 0 
Colour: ff00ff
EndChar

StartChar: uni1E13
Encoding: 7699 7699 148
Width: 530
VWidth: 999
Flags: HW
HStem: -10 52<186.632 307.002> -3 21<374 383.667 449.5 458> 399 40<202.018 328.515> 678 20<428.466 444.167>
VStem: 51 87<104.723 316.169> 140 253<-186 -186> 361 80<90.2803 370.032 417 672.977>
LayerCount: 2
Fore
SplineSet
292 -57 m 1
 321 -104 357 -146 393 -186 c 1
 372 -200 l 1
 333 -171 300 -146 266 -110 c 1
 229 -148 197 -173 159 -200 c 1
 139 -186 l 1
 175 -146 213 -103 242 -57 c 1
 292 -57 l 1
361 113 m 1
 361 341 l 1
 337 379 313 399 266 399 c 0
 217.6 399 138 371 138 221 c 0
 138 96 184 42 238 42 c 0
 278.5 42 324.5 66.5 361 113 c 1
361 58 m 1
 325 11.5 280 -10 232 -10 c 0
 124 -10 51 90 51 213 c 0
 51 349 146.8 439 277 439 c 0
 297 439 338 430 361 417 c 1
 361 482 l 2
 361 558 359.7 632.3 352 675 c 1
 354 678 l 1
 394.5 681 415.9 688 441 698 c 1
 447.3 698 450 695 450 688 c 0
 445 626.3 441 574 441 500 c 2
 441 192 l 2
 441 117 450 43 458 0 c 1
 456 -3 l 1
 443 -1 424.1 0 411.5 0 c 0
 397 0 390.3 -1.3 377 -3 c 0
 371 -3 368 -2 368 0 c 2
 363 58 l 1
 361 58 l 1
EndSplineSet
LCarets2: 1 0 
Colour: ff00ff
EndChar

StartChar: uni1E14
Encoding: 7700 7700 149
Width: 538
VWidth: 999
Flags: HW
HStem: 0 56<194.662 417.584> 317 50<190 404.78> 589 56<194.662 419.27> 701 44<164.088 442.515> 725.5 105.6
VStem: -37.6 163.2 104 86<58.188 317 367 587.818> 163 281<701.205 745>
LayerCount: 2
Fore
SplineSet
20.9 831.1 m 1
 114.1 757.2 l 2
 122.6 750.2 125.6 744.9 125.6 738.7 c 0
 125.6 731.7 120.3 725.5 114.1 725.5 c 0
 107.9 725.5 97.2 728.1 81 736 c 2
 -37.6 791.5 l 1
 -23.5 807.1 -5.4 820.9 20.9 831.1 c 1
190 200 m 2
 190 183 191 80 198 56 c 1
 332 56 480 68 480 68 c 1
 482 64 l 1
 481 56 480 41 480 31 c 0
 480 21 481 14 482 0 c 1
 480 -3 l 1
 464 -1 441 0 420 0 c 2
 147 0 l 2
 112 0 95 -3 95 -3 c 1
 94 0 l 1
 102 54 104 125 104 200 c 2
 104 445 l 2
 104 520 102 588 94 645 c 1
 96 648 l 1
 96 648 113 645 147 645 c 2
 410 645 l 2
 431 645 454 646 470 648 c 1
 472 645 l 1
 471 631 470 615 470 607 c 0
 470 598 471 589 472 581 c 1
 470 577 l 1
 470 577 332 589 198 589 c 1
 191 565 190 462 190 445 c 2
 190 367 l 1
 308 367 354 372 413 377 c 1
 416 374 l 1
 414 365 413 351 413 342 c 0
 413 333 414 319 416 310 c 1
 413 307 l 1
 344 314 238 317 190 317 c 1
 190 200 l 2
420 701 m 2
 176 701 l 2
 167 701 163 709 163 716 c 0
 163 728 174 745 185 745 c 2
 430 745 l 2
 440 745 444 737 444 731 c 0
 444 719 433 701 420 701 c 2
EndSplineSet
LCarets2: 1 0 
Colour: ff00ff
EndChar

StartChar: uni1E15
Encoding: 7701 7701 150
Width: 453
VWidth: 999
Flags: HW
HStem: -10 59<180.536 330.136> 233 40<125 322.997> 399 40<182.373 286.139> 538 44<91.088 369.515>
VStem: 34 88<110.038 233 273 315.973> 90 281<538.205 582> 323 89<244.5 350.727>
LayerCount: 2
Fore
SplineSet
212.2 765.2 m 1
 268.2 651.8 l 2
 272.2 642.8 273 636.5 273 630.2 c 0
 273 625.7 267.4 620.3 261 620.3 c 0
 256.2 620.3 250.6 624.8 237.8 638.3 c 2
 146.6 736.4 l 1
 148.2 746.3 l 1
 154.6 751.7 173 767 200.2 767 c 0
 204.2 767 209 766.1 212.2 765.2 c 1
347 538 m 2
 103 538 l 2
 94 538 90 546 90 553 c 0
 90 565 101 582 112 582 c 2
 357 582 l 2
 367 582 371 574 371 568 c 0
 371 556 360 538 347 538 c 2
125 273 m 1
 309 273 l 2
 319 273 323 278 323 287 c 0
 323 362 278.5 399 239 399 c 0
 207.5 399 142 377 125 273 c 1
392 104 m 1
 412 79 l 1
 374 27 310 -10 238 -10 c 0
 170.6 -10 113.4 14.7 79 56 c 0
 45.5 96.2 34 152.3 34 209 c 0
 34 356 136 439 239 439 c 0
 371 439 412 334 412 250 c 0
 412 239 405 233 394 233 c 2
 122 233 l 1
 122 174.9 128.4 134.1 146 106 c 0
 173.5 62 220.8 49 255 49 c 0
 310 49 357 66 392 104 c 1
EndSplineSet
LCarets2: 1 0 
Colour: ff00ff
EndChar

StartChar: uni1E16
Encoding: 7702 7702 151
Width: 538
VWidth: 999
Flags: HW
HStem: 0 56<194.662 417.584> 317 50<190 404.78> 589 56<194.662 419.27> 701 44<107.088 385.515> 724.5 107.4
VStem: 104 86<58.188 317 367 587.818> 106 281<701.205 745> 428.1 154.8
LayerCount: 2
Fore
SplineSet
535.1 831.9 m 1
 557.2 820.2 573.1 804.9 582.9 786.1 c 1
 472 735 l 2
 455.8 727.1 446.5 724.5 439.6 724.5 c 0
 432.7 724.5 428.1 730.7 428.1 737.7 c 0
 428.1 743.9 429.6 748.3 439.6 756.2 c 2
 535.1 831.9 l 1
190 200 m 2
 190 183 191 80 198 56 c 1
 332 56 480 68 480 68 c 1
 482 64 l 1
 481 56 480 41 480 31 c 0
 480 21 481 14 482 0 c 1
 480 -3 l 1
 464 -1 441 0 420 0 c 2
 147 0 l 2
 112 0 95 -3 95 -3 c 1
 94 0 l 1
 102 54 104 125 104 200 c 2
 104 445 l 2
 104 520 102 588 94 645 c 1
 96 648 l 1
 96 648 113 645 147 645 c 2
 410 645 l 2
 431 645 454 646 470 648 c 1
 472 645 l 1
 471 631 470 615 470 607 c 0
 470 598 471 589 472 581 c 1
 470 577 l 1
 470 577 332 589 198 589 c 1
 191 565 190 462 190 445 c 2
 190 367 l 1
 308 367 354 372 413 377 c 1
 416 374 l 1
 414 365 413 351 413 342 c 0
 413 333 414 319 416 310 c 1
 413 307 l 1
 344 314 238 317 190 317 c 1
 190 200 l 2
363 701 m 2
 119 701 l 2
 110 701 106 709 106 716 c 0
 106 728 117 745 128 745 c 2
 373 745 l 2
 383 745 387 737 387 731 c 0
 387 719 376 701 363 701 c 2
EndSplineSet
LCarets2: 1 0 
Colour: ff00ff
EndChar

StartChar: uni1E17
Encoding: 7703 7703 152
Width: 453
VWidth: 999
Flags: HW
HStem: -10 59<180.536 330.136> 233 40<125 322.997> 399 40<182.373 286.139> 538 44<91.088 369.515>
VStem: 34 88<110.038 233 273 315.973> 90 281<538.205 582> 323 89<244.5 350.727>
LayerCount: 2
Fore
SplineSet
264.4 759.2 m 1
 266.8 760.1 271.6 761 275.6 761 c 0
 280.7 761 301.2 760.1 319.6 740.3 c 1
 322 730.4 l 1
 230 632.3 l 2
 218 618.8 211.6 615.2 206 615.2 c 0
 200.4 615.2 194.8 620.6 194.8 626.9 c 0
 194.8 637 197.5 640.6 204 652.1 c 2
 264.4 759.2 l 1
347 538 m 2
 103 538 l 2
 94 538 90 546 90 553 c 0
 90 565 101 582 112 582 c 2
 357 582 l 2
 367 582 371 574 371 568 c 0
 371 556 360 538 347 538 c 2
125 273 m 1
 309 273 l 2
 319 273 323 278 323 287 c 0
 323 362 278.5 399 239 399 c 0
 207.5 399 142 377 125 273 c 1
392 104 m 1
 412 79 l 1
 374 27 310 -10 238 -10 c 0
 170.6 -10 113.4 14.7 79 56 c 0
 45.5 96.2 34 152.3 34 209 c 0
 34 356 136 439 239 439 c 0
 371 439 412 334 412 250 c 0
 412 239 405 233 394 233 c 2
 122 233 l 1
 122 174.9 128.4 134.1 146 106 c 0
 173.5 62 220.8 49 255 49 c 0
 310 49 357 66 392 104 c 1
EndSplineSet
LCarets2: 1 0 
Colour: ff00ff
EndChar

StartChar: uni1E18
Encoding: 7704 7704 153
Width: 538
VWidth: 999
Flags: HW
HStem: 0 56<194.662 417.584> 317 50<190 404.78> 589 56<194.662 419.27>
VStem: 104 86<58.188 317 367 587.818> 148 253<-186 -186>
LayerCount: 2
Fore
SplineSet
300 -57 m 1
 329 -104 365 -146 401 -186 c 1
 380 -200 l 1
 341 -171 308 -146 274 -110 c 1
 237 -148 205 -173 167 -200 c 1
 147 -186 l 1
 183 -146 221 -103 250 -57 c 1
 300 -57 l 1
190 200 m 2
 190 183 191 80 198 56 c 1
 332 56 480 68 480 68 c 1
 482 64 l 1
 481 56 480 41 480 31 c 0
 480 21 481 14 482 0 c 1
 480 -3 l 1
 464 -1 441 0 420 0 c 2
 147 0 l 2
 112 0 95 -3 95 -3 c 1
 94 0 l 1
 102 54 104 125 104 200 c 2
 104 445 l 2
 104 520 102 588 94 645 c 1
 96 648 l 1
 96 648 113 645 147 645 c 2
 410 645 l 2
 431 645 454 646 470 648 c 1
 472 645 l 1
 471 631 470 615 470 607 c 0
 470 598 471 589 472 581 c 1
 470 577 l 1
 470 577 332 589 198 589 c 1
 191 565 190 462 190 445 c 2
 190 367 l 1
 308 367 354 372 413 377 c 1
 416 374 l 1
 414 365 413 351 413 342 c 0
 413 333 414 319 416 310 c 1
 413 307 l 1
 344 314 238 317 190 317 c 1
 190 200 l 2
EndSplineSet
LCarets2: 1 0 
Colour: ff00ff
EndChar

StartChar: uni1E19
Encoding: 7705 7705 154
Width: 453
VWidth: 999
Flags: HW
HStem: -10 59<180.536 330.136> 233 40<125 322.997> 399 40<182.373 286.139>
VStem: 34 88<110.038 233 273 315.973> 95 253<-186 -186> 323 89<244.5 350.727>
LayerCount: 2
Fore
SplineSet
247 -57 m 1
 276 -104 312 -146 348 -186 c 1
 327 -200 l 1
 288 -171 255 -146 221 -110 c 1
 184 -148 152 -173 114 -200 c 1
 94 -186 l 1
 130 -146 168 -103 197 -57 c 1
 247 -57 l 1
125 273 m 1
 309 273 l 2
 319 273 323 278 323 287 c 0
 323 362 278.5 399 239 399 c 0
 207.5 399 142 377 125 273 c 1
392 104 m 1
 412 79 l 1
 374 27 310 -10 238 -10 c 0
 170.6 -10 113.4 14.7 79 56 c 0
 45.5 96.2 34 152.3 34 209 c 0
 34 356 136 439 239 439 c 0
 371 439 412 334 412 250 c 0
 412 239 405 233 394 233 c 2
 122 233 l 1
 122 174.9 128.4 134.1 146 106 c 0
 173.5 62 220.8 49 255 49 c 0
 310 49 357 66 392 104 c 1
EndSplineSet
LCarets2: 1 0 
Colour: ff00ff
EndChar

StartChar: uni1E1A
Encoding: 7706 7706 155
Width: 538
VWidth: 999
Flags: HW
HStem: -164 44<285 372> -116 46<167 258> -77 10 0 56<194.662 417.584> 317 50<190 404.78> 589 56<194.662 419.27>
VStem: 104 86<58.188 317 367 587.818>
LayerCount: 2
Fore
SplineSet
336 -120 m 0
 358 -120 372 -110 386 -68 c 1
 410 -74 l 1
 398 -134 369 -164 323 -164 c 0
 301 -164 280 -152 259 -138 c 0
 241 -127 222 -116 205 -116 c 0
 179 -116 166 -131 156 -164 c 1
 132 -159 l 1
 146 -100 169 -70 212 -70 c 0
 242 -70 264 -84 284 -98 c 0
 300 -110 317 -120 336 -120 c 0
190 200 m 2
 190 183 191 80 198 56 c 1
 332 56 480 68 480 68 c 1
 482 64 l 1
 481 56 480 41 480 31 c 0
 480 21 481 14 482 0 c 1
 480 -3 l 1
 464 -1 441 0 420 0 c 2
 147 0 l 2
 112 0 95 -3 95 -3 c 1
 94 0 l 1
 102 54 104 125 104 200 c 2
 104 445 l 2
 104 520 102 588 94 645 c 1
 96 648 l 1
 96 648 113 645 147 645 c 2
 410 645 l 2
 431 645 454 646 470 648 c 1
 472 645 l 1
 471 631 470 615 470 607 c 0
 470 598 471 589 472 581 c 1
 470 577 l 1
 470 577 332 589 198 589 c 1
 191 565 190 462 190 445 c 2
 190 367 l 1
 308 367 354 372 413 377 c 1
 416 374 l 1
 414 365 413 351 413 342 c 0
 413 333 414 319 416 310 c 1
 413 307 l 1
 344 314 238 317 190 317 c 1
 190 200 l 2
EndSplineSet
LCarets2: 1 0 
Colour: ff00ff
EndChar

StartChar: uni1E1B
Encoding: 7707 7707 156
Width: 453
VWidth: 999
Flags: HW
HStem: -162 44<237 324> -114 46<119 210> -75 10 -10 59<180.536 330.136> 233 40<125 322.997> 399 40<182.373 286.139>
VStem: 34 88<110.038 233 273 315.973> 323 89<244.5 350.727>
LayerCount: 2
Fore
SplineSet
288 -118 m 0
 310 -118 324 -108 338 -66 c 1
 362 -72 l 1
 350 -132 321 -162 275 -162 c 0
 253 -162 232 -150 211 -136 c 0
 193 -125 174 -114 157 -114 c 0
 131 -114 118 -129 108 -162 c 1
 84 -157 l 1
 98 -98 121 -68 164 -68 c 0
 194 -68 216 -82 236 -96 c 0
 252 -108 269 -118 288 -118 c 0
125 273 m 1
 309 273 l 2
 319 273 323 278 323 287 c 0
 323 362 278.5 399 239 399 c 0
 207.5 399 142 377 125 273 c 1
392 104 m 1
 412 79 l 1
 374 27 310 -10 238 -10 c 0
 170.6 -10 113.4 14.7 79 56 c 0
 45.5 96.2 34 152.3 34 209 c 0
 34 356 136 439 239 439 c 0
 371 439 412 334 412 250 c 0
 412 239 405 233 394 233 c 2
 122 233 l 1
 122 174.9 128.4 134.1 146 106 c 0
 173.5 62 220.8 49 255 49 c 0
 310 49 357 66 392 104 c 1
EndSplineSet
LCarets2: 1 0 
Colour: ff00ff
EndChar

StartChar: uni1E1C
Encoding: 7708 7708 157
Width: 538
VWidth: 999
Flags: HW
HStem: -200 29<198.047 298.231> -96 32<273.31 303.355> 0 56<194.662 417.584> 317 50<190 404.78> 589 56<194.662 419.27> 692 52<220.738 378.488> 785 20<164 196 404.5 436>
VStem: 104 86<58.188 317 367 587.818> 164 28<780.047 805> 308 62<-165.259 -97.4563> 408 28<779.76 805>
DStem2: 224 -96 273 -67 0.384615 0.923077<45.6154 104>
LayerCount: 2
Fore
SplineSet
436 805 m 1
 430 734 366 692 300 692 c 0
 227 692 169 735 164 805 c 1
 192 805 l 1
 200 766 247 744 300 744 c 0
 349 744 401 766 408 805 c 1
 436 805 l 1
275 -96 m 0
 256 -96 246 -97 230 -102 c 1
 224 -96 l 1
 264 0 l 1
 147 0 l 2
 112 0 95 -3 95 -3 c 1
 94 0 l 1
 102 54 104 125 104 200 c 2
 104 445 l 2
 104 520 102 588 94 645 c 1
 96 648 l 1
 96 648 113 645 147 645 c 2
 410 645 l 2
 431 645 454 646 470 648 c 1
 472 645 l 1
 471 631 470 615 470 607 c 0
 470 598 471 589 472 581 c 1
 470 577 l 1
 470 577 332 589 198 589 c 1
 191 565 190 462 190 445 c 2
 190 367 l 1
 308 367 354 372 413 377 c 1
 416 374 l 1
 414 365 413 351 413 342 c 0
 413 333 414 319 416 310 c 1
 413 307 l 1
 344 314 238 317 190 317 c 1
 190 200 l 2
 190 183 191 80 198 56 c 1
 332 56 480 68 480 68 c 1
 482 64 l 1
 481 56 480 41 480 31 c 0
 480 21 481 14 482 0 c 1
 480 -3 l 1
 464 -1 441 0 420 0 c 2
 298 0 l 1
 273 -67 l 1
 281 -65 290 -64 299 -64 c 0
 339 -64 370 -88 370 -126 c 0
 370 -169 324 -200 263 -200 c 0
 231 -200 214 -194 189 -183 c 1
 189 -171 192 -164 199 -157 c 1
 226 -167 237 -171 257 -171 c 0
 287 -171 308 -157 308 -131 c 0
 308 -110 298 -96 275 -96 c 0
EndSplineSet
LCarets2: 1 0 
Colour: ff00ff
EndChar

StartChar: uni1E1D
Encoding: 7709 7709 158
Width: 453
VWidth: 999
Flags: HW
HStem: -205 29<152.047 252.231> -101 32<227.31 257.355> -10 59<180.536 330.136> 233 40<125 322.997> 399 40<182.373 286.139> 501 57<155.292 287.981>
VStem: 34 88<110.038 233 273 315.973> 85 27<613.641 639.111> 262 62<-170.259 -102.456> 323 89<244.5 350.727> 328 27<612.798 639.111>
DStem2: 178 -101 227 -72 0.384615 0.923077<45.6154 104>
LayerCount: 2
Fore
SplineSet
112 648 m 1
 123 595 166 558 220 558 c 0
 272 558 318 590 328 648 c 1
 355 636 l 1
 343 550 279 501 220 501 c 0
 150 501 99 551 85 636 c 1
 112 648 l 1
229 -101 m 0
 210 -101 200 -102 184 -107 c 1
 178 -101 l 1
 216.3 -9.1 l 1
 158.4 -4.4 109.6 19.2 79 56 c 0
 45.5 96.2 34 152.3 34 209 c 0
 34 356 136 439 239 439 c 0
 371 439 412 334 412 250 c 0
 412 239 405 233 394 233 c 2
 122 233 l 1
 122 174.9 128.4 134.1 146 106 c 0
 173.5 62 220.8 49 255 49 c 0
 310 49 357 66 392 104 c 1
 412 79 l 1
 376.2 30 317.3 -5.7 250.3 -9.6 c 1
 227 -72 l 1
 235 -70 244 -69 253 -69 c 0
 293 -69 324 -93 324 -131 c 0
 324 -174 278 -205 217 -205 c 0
 185 -205 168 -199 143 -188 c 1
 143 -176 146 -169 153 -162 c 1
 180 -172 191 -176 211 -176 c 0
 241 -176 262 -162 262 -136 c 0
 262 -115 252 -101 229 -101 c 0
125 273 m 1
 309 273 l 2
 319 273 323 278 323 287 c 0
 323 362 278.5 399 239 399 c 0
 207.5 399 142 377 125 273 c 1
EndSplineSet
LCarets2: 1 0 
Colour: ff00ff
EndChar

StartChar: uni1E1E
Encoding: 7710 7710 159
Width: 504
VWidth: 999
Flags: HW
HStem: -3 21<94 147 147 200> 317 50<190 404.78> 589 56<194.662 419.27> 729 104<244.542 327.458>
VStem: 104 86<2.67992 317 367 587.818> 234 104<739.542 822.458>
LayerCount: 2
Fore
SplineSet
234 781 m 0
 234 809 258 833 286 833 c 0
 314 833 338 809 338 781 c 0
 338 753 314 729 286 729 c 0
 258 729 234 753 234 781 c 0
407 645 m 2
 431 645 454 646 470 648 c 1
 472 645 l 1
 471 631 470 619 470 611 c 0
 470 602 471 589 472 581 c 1
 470 577 l 1
 470 577 332 589 198 589 c 1
 191 565 190 462 190 445 c 2
 190 367 l 1
 308 367 354 372 413 377 c 1
 416 374 l 1
 414 365 413 351 413 342 c 0
 413 333 414 319 416 310 c 1
 413 307 l 1
 344 314 238 317 190 317 c 1
 190 200 l 2
 190 125 192 57 200 0 c 1
 198 -3 l 1
 198 -3 181 0 147 0 c 0
 112 0 95 -3 95 -3 c 1
 94 0 l 1
 102 54 104 125 104 200 c 2
 104 445 l 2
 104 520 102 588 94 645 c 1
 96 648 l 1
 96 648 113 645 147 645 c 2
 407 645 l 2
EndSplineSet
LCarets2: 1 0 
Colour: ff00ff
EndChar

StartChar: uni1E1F
Encoding: 7711 7711 160
Width: 314
VWidth: 999
Flags: HW
HStem: -3 21<89 97 181 189> 385 44<29.4741 99 179 290.596> 602 21<319.5 336> 637 61<223.974 335.422> 729 104<194.542 277.458>
VStem: 99 80<2.6792 385 429.004 568.513> 184 104<739.542 822.458>
LayerCount: 2
Fore
SplineSet
184 781 m 0
 184 809 208 833 236 833 c 0
 264 833 288 809 288 781 c 0
 288 753 264 729 236 729 c 0
 208 729 184 753 184 781 c 0
99 429 m 1
 99 468 l 2
 99 526 116 573 154 621 c 0
 191.7 668.7 255 698 318 698 c 0
 337 698 355 693 363 688 c 1
 364 685 l 1
 353.7 663.7 343 630 336 603 c 1
 325 602 l 1
 314 622 292.7 637 267 637 c 0
 209.7 637 174 599.2 174 544 c 0
 174 526 179 474 179 438 c 2
 179 429 l 1
 222 429 l 2
 245 429 275.2 430.2 292 431 c 1
 297 424 l 1
 291 409.3 288 399 285 383 c 1
 271.7 384.3 237 385 213 385 c 2
 179 385 l 1
 179 199 l 2
 179 124 180.5 57 189 0 c 1
 187 -3 l 1
 175 -1 151 0 139 0 c 0
 127 0 103 -1 91 -3 c 1
 89 0 l 1
 97.5 53.5 99 124 99 199 c 2
 99 385 l 1
 98 385 l 2
 75 385 42 384.3 24 383 c 1
 19 390 l 1
 28.7 405 34.3 414.7 41 431 c 1
 54.2 429.2 77.3 429 99 429 c 1
EndSplineSet
LCarets2: 1 0 
Colour: ff00ff
EndChar

StartChar: uni1E20
Encoding: 7712 7712 161
Width: 717
VWidth: 999
Flags: HW
HStem: -10 44<296.87 519.78> 614 44<295.445 484.524> 733 44<227.088 505.515>
VStem: 52 103<200.39 438.829> 226 281<733.205 777> 546 86<83.5114 304.327>
LayerCount: 2
Fore
SplineSet
483 733 m 2
 239 733 l 2
 230 733 226 741 226 748 c 0
 226 760 237 777 248 777 c 2
 493 777 l 2
 503 777 507 769 507 763 c 0
 507 751 496 733 483 733 c 2
546 117 m 2
 546 192 544 250 536 307 c 1
 538 310 l 1
 538 310 555 307 589 307 c 0
 624 307 641 310 641 310 c 1
 642 307 l 1
 634 254 632 212 632 137 c 2
 632 131 l 2
 632 120 633.3 93.7 642 83 c 1
 642 80 l 1
 574.5 23.4 492.5 -10 376 -10 c 0
 175 -10 52 144 52 317 c 0
 52 537 229 658 401 658 c 0
 523 658 629 608 629 608 c 1
 631 605 l 1
 620.3 567 614.6 540 611 489 c 1
 599 488 l 1
 554 564 477 614 387 614 c 0
 252 614 155 502 155 327 c 0
 155 195 221 34 399 34 c 0
 453 34 512 40 546 72 c 1
 546 117 l 2
EndSplineSet
LCarets2: 1 0 
Colour: ff00ff
EndChar

StartChar: uni1E21
Encoding: 7713 7713 162
Width: 499
VWidth: 999
Flags: HW
HStem: -237 43<140.309 341.162> -15 62<136.804 254.33> -12 66<174.316 367.191> 136 40<165.212 281.953> 401 38<167.383 278.422> 538 44<102.088 380.515>
VStem: 32 69<-158.235 -60.0017> 55 78<208.143 363.302> 62 61<52.8771 126.198> 101 281<538.205 582> 312 78<209.177 369.538> 400 73<-149.549 -43.25>
LayerCount: 2
Fore
SplineSet
358 538 m 2
 114 538 l 2
 105 538 101 546 101 553 c 0
 101 565 112 582 123 582 c 2
 368 582 l 2
 378 582 382 574 382 568 c 0
 382 556 371 538 358 538 c 2
101 -104 m 0
 101 -172 167 -194 232 -194 c 0
 318 -194 400 -162 400 -101 c 0
 400 -75 390 -46 361 -29 c 0
 333.6 -12.9 303 -12 255 -12 c 0
 241.2 -12 195.5 -15 166 -15 c 1
 131 -34 101 -70.9 101 -104 c 0
390 285 m 0
 390 206.2 328 136 224 136 c 0
 193.9 136 163 143 150 150 c 1
 128 131 123 114 123 94 c 0
 123 51 153 47 181 47 c 0
 186 47 196 48 210 49 c 0
 233 52 273 54 290 54 c 0
 325 54 393.5 53 431 21 c 0
 459 -2.9 473 -33.9 473 -78 c 0
 473 -171.7 380.1 -237 224 -237 c 0
 118 -237 32 -202.7 32 -124 c 0
 32 -105.3 42.5 -77 55 -58 c 1
 80.9 -38 112 -18.7 139.9 -7.3 c 1
 86 2 62 38 62 79 c 0
 62 113 97 142 126 162 c 1
 98 178 55 212 55 287 c 0
 55 386.1 146 439 225 439 c 0
 246.5 439 268.4 436 286.3 430.4 c 1
 360.9 434.3 396.2 444.9 444 449 c 1
 447 446 l 1
 445 437 444 429 444 420 c 0
 444 411 445 403 447 394 c 1
 444 391 l 1
 402.8 395.2 369.7 399 339.6 401.4 c 1
 363 386 390 354 390 285 c 0
312 284 m 0
 312 355 286 401 221 401 c 0
 163 401 133 358 133 292 c 0
 133 223 155 176 227 176 c 0
 287 176 312 223.3 312 284 c 0
EndSplineSet
LCarets2: 1 0 
Colour: ff00ff
EndChar

StartChar: uni1E22
Encoding: 7714 7714 163
Width: 726
VWidth: 999
Flags: HW
HStem: -3 21<94 101 192 200 526 533 624 632> 321 44<190 536> 628 20<94 102 193 200 526 534 625 632> 729 104<314.542 397.458>
VStem: 104 86<2.67992 321 365 642.32> 304 104<739.542 822.458> 536 86<2.67992 321 365 642.32>
LayerCount: 2
Fore
SplineSet
304 781 m 0
 304 809 328 833 356 833 c 0
 384 833 408 809 408 781 c 0
 408 753 384 729 356 729 c 0
 328 729 304 753 304 781 c 0
536 445 m 2
 536 520 534 588 526 645 c 1
 528 648 l 1
 540 646 567 645 579 645 c 0
 591 645 619 646 631 648 c 1
 632 645 l 1
 624 592 622 520 622 445 c 2
 622 200 l 2
 622 125 624 57 632 0 c 1
 630 -3 l 1
 618 -1 591 0 579 0 c 0
 567 0 539 -1 527 -3 c 1
 526 0 l 1
 534 54 536 125 536 200 c 2
 536 321 l 1
 190 321 l 1
 190 200 l 2
 190 125 192 57 200 0 c 1
 198 -3 l 1
 186 -1 159 0 147 0 c 0
 135 0 107 -1 95 -3 c 1
 94 0 l 1
 102 54 104 125 104 200 c 2
 104 445 l 2
 104 520 102 588 94 645 c 1
 96 648 l 1
 108 646 135 645 147 645 c 0
 159 645 187 646 199 648 c 1
 200 645 l 1
 192 592 190 520 190 445 c 2
 190 365 l 1
 536 365 l 1
 536 445 l 2
EndSplineSet
LCarets2: 1 0 
Colour: ff00ff
EndChar

StartChar: uni1E23
Encoding: 7715 7715 164
Width: 549
VWidth: 999
Flags: HW
HStem: -3 21<81 89 171 179 378 386 468 476> 379 60<258.668 370.026> 546 102<246.735 329.265> 678 20<157.465 173.167>
VStem: 90 80<2.67606 320.103 352 672.976> 237 102<555.735 638.265> 387 80<2.67606 363.729>
LayerCount: 2
Fore
SplineSet
237 597 m 0
 237 624 261 648 288 648 c 0
 315 648 339 624 339 597 c 0
 339 570 315 546 288 546 c 0
 261 546 237 570 237 597 c 0
170 352 m 1
 172 349 l 1
 236 424 307 439 345 439 c 0
 435 439 469 385 469 281 c 0
 469 249 467 212 467 180 c 0
 467 104 468 57.2 476 0 c 1
 474 -3 l 1
 462 -1 439 0 427 0 c 0
 415 0 392 -1 380 -3 c 1
 378 0 l 1
 386 53.8 387 105 387 180 c 2
 387 278 l 2
 387 359 366 379 315 379 c 0
 279.5 379 221 357 170 297 c 1
 170 180 l 2
 170 104 171.5 57.2 179 0 c 1
 177 -3 l 1
 165 -1 142 0 130 0 c 0
 118 0 95 -1 83 -3 c 1
 81 0 l 1
 88.8 56 90 105.5 90 180 c 2
 90 481 l 2
 90 557 88.7 632.3 81 675 c 1
 83 678 l 1
 123.5 681 144.9 688 170 698 c 1
 176.3 698 179 695 179 688 c 0
 174.2 626.5 170 575 170 501 c 2
 170 352 l 1
EndSplineSet
LCarets2: 1 0 
Colour: ff00ff
EndChar

StartChar: uni1E24
Encoding: 7716 7716 165
Width: 726
VWidth: 999
Flags: HW
HStem: -209 102<312.735 395.265> -3 21<94 101 192 200 526 533 624 632> 321 44<190 536> 628 20<94 102 193 200 526 534 625 632>
VStem: 104 86<2.67992 321 365 642.32> 303 102<-199.265 -116.735> 536 86<2.67992 321 365 642.32>
LayerCount: 2
Fore
SplineSet
536 445 m 2
 536 520 534 588 526 645 c 1
 528 648 l 1
 540 646 567 645 579 645 c 0
 591 645 619 646 631 648 c 1
 632 645 l 1
 624 592 622 520 622 445 c 2
 622 200 l 2
 622 125 624 57 632 0 c 1
 630 -3 l 1
 618 -1 591 0 579 0 c 0
 567 0 539 -1 527 -3 c 1
 526 0 l 1
 534 54 536 125 536 200 c 2
 536 321 l 1
 190 321 l 1
 190 200 l 2
 190 125 192 57 200 0 c 1
 198 -3 l 1
 186 -1 159 0 147 0 c 0
 135 0 107 -1 95 -3 c 1
 94 0 l 1
 102 54 104 125 104 200 c 2
 104 445 l 2
 104 520 102 588 94 645 c 1
 96 648 l 1
 108 646 135 645 147 645 c 0
 159 645 187 646 199 648 c 1
 200 645 l 1
 192 592 190 520 190 445 c 2
 190 365 l 1
 536 365 l 1
 536 445 l 2
303 -158 m 0
 303 -131 327 -107 354 -107 c 0
 381 -107 405 -131 405 -158 c 0
 405 -185 381 -209 354 -209 c 0
 327 -209 303 -185 303 -158 c 0
EndSplineSet
LCarets2: 1 0 
Colour: ff00ff
EndChar

StartChar: uni1E25
Encoding: 7717 7717 166
Width: 549
VWidth: 999
Flags: HW
HStem: -210 102<218.735 301.265> -3 21<81 89 171 179 378 386 468 476> 379 60<258.668 370.026> 678 20<157.465 173.167>
VStem: 90 80<2.67606 320.103 352 672.976> 209 102<-200.265 -117.735> 387 80<2.67606 363.729>
LayerCount: 2
Fore
SplineSet
209 -159 m 0
 209 -132 233 -108 260 -108 c 0
 287 -108 311 -132 311 -159 c 0
 311 -186 287 -210 260 -210 c 0
 233 -210 209 -186 209 -159 c 0
170 352 m 1
 172 349 l 1
 236 424 307 439 345 439 c 0
 435 439 469 385 469 281 c 0
 469 249 467 212 467 180 c 0
 467 104 468 57.2 476 0 c 1
 474 -3 l 1
 462 -1 439 0 427 0 c 0
 415 0 392 -1 380 -3 c 1
 378 0 l 1
 386 53.8 387 105 387 180 c 2
 387 278 l 2
 387 359 366 379 315 379 c 0
 279.5 379 221 357 170 297 c 1
 170 180 l 2
 170 104 171.5 57.2 179 0 c 1
 177 -3 l 1
 165 -1 142 0 130 0 c 0
 118 0 95 -1 83 -3 c 1
 81 0 l 1
 88.8 56 90 105.5 90 180 c 2
 90 481 l 2
 90 557 88.7 632.3 81 675 c 1
 83 678 l 1
 123.5 681 144.9 688 170 698 c 1
 176.3 698 179 695 179 688 c 0
 174.2 626.5 170 575 170 501 c 2
 170 352 l 1
EndSplineSet
LCarets2: 1 0 
Colour: ff00ff
EndChar

StartChar: uni1E26
Encoding: 7718 7718 167
Width: 726
VWidth: 999
Flags: HW
HStem: -3 21<94 101 192 200 526 533 624 632> 321 44<190 536> 628 20<94 102 193 200 526 534 625 632> 702 96<215.332 294.668 404.332 483.668>
VStem: 104 86<2.67992 321 365 642.32> 207 96<710.332 789.668> 396 96<710.332 789.668> 536 86<2.67992 321 365 642.32>
LayerCount: 2
Fore
SplineSet
536 445 m 2
 536 520 534 588 526 645 c 1
 528 648 l 1
 540 646 567 645 579 645 c 0
 591 645 619 646 631 648 c 1
 632 645 l 1
 624 592 622 520 622 445 c 2
 622 200 l 2
 622 125 624 57 632 0 c 1
 630 -3 l 1
 618 -1 591 0 579 0 c 0
 567 0 539 -1 527 -3 c 1
 526 0 l 1
 534 54 536 125 536 200 c 2
 536 321 l 1
 190 321 l 1
 190 200 l 2
 190 125 192 57 200 0 c 1
 198 -3 l 1
 186 -1 159 0 147 0 c 0
 135 0 107 -1 95 -3 c 1
 94 0 l 1
 102 54 104 125 104 200 c 2
 104 445 l 2
 104 520 102 588 94 645 c 1
 96 648 l 1
 108 646 135 645 147 645 c 0
 159 645 187 646 199 648 c 1
 200 645 l 1
 192 592 190 520 190 445 c 2
 190 365 l 1
 536 365 l 1
 536 445 l 2
396 750 m 0
 396 776 418 798 444 798 c 0
 470 798 492 776 492 750 c 0
 492 724 470 702 444 702 c 0
 418 702 396 724 396 750 c 0
207 750 m 0
 207 776 229 798 255 798 c 0
 281 798 303 776 303 750 c 0
 303 724 281 702 255 702 c 0
 229 702 207 724 207 750 c 0
EndSplineSet
LCarets2: 1 0 
Colour: ff00ff
EndChar

StartChar: uni1E27
Encoding: 7719 7719 168
Width: 549
VWidth: 999
Flags: HW
HStem: -3 21<81 89 171 179 378 386 468 476> 379 60<258.668 370.026> 527 91<215.053 290.947 352.053 428.653> 678 20<157.465 173.167>
VStem: 90 80<2.67606 320.103 352 672.976> 208 90<533.481 611.246> 345 91<534.053 610.653> 387 80<2.67606 363.729>
LayerCount: 2
Fore
SplineSet
345 572 m 0
 345 597 365 618 390 618 c 0
 415 618 436 597 436 572 c 0
 436 547 415 527 390 527 c 0
 365 527 345 547 345 572 c 0
208 572 m 0
 208 597 228 618 253 618 c 0
 278 618 298 597 298 572 c 0
 298 547 278 527 253 527 c 0
 228 527 208 547 208 572 c 0
170 352 m 1
 172 349 l 1
 236 424 307 439 345 439 c 0
 435 439 469 385 469 281 c 0
 469 249 467 212 467 180 c 0
 467 104 468 57.2 476 0 c 1
 474 -3 l 1
 462 -1 439 0 427 0 c 0
 415 0 392 -1 380 -3 c 1
 378 0 l 1
 386 53.8 387 105 387 180 c 2
 387 278 l 2
 387 359 366 379 315 379 c 0
 279.5 379 221 357 170 297 c 1
 170 180 l 2
 170 104 171.5 57.2 179 0 c 1
 177 -3 l 1
 165 -1 142 0 130 0 c 0
 118 0 95 -1 83 -3 c 1
 81 0 l 1
 88.8 56 90 105.5 90 180 c 2
 90 481 l 2
 90 557 88.7 632.3 81 675 c 1
 83 678 l 1
 123.5 681 144.9 688 170 698 c 1
 176.3 698 179 695 179 688 c 0
 174.2 626.5 170 575 170 501 c 2
 170 352 l 1
EndSplineSet
LCarets2: 1 0 
Colour: ff80cc
EndChar

StartChar: uni1E28
Encoding: 7720 7720 169
Width: 726
VWidth: 999
Flags: HW
HStem: -196 29<87.047 187.231> -92 32<162.31 192.355> -3 21<94 101 192 200 526 533 624 632> 321 44<190 536> 628 20<94 102 193 200 526 534 625 632>
VStem: 104 86<2.67992 321 365 642.32> 197 62<-161.259 -93.4563> 536 86<2.67992 321 365 642.32>
DStem2: 113 -92 162 -63 0.384615 0.923077<45.6154 104>
LayerCount: 2
Fore
SplineSet
536 445 m 2
 536 520 534 588 526 645 c 1
 528 648 l 1
 540 646 567 645 579 645 c 0
 591 645 619 646 631 648 c 1
 632 645 l 1
 624 592 622 520 622 445 c 2
 622 200 l 2
 622 125 624 57 632 0 c 1
 630 -3 l 1
 618 -1 591 0 579 0 c 0
 567 0 539 -1 527 -3 c 1
 526 0 l 1
 534 54 536 125 536 200 c 2
 536 321 l 1
 190 321 l 1
 190 200 l 2
 190 125 192 57 200 0 c 1
 198 -3 l 1
 194.6 -2.4 190 -1.9 184.9 -1.5 c 1
 162 -63 l 1
 170 -61 179 -60 188 -60 c 0
 228 -60 259 -84 259 -122 c 0
 259 -165 213 -196 152 -196 c 0
 120 -196 103 -190 78 -179 c 1
 78 -167 81 -160 88 -153 c 1
 115 -163 126 -167 146 -167 c 0
 176 -167 197 -153 197 -127 c 0
 197 -106 187 -92 164 -92 c 0
 145 -92 135 -93 119 -98 c 1
 113 -92 l 1
 151.3 -0 l 1
 149.7 0 148.3 0 147 0 c 0
 135 0 107 -1 95 -3 c 1
 94 0 l 1
 102 54 104 125 104 200 c 2
 104 445 l 2
 104 520 102 588 94 645 c 1
 96 648 l 1
 108 646 135 645 147 645 c 0
 159 645 187 646 199 648 c 1
 200 645 l 1
 192 592 190 520 190 445 c 2
 190 365 l 1
 536 365 l 1
 536 445 l 2
EndSplineSet
LCarets2: 1 0 
Colour: ff00ff
EndChar

StartChar: uni1E29
Encoding: 7721 7721 170
Width: 549
VWidth: 999
Flags: HW
HStem: -194 29<58.047 158.231> -90 32<133.31 163.355> -3 21<81 89 171 179 378 386 468 476> 379 60<258.668 370.026> 678 20<157.465 173.167>
VStem: 90 80<2.67606 320.103 352 672.976> 168 62<-159.259 -91.4563> 387 80<2.67606 363.729>
DStem2: 84 -90 133 -61 0.384615 0.923077<45.6154 104>
LayerCount: 2
Fore
SplineSet
135 -90 m 0
 116 -90 106 -91 90 -96 c 1
 84 -90 l 1
 121.4 -0.1 l 1
 109 -0.4 92.5 -1.4 83 -3 c 1
 81 0 l 1
 88.8 56 90 105.5 90 180 c 2
 90 481 l 2
 90 557 88.7 632.3 81 675 c 1
 83 678 l 1
 123.5 681 144.9 688 170 698 c 1
 176.3 698 179 695 179 688 c 0
 174.2 626.5 170 575 170 501 c 2
 170 352 l 1
 172 349 l 1
 236 424 307 439 345 439 c 0
 435 439 469 385 469 281 c 0
 469 249 467 212 467 180 c 0
 467 104 468 57.2 476 0 c 1
 474 -3 l 1
 462 -1 439 0 427 0 c 0
 415 0 392 -1 380 -3 c 1
 378 0 l 1
 386 53.8 387 105 387 180 c 2
 387 278 l 2
 387 359 366 379 315 379 c 0
 279.5 379 221 357 170 297 c 1
 170 180 l 2
 170 104 171.5 57.2 179 0 c 1
 177 -3 l 1
 171.4 -2.1 163.5 -1.4 155.4 -0.9 c 1
 133 -61 l 1
 141 -59 150 -58 159 -58 c 0
 199 -58 230 -82 230 -120 c 0
 230 -163 184 -194 123 -194 c 0
 91 -194 74 -188 49 -177 c 1
 49 -165 52 -158 59 -151 c 1
 86 -161 97 -165 117 -165 c 0
 147 -165 168 -151 168 -125 c 0
 168 -104 158 -90 135 -90 c 0
EndSplineSet
LCarets2: 1 0 
Colour: ff00ff
EndChar

StartChar: uni1E2A
Encoding: 7722 7722 171
Width: 726
VWidth: 999
Flags: HW
HStem: -199 57<279.292 411.981> -3 21<94 101 192 200 526 533 624 632> 321 44<190 536> 628 20<94 102 193 200 526 534 625 632>
VStem: 104 86<2.67992 321 365 642.32> 209 27<-86.359 -60.889> 452 27<-87.202 -60.889> 536 86<2.67992 321 365 642.32>
LayerCount: 2
Fore
SplineSet
536 445 m 2
 536 520 534 588 526 645 c 1
 528 648 l 1
 540 646 567 645 579 645 c 0
 591 645 619 646 631 648 c 1
 632 645 l 1
 624 592 622 520 622 445 c 2
 622 200 l 2
 622 125 624 57 632 0 c 1
 630 -3 l 1
 618 -1 591 0 579 0 c 0
 567 0 539 -1 527 -3 c 1
 526 0 l 1
 534 54 536 125 536 200 c 2
 536 321 l 1
 190 321 l 1
 190 200 l 2
 190 125 192 57 200 0 c 1
 198 -3 l 1
 186 -1 159 0 147 0 c 0
 135 0 107 -1 95 -3 c 1
 94 0 l 1
 102 54 104 125 104 200 c 2
 104 445 l 2
 104 520 102 588 94 645 c 1
 96 648 l 1
 108 646 135 645 147 645 c 0
 159 645 187 646 199 648 c 1
 200 645 l 1
 192 592 190 520 190 445 c 2
 190 365 l 1
 536 365 l 1
 536 445 l 2
236 -52 m 1
 247 -105 290 -142 344 -142 c 0
 396 -142 442 -110 452 -52 c 1
 479 -64 l 1
 467 -150 403 -199 344 -199 c 0
 274 -199 223 -149 209 -64 c 1
 236 -52 l 1
EndSplineSet
LCarets2: 1 0 
Colour: ff00ff
EndChar

StartChar: uni1E2B
Encoding: 7723 7723 172
Width: 549
VWidth: 999
Flags: HW
HStem: -209 57<214.292 346.981> -3 21<81 89 171 179 378 386 468 476> 379 60<258.668 370.026> 678 20<157.465 173.167>
VStem: 90 80<2.67606 320.103 352 672.976> 144 27<-96.359 -70.889> 387 27<-97.202 -70.889> 387 80<2.67606 363.729>
LayerCount: 2
Fore
SplineSet
171 -62 m 1
 182 -115 225 -152 279 -152 c 0
 331 -152 377 -120 387 -62 c 1
 414 -74 l 1
 402 -160 338 -209 279 -209 c 0
 209 -209 158 -159 144 -74 c 1
 171 -62 l 1
170 352 m 1
 172 349 l 1
 236 424 307 439 345 439 c 0
 435 439 469 385 469 281 c 0
 469 249 467 212 467 180 c 0
 467 104 468 57.2 476 0 c 1
 474 -3 l 1
 462 -1 439 0 427 0 c 0
 415 0 392 -1 380 -3 c 1
 378 0 l 1
 386 53.8 387 105 387 180 c 2
 387 278 l 2
 387 359 366 379 315 379 c 0
 279.5 379 221 357 170 297 c 1
 170 180 l 2
 170 104 171.5 57.2 179 0 c 1
 177 -3 l 1
 165 -1 142 0 130 0 c 0
 118 0 95 -1 83 -3 c 1
 81 0 l 1
 88.8 56 90 105.5 90 180 c 2
 90 481 l 2
 90 557 88.7 632.3 81 675 c 1
 83 678 l 1
 123.5 681 144.9 688 170 698 c 1
 176.3 698 179 695 179 688 c 0
 174.2 626.5 170 575 170 501 c 2
 170 352 l 1
EndSplineSet
Colour: ff00ff
EndChar

StartChar: uni1E2C
Encoding: 7724 7724 173
Width: 294
VWidth: 999
Flags: HW
HStem: -164 44<165 252> -116 46<47 138> -77 10 -3 21<94 102 192 200> 628 20<94 102 192 200>
VStem: 104 86<2.67992 642.32>
LayerCount: 2
Fore
SplineSet
216 -120 m 0
 238 -120 252 -110 266 -68 c 1
 290 -74 l 1
 278 -134 249 -164 203 -164 c 0
 181 -164 160 -152 139 -138 c 0
 121 -127 102 -116 85 -116 c 0
 59 -116 46 -131 36 -164 c 1
 12 -159 l 1
 26 -100 49 -70 92 -70 c 0
 122 -70 144 -84 164 -98 c 0
 180 -110 197 -120 216 -120 c 0
104 445 m 2
 104 520 102 588 94 645 c 1
 96 648 l 1
 108 646 135 645 147 645 c 0
 159 645 186 646 198 648 c 1
 200 645 l 1
 192 592 190 520 190 445 c 2
 190 200 l 2
 190 125 192 57 200 0 c 1
 198 -3 l 1
 186 -1 159 0 147 0 c 0
 135 0 108 -1 96 -3 c 1
 94 0 l 1
 102 54 104 125 104 200 c 2
 104 445 l 2
EndSplineSet
LCarets2: 1 0 
Colour: ff00ff
EndChar

StartChar: uni1E2D
Encoding: 7725 7725 174
Width: 260
VWidth: 999
Flags: HW
HStem: -164 44<162 249> -116 46<44 135> -77 10 -3 21<81 89 171 179> 413 20<158.667 173.917> 546 102<89.735 172.265>
VStem: 80 102<555.735 638.265> 90 80<2.65714 420.159>
LayerCount: 2
Fore
SplineSet
213 -120 m 0
 235 -120 249 -110 263 -68 c 1
 287 -74 l 1
 275 -134 246 -164 200 -164 c 0
 178 -164 157 -152 136 -138 c 0
 118 -127 99 -116 82 -116 c 0
 56 -116 43 -131 33 -164 c 1
 9 -159 l 1
 23 -100 46 -70 89 -70 c 0
 119 -70 141 -84 161 -98 c 0
 177 -110 194 -120 213 -120 c 0
80 597 m 0
 80 624 104 648 131 648 c 0
 158 648 182 624 182 597 c 0
 182 570 158 546 131 546 c 0
 104 546 80 570 80 597 c 0
90 235 m 2
 90 310 87.3 386.2 81 429 c 1
 83 432 l 1
 104.2 430.3 147.3 430.7 170 433 c 0
 177.8 433 179 432 179 423 c 0
 172.5 362 170 326 170 251 c 2
 170 180 l 2
 170 104 171.8 56.8 179 0 c 1
 177 -3 l 1
 165 -1 142 0 130 0 c 0
 118 0 95 -1 83 -3 c 1
 81 0 l 1
 88.2 54 90 105 90 180 c 2
 90 235 l 2
EndSplineSet
LCarets2: 1 0 
Colour: ff00ff
EndChar

StartChar: uni1E2E
Encoding: 7726 7726 175
Width: 294
VWidth: 999
Flags: HW
HStem: -3 21<94 102 192 200> 628 20<94 102 192 200> 702 96<21.332 100.668 210.332 289.668> 782.5 107.4
VStem: 13 96<710.332 789.668> 104 86<2.67992 642.32> 118.1 154.8 202 96<710.332 789.668>
LayerCount: 2
Fore
SplineSet
202 750 m 0
 202 776 224 798 250 798 c 0
 276 798 298 776 298 750 c 0
 298 724 276 702 250 702 c 0
 224 702 202 724 202 750 c 0
13 750 m 0
 13 776 35 798 61 798 c 0
 87 798 109 776 109 750 c 0
 109 724 87 702 61 702 c 0
 35 702 13 724 13 750 c 0
104 445 m 2
 104 520 102 588 94 645 c 1
 96 648 l 1
 108 646 135 645 147 645 c 0
 159 645 186 646 198 648 c 1
 200 645 l 1
 192 592 190 520 190 445 c 2
 190 200 l 2
 190 125 192 57 200 0 c 1
 198 -3 l 1
 186 -1 159 0 147 0 c 0
 135 0 108 -1 96 -3 c 1
 94 0 l 1
 102 54 104 125 104 200 c 2
 104 445 l 2
225.1 889.9 m 1
 247.2 878.2 263.1 862.9 272.9 844.1 c 1
 162 793 l 2
 145.8 785.1 136.5 782.5 129.6 782.5 c 0
 122.7 782.5 118.1 788.7 118.1 795.7 c 0
 118.1 801.9 119.6 806.3 129.6 814.2 c 2
 225.1 889.9 l 1
EndSplineSet
LCarets2: 1 0 
Colour: ff00ff
EndChar

StartChar: uni1E2F
Encoding: 7727 7727 176
Width: 260
VWidth: 999
Flags: HW
HStem: -3 21<81 89 171 179> 413 20<158.667 173.917> 527 95<13.0156 90.984 182.016 259.984>
VStem: 5 94<534.394 614.312> 90 80<2.65714 420.159> 174 94<534.394 614.312>
LayerCount: 2
Fore
SplineSet
188 740 m 1
 190.3 740.9 194.8 741.8 198.7 741.8 c 0
 203.6 741.8 223.4 741 241.1 721.6 c 1
 243.4 711.9 l 1
 154.8 616 l 2
 143.3 602.8 137.2 599.2 131.8 599.2 c 0
 126.4 599.2 121 604.5 121 610.7 c 0
 121 620.6 123.5 624 129.8 635.3 c 2
 188 740 l 1
5 574 m 0
 5 600 26 622 52 622 c 0
 78 622 99 600 99 574 c 0
 99 548 78 527 52 527 c 0
 26 527 5 548 5 574 c 0
174 574 m 0
 174 600 195 622 221 622 c 0
 247 622 268 600 268 574 c 0
 268 548 247 527 221 527 c 0
 195 527 174 548 174 574 c 0
90 235 m 2
 90 310 87.3 386.2 81 429 c 1
 83 432 l 1
 104.2 430.3 147.3 430.7 170 433 c 0
 177.8 433 179 432 179 423 c 0
 172.5 362 170 326 170 251 c 2
 170 180 l 2
 170 104 171.8 56.8 179 0 c 1
 177 -3 l 1
 165 -1 142 0 130 0 c 0
 118 0 95 -1 83 -3 c 1
 81 0 l 1
 88.2 54 90 105 90 180 c 2
 90 235 l 2
EndSplineSet
LCarets2: 1 0 
Colour: ff00ff
EndChar

StartChar: uni1E30
Encoding: 7728 7728 177
Width: 629
VWidth: 999
Flags: HW
HStem: -3 21<94 102 192 200 438 491.5 589.31 597.5> 628 20<94 102 192 200 452.5 503.5 553 589> 698 122
VStem: 104 86<2.67992 642.32> 288 201
DStem2: 293 352 209 322 0.662528 -0.749037<0 415.76>
LayerCount: 2
Fore
SplineSet
427 820 m 1
 455.6 806.7 476.3 789.3 489 768 c 1
 345 710 l 2
 324 701 312 698 303 698 c 0
 294 698 288 705 288 713 c 0
 288 720 290 725 303 734 c 2
 427 820 l 1
104 445 m 2
 104 520 102 588 94 645 c 1
 96 648 l 1
 108 646 135 645 147 645 c 0
 159 645 186 646 198 648 c 1
 200 645 l 1
 192 592 190 520 190 445 c 2
 190 344.1 l 1
 195.1 344.6 205.1 346.9 212 353 c 0
 300 430 408 546 497 648 c 1
 510 645 533 645 546 645 c 0
 561 645 581 645 597 648 c 1
 509 571 361 433 293 354 c 1
 293 352 l 1
 607 -3 l 1
 588 0 564 0 545 0 c 0
 528 0 500 0 483 -3 c 1
 393 108 250 281 209 322 c 0
 204.2 326 195.1 328 190 328.7 c 1
 190 200 l 2
 190 125 192 57 200 0 c 1
 198 -3 l 1
 186 -1 159 0 147 0 c 0
 135 0 108 -1 96 -3 c 1
 94 0 l 1
 102 54 104 125 104 200 c 2
 104 445 l 2
EndSplineSet
LCarets2: 1 0 
Colour: ff00ff
EndChar

StartChar: uni1E31
Encoding: 7729 7729 178
Width: 503
VWidth: 999
Flags: HW
HStem: -3 21<80 88 172 180 334 375.667 489.5 496> 210 30.1<170 210.585> 412 20<463.5 475> 678 20<154.465 170.167>
VStem: 90 80<2.67975 209.983 240.082 672.977>
LayerCount: 2
Fore
SplineSet
347 671 m 1
 350 672 356 673 361 673 c 0
 367.4 673 393 672 416 650 c 1
 419 639 l 1
 304 530 l 2
 289 515 281 511 274 511 c 0
 267 511 260 517 260 524 c 0
 260 535.2 263.3 539.2 271.4 552 c 2
 347 671 l 1
90 200 m 2
 90 482 l 2
 90 558 88.7 632.3 81 675 c 1
 83 678 l 1
 123.5 681 144.9 688 170 698 c 1
 176.3 698 179 695 179 688 c 0
 174.3 624.7 170 575 170 500 c 2
 170 240.1 l 1
 183 241.2 201.3 245.3 214 255 c 0
 253.6 285.5 328.9 366.5 372 429 c 1
 399 429 454 429 473 432 c 1
 475 429 l 1
 410 373.9 312.4 278.9 273 238 c 1
 368.4 122.8 421.6 78.6 496 0 c 1
 494 -3 l 1
 485 -1.2 450.7 0 434 0 c 0
 417 0 383.3 -1.2 368 -3 c 1
 300 95 276 131 211 199 c 0
 202.4 206.7 178.2 209.8 170 210 c 1
 170 200 l 2
 170 124.8 171.2 57 179 0 c 1
 177 -3 l 1
 165 -1 142 0 130 0 c 0
 118 0 95 -1 83 -3 c 1
 81 0 l 1
 88.5 53.5 90 125.5 90 200 c 2
EndSplineSet
LCarets2: 1 0 
Colour: ff00ff
EndChar

StartChar: uni1E32
Encoding: 7730 7730 179
Width: 629
VWidth: 999
Flags: HW
HStem: -209 102<284.735 367.265> -3 21<94 102 192 200 438 491.5 589.31 597.5> 628 20<94 102 192 200 452.5 503.5 553 589>
VStem: 104 86<2.67992 642.32> 275 102<-199.265 -116.735>
DStem2: 293 352 209 322 0.662528 -0.749037<0 415.76>
LayerCount: 2
Fore
SplineSet
275 -158 m 0
 275 -131 299 -107 326 -107 c 0
 353 -107 377 -131 377 -158 c 0
 377 -185 353 -209 326 -209 c 0
 299 -209 275 -185 275 -158 c 0
104 445 m 2
 104 520 102 588 94 645 c 1
 96 648 l 1
 108 646 135 645 147 645 c 0
 159 645 186 646 198 648 c 1
 200 645 l 1
 192 592 190 520 190 445 c 2
 190 344.1 l 1
 195.1 344.6 205.1 346.9 212 353 c 0
 300 430 408 546 497 648 c 1
 510 645 533 645 546 645 c 0
 561 645 581 645 597 648 c 1
 509 571 361 433 293 354 c 1
 293 352 l 1
 607 -3 l 1
 588 0 564 0 545 0 c 0
 528 0 500 0 483 -3 c 1
 393 108 250 281 209 322 c 0
 204.2 326 195.1 328 190 328.7 c 1
 190 200 l 2
 190 125 192 57 200 0 c 1
 198 -3 l 1
 186 -1 159 0 147 0 c 0
 135 0 108 -1 96 -3 c 1
 94 0 l 1
 102 54 104 125 104 200 c 2
 104 445 l 2
EndSplineSet
LCarets2: 1 0 
Colour: ff00ff
EndChar

StartChar: uni1E33
Encoding: 7731 7731 180
Width: 503
VWidth: 999
Flags: HW
HStem: -209 102<210.735 293.265> -3 21<80 88 172 180 334 375.667 489.5 496> 210 30.1<170 210.585> 412 20<463.5 475> 678 20<154.465 170.167>
VStem: 90 80<2.67975 209.983 240.082 672.977> 201 102<-199.265 -116.735>
LayerCount: 2
Fore
SplineSet
201 -158 m 0
 201 -131 225 -107 252 -107 c 0
 279 -107 303 -131 303 -158 c 0
 303 -185 279 -209 252 -209 c 0
 225 -209 201 -185 201 -158 c 0
90 200 m 2
 90 482 l 2
 90 558 88.7 632.3 81 675 c 1
 83 678 l 1
 123.5 681 144.9 688 170 698 c 1
 176.3 698 179 695 179 688 c 0
 174.3 624.7 170 575 170 500 c 2
 170 240.1 l 1
 183 241.2 201.3 245.3 214 255 c 0
 253.6 285.5 328.9 366.5 372 429 c 1
 399 429 454 429 473 432 c 1
 475 429 l 1
 410 373.9 312.4 278.9 273 238 c 1
 368.4 122.8 421.6 78.6 496 0 c 1
 494 -3 l 1
 485 -1.2 450.7 0 434 0 c 0
 417 0 383.3 -1.2 368 -3 c 1
 300 95 276 131 211 199 c 0
 202.4 206.7 178.2 209.8 170 210 c 1
 170 200 l 2
 170 124.8 171.2 57 179 0 c 1
 177 -3 l 1
 165 -1 142 0 130 0 c 0
 118 0 95 -1 83 -3 c 1
 81 0 l 1
 88.5 53.5 90 125.5 90 200 c 2
EndSplineSet
LCarets2: 1 0 
Colour: ff00ff
EndChar

StartChar: uni1E34
Encoding: 7732 7732 181
Width: 629
VWidth: 999
Flags: HW
HStem: -106 44<200 211 211 478> -3 21<94 102 192 200 438 491.5 589.31 597.5> 628 20<94 102 192 200 452.5 503.5 553 589>
VStem: 104 86<2.67992 642.32>
DStem2: 293 352 209 322 0.662528 -0.749037<0 415.76>
LayerCount: 2
Fore
SplineSet
456 -106 m 2
 211 -106 l 2
 203 -106 199 -98 199 -91 c 0
 199 -79 209 -62 221 -62 c 2
 466 -62 l 2
 475 -62 479 -69 479 -76 c 0
 479 -88 469 -106 456 -106 c 2
104 445 m 2
 104 520 102 588 94 645 c 1
 96 648 l 1
 108 646 135 645 147 645 c 0
 159 645 186 646 198 648 c 1
 200 645 l 1
 192 592 190 520 190 445 c 2
 190 344.1 l 1
 195.1 344.6 205.1 346.9 212 353 c 0
 300 430 408 546 497 648 c 1
 510 645 533 645 546 645 c 0
 561 645 581 645 597 648 c 1
 509 571 361 433 293 354 c 1
 293 352 l 1
 607 -3 l 1
 588 0 564 0 545 0 c 0
 528 0 500 0 483 -3 c 1
 393 108 250 281 209 322 c 0
 204.2 326 195.1 328 190 328.7 c 1
 190 200 l 2
 190 125 192 57 200 0 c 1
 198 -3 l 1
 186 -1 159 0 147 0 c 0
 135 0 108 -1 96 -3 c 1
 94 0 l 1
 102 54 104 125 104 200 c 2
 104 445 l 2
EndSplineSet
LCarets2: 1 0 
Colour: ff00ff
EndChar

StartChar: uni1E35
Encoding: 7733 7733 182
Width: 503
VWidth: 999
Flags: HW
HStem: -107 44<124 135 135 402> -3 21<80 88 172 180 334 375.667 489.5 496> 210 30.1<170 210.585> 412 20<463.5 475> 678 20<154.465 170.167>
VStem: 90 80<2.67975 209.983 240.082 672.977>
LayerCount: 2
Fore
SplineSet
380 -107 m 2
 135 -107 l 2
 127 -107 123 -99 123 -92 c 0
 123 -80 133 -63 145 -63 c 2
 390 -63 l 2
 399 -63 403 -70 403 -77 c 0
 403 -89 393 -107 380 -107 c 2
90 200 m 2
 90 482 l 2
 90 558 88.7 632.3 81 675 c 1
 83 678 l 1
 123.5 681 144.9 688 170 698 c 1
 176.3 698 179 695 179 688 c 0
 174.3 624.7 170 575 170 500 c 2
 170 240.1 l 1
 183 241.2 201.3 245.3 214 255 c 0
 253.6 285.5 328.9 366.5 372 429 c 1
 399 429 454 429 473 432 c 1
 475 429 l 1
 410 373.9 312.4 278.9 273 238 c 1
 368.4 122.8 421.6 78.6 496 0 c 1
 494 -3 l 1
 485 -1.2 450.7 0 434 0 c 0
 417 0 383.3 -1.2 368 -3 c 1
 300 95 276 131 211 199 c 0
 202.4 206.7 178.2 209.8 170 210 c 1
 170 200 l 2
 170 124.8 171.2 57 179 0 c 1
 177 -3 l 1
 165 -1 142 0 130 0 c 0
 118 0 95 -1 83 -3 c 1
 81 0 l 1
 88.5 53.5 90 125.5 90 200 c 2
EndSplineSet
LCarets2: 1 0 
Colour: ff00ff
EndChar

StartChar: uni1E36
Encoding: 7734 7734 183
Width: 515
VWidth: 999
Flags: HW
HStem: -209 102<235.735 318.265> 0 61<195.662 422.907> 628 20<95 103 194 201>
VStem: 105 86<62.1786 642.32> 226 102<-199.265 -116.735>
LayerCount: 2
Fore
SplineSet
226 -158 m 0
 226 -131 250 -107 277 -107 c 0
 304 -107 328 -131 328 -158 c 0
 328 -185 304 -209 277 -209 c 0
 250 -209 226 -185 226 -158 c 0
191 445 m 2
 191 200 l 2
 191 183 192 85 199 61 c 1
 333 61 481 83 481 83 c 1
 483 79 l 1
 482 71 481 54 481 44 c 0
 481 34 482 14 483 0 c 1
 481 -3 l 1
 465 -1 442 0 421 0 c 2
 148 0 l 2
 114 0 96 -3 96 -3 c 1
 95 0 l 1
 103 54 105 125 105 200 c 2
 105 445 l 2
 105 520 103 588 95 645 c 1
 97 648 l 1
 109 646 136 645 148 645 c 0
 160 645 188 646 200 648 c 1
 201 645 l 1
 193 592 191 520 191 445 c 2
EndSplineSet
LCarets2: 1 0 
Colour: ff00ff
EndChar

StartChar: uni1E37
Encoding: 7735 7735 184
Width: 252
VWidth: 999
Flags: HW
HStem: -209 102<90.735 173.265> -3 21<80 88 172 180> 678 20<154.465 170.167>
VStem: 81 102<-199.265 -116.735> 90 80<2.67975 672.977>
LayerCount: 2
Fore
SplineSet
90 200 m 2
 90 482 l 2
 90 558 88.7 632.3 81 675 c 1
 83 678 l 1
 123.5 681 144.9 688 170 698 c 1
 176.3 698 179 695 179 688 c 0
 174.3 624.7 170 575 170 500 c 2
 170 200 l 2
 170 124.8 171.2 57 179 0 c 1
 177 -3 l 1
 165 -1 142 0 130 0 c 0
 118 0 95 -1 83 -3 c 1
 81 0 l 1
 88.5 53.5 90 125.5 90 200 c 2
81 -158 m 0
 81 -131 105 -107 132 -107 c 0
 159 -107 183 -131 183 -158 c 0
 183 -185 159 -209 132 -209 c 0
 105 -209 81 -185 81 -158 c 0
EndSplineSet
LCarets2: 1 0 
Colour: ff00ff
EndChar

StartChar: uni1E38
Encoding: 7736 7736 185
Width: 515
VWidth: 999
Flags: HW
HStem: -209 102<235.735 318.265> 0 61<195.662 422.907> 628 20<95 103 194 201> 733 44<11.088 289.515>
VStem: 10 281<733.205 777> 105 86<62.1786 642.32> 226 102<-199.265 -116.735>
LayerCount: 2
Fore
SplineSet
267 733 m 2
 23 733 l 2
 14 733 10 741 10 748 c 0
 10 760 21 777 32 777 c 2
 277 777 l 2
 287 777 291 769 291 763 c 0
 291 751 280 733 267 733 c 2
226 -158 m 0
 226 -131 250 -107 277 -107 c 0
 304 -107 328 -131 328 -158 c 0
 328 -185 304 -209 277 -209 c 0
 250 -209 226 -185 226 -158 c 0
191 445 m 2
 191 200 l 2
 191 183 192 85 199 61 c 1
 333 61 481 83 481 83 c 1
 483 79 l 1
 482 71 481 54 481 44 c 0
 481 34 482 14 483 0 c 1
 481 -3 l 1
 465 -1 442 0 421 0 c 2
 148 0 l 2
 114 0 96 -3 96 -3 c 1
 95 0 l 1
 103 54 105 125 105 200 c 2
 105 445 l 2
 105 520 103 588 95 645 c 1
 97 648 l 1
 109 646 136 645 148 645 c 0
 160 645 188 646 200 648 c 1
 201 645 l 1
 193 592 191 520 191 445 c 2
EndSplineSet
LCarets2: 1 0 
Colour: ff00ff
EndChar

StartChar: uni1E39
Encoding: 7737 7737 186
Width: 252
VWidth: 999
Flags: HW
HStem: -209 102<90.735 173.265> -3 21<80 88 172 180> 678 20<154.465 170.167> 756 44<-14.912 263.515>
VStem: -16 281<756.205 800> 81 102<-199.265 -116.735> 90 80<2.67975 672.977>
LayerCount: 2
Fore
SplineSet
90 200 m 2
 90 482 l 2
 90 558 88.7 632.3 81 675 c 1
 83 678 l 1
 123.5 681 144.9 688 170 698 c 1
 176.3 698 179 695 179 688 c 0
 174.3 624.7 170 575 170 500 c 2
 170 200 l 2
 170 124.8 171.2 57 179 0 c 1
 177 -3 l 1
 165 -1 142 0 130 0 c 0
 118 0 95 -1 83 -3 c 1
 81 0 l 1
 88.5 53.5 90 125.5 90 200 c 2
81 -158 m 0
 81 -131 105 -107 132 -107 c 0
 159 -107 183 -131 183 -158 c 0
 183 -185 159 -209 132 -209 c 0
 105 -209 81 -185 81 -158 c 0
241 756 m 2
 -3 756 l 2
 -12 756 -16 764 -16 771 c 0
 -16 783 -5 800 6 800 c 2
 251 800 l 2
 261 800 265 792 265 786 c 0
 265 774 254 756 241 756 c 2
EndSplineSet
LCarets2: 1 0 
Colour: ff00ff
EndChar

StartChar: uni1E3A
Encoding: 7738 7738 187
Width: 515
VWidth: 999
Flags: HW
HStem: -112 44<132 143 143 410> 0 61<195.662 422.907> 628 20<95 103 194 201>
VStem: 105 86<62.1786 642.32>
LayerCount: 2
Fore
SplineSet
388 -112 m 2
 143 -112 l 2
 135 -112 131 -104 131 -97 c 0
 131 -85 141 -68 153 -68 c 2
 398 -68 l 2
 407 -68 411 -75 411 -82 c 0
 411 -94 401 -112 388 -112 c 2
191 445 m 2
 191 200 l 2
 191 183 192 85 199 61 c 1
 333 61 481 83 481 83 c 1
 483 79 l 1
 482 71 481 54 481 44 c 0
 481 34 482 14 483 0 c 1
 481 -3 l 1
 465 -1 442 0 421 0 c 2
 148 0 l 2
 114 0 96 -3 96 -3 c 1
 95 0 l 1
 103 54 105 125 105 200 c 2
 105 445 l 2
 105 520 103 588 95 645 c 1
 97 648 l 1
 109 646 136 645 148 645 c 0
 160 645 188 646 200 648 c 1
 201 645 l 1
 193 592 191 520 191 445 c 2
EndSplineSet
LCarets2: 1 0 
Colour: ff00ff
EndChar

StartChar: uni1E3B
Encoding: 7739 7739 188
Width: 252
VWidth: 999
Flags: HW
HStem: -112 44<-9 2 2 269> -3 21<80 88 172 180> 678 20<154.465 170.167>
VStem: 90 80<2.67975 672.977>
LayerCount: 2
Fore
SplineSet
90 200 m 2
 90 482 l 2
 90 558 88.7 632.3 81 675 c 1
 83 678 l 1
 123.5 681 144.9 688 170 698 c 1
 176.3 698 179 695 179 688 c 0
 174.3 624.7 170 575 170 500 c 2
 170 200 l 2
 170 124.8 171.2 57 179 0 c 1
 177 -3 l 1
 165 -1 142 0 130 0 c 0
 118 0 95 -1 83 -3 c 1
 81 0 l 1
 88.5 53.5 90 125.5 90 200 c 2
247 -112 m 2
 2 -112 l 2
 -6 -112 -10 -104 -10 -97 c 0
 -10 -85 0 -68 12 -68 c 2
 257 -68 l 2
 266 -68 270 -75 270 -82 c 0
 270 -94 260 -112 247 -112 c 2
EndSplineSet
LCarets2: 1 0 
Colour: ff00ff
EndChar

StartChar: uni1E3C
Encoding: 7740 7740 189
Width: 515
VWidth: 999
Flags: HW
HStem: 0 61<195.662 422.907> 628 20<95 103 194 201>
VStem: 105 86<62.1786 642.32> 155 253<-186 -186>
LayerCount: 2
Fore
SplineSet
307 -57 m 1
 336 -104 372 -146 408 -186 c 1
 387 -200 l 1
 348 -171 315 -146 281 -110 c 1
 244 -148 212 -173 174 -200 c 1
 154 -186 l 1
 190 -146 228 -103 257 -57 c 1
 307 -57 l 1
191 445 m 2
 191 200 l 2
 191 183 192 85 199 61 c 1
 333 61 481 83 481 83 c 1
 483 79 l 1
 482 71 481 54 481 44 c 0
 481 34 482 14 483 0 c 1
 481 -3 l 1
 465 -1 442 0 421 0 c 2
 148 0 l 2
 114 0 96 -3 96 -3 c 1
 95 0 l 1
 103 54 105 125 105 200 c 2
 105 445 l 2
 105 520 103 588 95 645 c 1
 97 648 l 1
 109 646 136 645 148 645 c 0
 160 645 188 646 200 648 c 1
 201 645 l 1
 193 592 191 520 191 445 c 2
EndSplineSet
LCarets2: 1 0 
Colour: ff00ff
EndChar

StartChar: uni1E3D
Encoding: 7741 7741 190
Width: 252
VWidth: 999
Flags: HW
HStem: -3 21<80 88 172 180> 678 20<154.465 170.167>
VStem: 6 253<-186 -186> 90 80<2.67975 672.977>
LayerCount: 2
Fore
SplineSet
90 200 m 2
 90 482 l 2
 90 558 88.7 632.3 81 675 c 1
 83 678 l 1
 123.5 681 144.9 688 170 698 c 1
 176.3 698 179 695 179 688 c 0
 174.3 624.7 170 575 170 500 c 2
 170 200 l 2
 170 124.8 171.2 57 179 0 c 1
 177 -3 l 1
 165 -1 142 0 130 0 c 0
 118 0 95 -1 83 -3 c 1
 81 0 l 1
 88.5 53.5 90 125.5 90 200 c 2
158 -57 m 1
 187 -104 223 -146 259 -186 c 1
 238 -200 l 1
 199 -171 166 -146 132 -110 c 1
 95 -148 63 -173 25 -200 c 1
 5 -186 l 1
 41 -146 79 -103 108 -57 c 1
 158 -57 l 1
EndSplineSet
LCarets2: 1 0 
Colour: ff00ff
EndChar

StartChar: uni1E3E
Encoding: 7742 7742 191
Width: 886
VWidth: 999
Flags: HW
HStem: -3 21<69.5 83.5 121.5 134.5 383 470.005 707.673 722.5 802 812.5> 698 122
VStem: 378 201
DStem2: 226 662 205.25 476.25 0.411818 -0.911266<160.722 543.932> 458.419 166 434 0 0.439345 0.898318<0 362.59> 726 662 659.476 472.949 0.139962 -0.990157<177.879 649.133>
LayerCount: 2
Fore
SplineSet
517 820 m 1
 545.6 806.7 566.3 789.3 579 768 c 1
 435 710 l 2
 414 701 402 698 393 698 c 0
 384 698 378 705 378 713 c 0
 378 720 380 725 393 734 c 2
 517 820 l 1
193 662 m 1
 226 662 l 1
 299.8 490.2 371.3 330 450 166.3 c 1
 458.4 166 l 1
 701 662 l 1
 726 662 l 1
 754 419 784 211 820 -3 c 1
 805 0 779 0 764 0 c 0
 749 0 730 0 715 -3 c 1
 700.3 162.8 680.7 315.2 659.5 472.9 c 1
 656 473 l 1
 577 316 506 164.2 434 0 c 1
 415 0 l 1
 351 155 280.8 317 205.2 476.2 c 1
 200.8 476.2 l 1
 176.3 325.1 142 102 127 -3 c 1
 116 0 108 0 97 0 c 0
 85 0 75 0 64 -3 c 1
 103 184 158 460 193 662 c 1
EndSplineSet
LCarets2: 1 0 
Colour: ff00ff
EndChar

StartChar: uni1E3F
Encoding: 7743 7743 192
Width: 807
VWidth: 999
Flags: HW
HStem: -3 21<72 80 164 172 356 364 448 456 642 650 734 742> 379 60<251.282 348.339 514.872 632.568>
VStem: 82 80<2.6647 320.149> 366 80<2.6647 318.438> 652 80<2.6647 359.671>
LayerCount: 2
Fore
SplineSet
388 671 m 1
 391 672 397 673 402 673 c 0
 408.4 673 434 672 457 650 c 1
 460 639 l 1
 345 530 l 2
 330 515 322 511 315 511 c 0
 308 511 301 517 301 524 c 0
 301 535.2 304.3 539.2 312.4 552 c 2
 388 671 l 1
162 352 m 1
 165 349 l 1
 212 399 271 439 333 439 c 0
 389 439 430 408 439 360 c 1
 496 420 554 439 608 439 c 0
 716 439 732 369 732 280 c 2
 732 180 l 2
 732 104 733 57 741 0 c 1
 739 -3 l 1
 727 -1 704 0 692 0 c 0
 680 0 657 -1 645 -3 c 1
 643 0 l 1
 651 54 652 105 652 180 c 2
 652 290 l 2
 652 357 626 379 572 379 c 0
 533 379 493 372 445 319 c 1
 446 307 446 295 446 281 c 2
 446 180 l 2
 446 104 447 57 455 0 c 1
 453 -3 l 1
 441 -1 418 0 406 0 c 0
 394 0 371 -1 359 -3 c 1
 357 0 l 1
 365 54 366 105 366 180 c 2
 366 290 l 2
 366 357 338 379 300 379 c 0
 265 379 209 349 162 301 c 1
 162 180 l 2
 162 104 163 57 171 0 c 1
 169 -3 l 1
 157 -1 134 0 122 0 c 0
 110 0 87 -1 75 -3 c 1
 73 0 l 1
 81 54 82 105 82 180 c 2
 82 235 l 2
 82 310 80 385.7 73 429 c 1
 75 432 l 1
 97.7 429.7 133.5 430.5 156 435 c 0
 160.7 435 162 432.7 162 425 c 2
 162 352 l 1
EndSplineSet
LCarets2: 1 0 
Colour: ff00ff
EndChar

StartChar: uni1E40
Encoding: 7744 7744 193
Width: 886
VWidth: 999
Flags: HW
HStem: -3 21<69.5 83.5 121.5 134.5 383 470.005 707.673 722.5 802 812.5> 729 104<423.542 506.458>
VStem: 413 104<739.542 822.458>
DStem2: 226 662 205.25 476.25 0.411818 -0.911266<160.722 543.932> 458.419 166 434 0 0.439345 0.898318<0 362.59> 726 662 659.476 472.949 0.139962 -0.990157<177.879 649.133>
LayerCount: 2
Fore
SplineSet
413 781 m 0
 413 809 437 833 465 833 c 0
 493 833 517 809 517 781 c 0
 517 753 493 729 465 729 c 0
 437 729 413 753 413 781 c 0
193 662 m 1
 226 662 l 1
 299.8 490.2 371.3 330 450 166.3 c 1
 458.4 166 l 1
 701 662 l 1
 726 662 l 1
 754 419 784 211 820 -3 c 1
 805 0 779 0 764 0 c 0
 749 0 730 0 715 -3 c 1
 700.3 162.8 680.7 315.2 659.5 472.9 c 1
 656 473 l 1
 577 316 506 164.2 434 0 c 1
 415 0 l 1
 351 155 280.8 317 205.2 476.2 c 1
 200.8 476.2 l 1
 176.3 325.1 142 102 127 -3 c 1
 116 0 108 0 97 0 c 0
 85 0 75 0 64 -3 c 1
 103 184 158 460 193 662 c 1
EndSplineSet
LCarets2: 1 0 
Colour: ff00ff
EndChar

